<mxfile host="Electron" agent="Mozilla/5.0 (Windows NT 10.0; Win64; x64) AppleWebKit/537.36 (KHTML, like Gecko) draw.io/27.0.9 Chrome/134.0.6998.205 Electron/35.4.0 Safari/537.36" version="27.0.9">
  <diagram name="第 1 页" id="cxBq5yX52Hxo2I_KCyHY">
    <mxGraphModel dx="3600" dy="1413" grid="1" gridSize="10" guides="1" tooltips="1" connect="1" arrows="1" fold="1" page="1" pageScale="1" pageWidth="1169" pageHeight="1654" math="0" shadow="0">
      <root>
        <mxCell id="0" />
        <mxCell id="1" parent="0" />
        <mxCell id="pSzIDRAnVB_ECjLOYuTH-1" value="&lt;span style=&quot;font-size: 20px;&quot;&gt;自定义系统调用流程&lt;/span&gt;" style="rounded=0;whiteSpace=wrap;html=1;fontStyle=1" vertex="1" parent="1">
          <mxGeometry x="-410" y="40" width="780" height="40" as="geometry" />
        </mxCell>
        <mxCell id="pSzIDRAnVB_ECjLOYuTH-2" value="" style="shape=table;startSize=0;container=1;collapsible=0;childLayout=tableLayout;fixedRows=1;rowLines=0;fontStyle=0;strokeColor=default;fontSize=14;" vertex="1" parent="1">
          <mxGeometry x="-409" y="80" width="780" height="260" as="geometry" />
        </mxCell>
        <mxCell id="pSzIDRAnVB_ECjLOYuTH-3" value="" style="shape=tableRow;horizontal=0;startSize=0;swimlaneHead=0;swimlaneBody=0;top=0;left=0;bottom=0;right=0;collapsible=0;dropTarget=0;fillColor=none;points=[[0,0.5],[1,0.5]];portConstraint=eastwest;strokeColor=inherit;fontSize=14;" vertex="1" parent="pSzIDRAnVB_ECjLOYuTH-2">
          <mxGeometry width="780" height="80" as="geometry" />
        </mxCell>
        <mxCell id="pSzIDRAnVB_ECjLOYuTH-4" value="&lt;b&gt;1、定义内核服务函数&lt;/b&gt;" style="shape=partialRectangle;html=1;whiteSpace=wrap;connectable=0;fillColor=#dae8fc;top=0;left=0;bottom=0;right=0;overflow=hidden;pointerEvents=1;strokeColor=inherit;fontSize=14;" vertex="1" parent="pSzIDRAnVB_ECjLOYuTH-3">
          <mxGeometry width="250" height="80" as="geometry">
            <mxRectangle width="250" height="80" as="alternateBounds" />
          </mxGeometry>
        </mxCell>
        <mxCell id="pSzIDRAnVB_ECjLOYuTH-5" value="1. 系统调用必须在内核编译时静态注册！即代码在drivers下的test目录下&lt;br&gt;2. syscalls.h 是系统调用专用的宏定义和声明&lt;br&gt;3. &lt;b&gt;SYSCALL_DEFINE宏族&lt;/b&gt;，用于定义名为xxx的系统调用，后面是数字表示参数" style="shape=partialRectangle;html=1;whiteSpace=wrap;connectable=0;fillColor=#dae8fc;top=0;left=0;bottom=0;right=0;align=left;spacingLeft=6;overflow=hidden;strokeColor=inherit;fontSize=14;" vertex="1" parent="pSzIDRAnVB_ECjLOYuTH-3">
          <mxGeometry x="250" width="530" height="80" as="geometry">
            <mxRectangle width="530" height="80" as="alternateBounds" />
          </mxGeometry>
        </mxCell>
        <mxCell id="pSzIDRAnVB_ECjLOYuTH-6" value="" style="shape=tableRow;horizontal=0;startSize=0;swimlaneHead=0;swimlaneBody=0;top=0;left=0;bottom=0;right=0;collapsible=0;dropTarget=0;fillColor=none;points=[[0,0.5],[1,0.5]];portConstraint=eastwest;strokeColor=inherit;fontSize=14;" vertex="1" parent="pSzIDRAnVB_ECjLOYuTH-2">
          <mxGeometry y="80" width="780" height="60" as="geometry" />
        </mxCell>
        <mxCell id="pSzIDRAnVB_ECjLOYuTH-7" value="&lt;b&gt;2、添加到构建系统&lt;/b&gt;" style="shape=partialRectangle;html=1;whiteSpace=wrap;connectable=0;fillColor=#ffe6cc;top=0;left=0;bottom=0;right=0;overflow=hidden;strokeColor=#d79b00;fontSize=14;" vertex="1" parent="pSzIDRAnVB_ECjLOYuTH-6">
          <mxGeometry width="250" height="60" as="geometry">
            <mxRectangle width="250" height="60" as="alternateBounds" />
          </mxGeometry>
        </mxCell>
        <mxCell id="pSzIDRAnVB_ECjLOYuTH-8" value="1. 编写Makefile&lt;br&gt;2. 添加test目录到drivers目录下的Makefile中" style="shape=partialRectangle;html=1;whiteSpace=wrap;connectable=0;fillColor=#ffe6cc;top=0;left=0;bottom=0;right=0;align=left;spacingLeft=6;overflow=hidden;strokeColor=#d79b00;fontSize=14;" vertex="1" parent="pSzIDRAnVB_ECjLOYuTH-6">
          <mxGeometry x="250" width="530" height="60" as="geometry">
            <mxRectangle width="530" height="60" as="alternateBounds" />
          </mxGeometry>
        </mxCell>
        <mxCell id="pSzIDRAnVB_ECjLOYuTH-9" value="" style="shape=tableRow;horizontal=0;startSize=0;swimlaneHead=0;swimlaneBody=0;top=0;left=0;bottom=0;right=0;collapsible=0;dropTarget=0;fillColor=none;points=[[0,0.5],[1,0.5]];portConstraint=eastwest;strokeColor=inherit;fontSize=14;" vertex="1" parent="pSzIDRAnVB_ECjLOYuTH-2">
          <mxGeometry y="140" width="780" height="60" as="geometry" />
        </mxCell>
        <mxCell id="pSzIDRAnVB_ECjLOYuTH-10" value="&lt;b&gt;3、分配系统调用号&lt;/b&gt;" style="shape=partialRectangle;html=1;whiteSpace=wrap;connectable=0;fillColor=#d5e8d4;top=0;left=0;bottom=0;right=0;overflow=hidden;strokeColor=#82b366;fontSize=14;" vertex="1" parent="pSzIDRAnVB_ECjLOYuTH-9">
          <mxGeometry width="250" height="60" as="geometry">
            <mxRectangle width="250" height="60" as="alternateBounds" />
          </mxGeometry>
        </mxCell>
        <mxCell id="pSzIDRAnVB_ECjLOYuTH-11" value="1. 打开文件&amp;nbsp;&lt;b&gt;kernel/include/uapi/asm-generic/unistd.h&lt;br&gt;2. 在最后添加右边的内容&lt;/b&gt;" style="shape=partialRectangle;html=1;whiteSpace=wrap;connectable=0;fillColor=#d5e8d4;top=0;left=0;bottom=0;right=0;align=left;spacingLeft=6;overflow=hidden;strokeColor=#82b366;fontSize=14;" vertex="1" parent="pSzIDRAnVB_ECjLOYuTH-9">
          <mxGeometry x="250" width="530" height="60" as="geometry">
            <mxRectangle width="530" height="60" as="alternateBounds" />
          </mxGeometry>
        </mxCell>
        <mxCell id="pSzIDRAnVB_ECjLOYuTH-15" value="" style="shape=tableRow;horizontal=0;startSize=0;swimlaneHead=0;swimlaneBody=0;top=0;left=0;bottom=0;right=0;collapsible=0;dropTarget=0;fillColor=none;points=[[0,0.5],[1,0.5]];portConstraint=eastwest;strokeColor=inherit;fontSize=14;" vertex="1" parent="pSzIDRAnVB_ECjLOYuTH-2">
          <mxGeometry y="200" width="780" height="30" as="geometry" />
        </mxCell>
        <mxCell id="pSzIDRAnVB_ECjLOYuTH-16" value="&lt;b&gt;4、编写测试程序&lt;/b&gt;" style="shape=partialRectangle;html=1;whiteSpace=wrap;connectable=0;fillColor=#fff2cc;top=0;left=0;bottom=0;right=0;overflow=hidden;strokeColor=#d6b656;fontSize=14;" vertex="1" parent="pSzIDRAnVB_ECjLOYuTH-15">
          <mxGeometry width="250" height="30" as="geometry">
            <mxRectangle width="250" height="30" as="alternateBounds" />
          </mxGeometry>
        </mxCell>
        <mxCell id="pSzIDRAnVB_ECjLOYuTH-17" value="使用syscall调用上面的系统调用" style="shape=partialRectangle;html=1;whiteSpace=wrap;connectable=0;fillColor=#fff2cc;top=0;left=0;bottom=0;right=0;align=left;spacingLeft=6;overflow=hidden;strokeColor=#d6b656;fontSize=14;" vertex="1" parent="pSzIDRAnVB_ECjLOYuTH-15">
          <mxGeometry x="250" width="530" height="30" as="geometry">
            <mxRectangle width="530" height="30" as="alternateBounds" />
          </mxGeometry>
        </mxCell>
        <mxCell id="pSzIDRAnVB_ECjLOYuTH-18" value="" style="shape=tableRow;horizontal=0;startSize=0;swimlaneHead=0;swimlaneBody=0;top=0;left=0;bottom=0;right=0;collapsible=0;dropTarget=0;fillColor=none;points=[[0,0.5],[1,0.5]];portConstraint=eastwest;strokeColor=inherit;fontSize=14;" vertex="1" parent="pSzIDRAnVB_ECjLOYuTH-2">
          <mxGeometry y="230" width="780" height="30" as="geometry" />
        </mxCell>
        <mxCell id="pSzIDRAnVB_ECjLOYuTH-19" value="&lt;b&gt;5、编译，然后使用测试程序测试&lt;/b&gt;" style="shape=partialRectangle;html=1;whiteSpace=wrap;connectable=0;fillColor=none;top=0;left=0;bottom=0;right=0;overflow=hidden;strokeColor=inherit;fontSize=14;" vertex="1" parent="pSzIDRAnVB_ECjLOYuTH-18">
          <mxGeometry width="250" height="30" as="geometry">
            <mxRectangle width="250" height="30" as="alternateBounds" />
          </mxGeometry>
        </mxCell>
        <mxCell id="pSzIDRAnVB_ECjLOYuTH-20" value="在适当的位置添加，&lt;b&gt;source &quot;drivers/test/Kconfig&quot;&lt;/b&gt;" style="shape=partialRectangle;html=1;whiteSpace=wrap;connectable=0;fillColor=none;top=0;left=0;bottom=0;right=0;align=left;spacingLeft=6;overflow=hidden;strokeColor=inherit;fontSize=14;" vertex="1" parent="pSzIDRAnVB_ECjLOYuTH-18">
          <mxGeometry x="250" width="530" height="30" as="geometry">
            <mxRectangle width="530" height="30" as="alternateBounds" />
          </mxGeometry>
        </mxCell>
        <mxCell id="pSzIDRAnVB_ECjLOYuTH-34" value="" style="rounded=0;whiteSpace=wrap;html=1;fillColor=none;strokeColor=#6c8ebf;" vertex="1" parent="1">
          <mxGeometry x="460" y="40" width="340" height="240" as="geometry" />
        </mxCell>
        <mxCell id="pSzIDRAnVB_ECjLOYuTH-35" value="&lt;h1 style=&quot;&quot;&gt;&lt;font style=&quot;font-size: 21px;&quot;&gt;系统调用代码&lt;/font&gt;&lt;/h1&gt;" style="html=1;shadow=0;dashed=0;shape=mxgraph.bootstrap.rrect;rSize=5;strokeColor=#6c8ebf;strokeWidth=1;fillColor=#dae8fc;whiteSpace=wrap;align=center;verticalAlign=middle;spacingLeft=0;fontStyle=1;fontSize=14;spacing=5;" vertex="1" parent="1">
          <mxGeometry x="460" y="40" width="340" height="40" as="geometry" />
        </mxCell>
        <mxCell id="pSzIDRAnVB_ECjLOYuTH-36" value="&lt;span style=&quot;font-size: 16px;&quot;&gt;#include &amp;lt;linux/kernel.h&amp;gt;&lt;/span&gt;" style="text;html=1;align=left;verticalAlign=middle;whiteSpace=wrap;rounded=0;dashed=1;fontSize=14;" vertex="1" parent="1">
          <mxGeometry x="460" y="80" width="340" height="20" as="geometry" />
        </mxCell>
        <mxCell id="pSzIDRAnVB_ECjLOYuTH-37" value="&lt;span&gt;#include &amp;lt;linux/syscalls.h&amp;gt;&lt;/span&gt;" style="text;html=1;align=left;verticalAlign=middle;whiteSpace=wrap;rounded=0;dashed=1;fontSize=16;fillColor=#dae8fc;strokeColor=none;" vertex="1" parent="1">
          <mxGeometry x="460" y="100" width="340" height="20" as="geometry" />
        </mxCell>
        <mxCell id="pSzIDRAnVB_ECjLOYuTH-38" value="&lt;font&gt;#include &amp;lt;linux/module.h&amp;gt;&lt;/font&gt;" style="text;html=1;align=left;verticalAlign=middle;whiteSpace=wrap;rounded=0;dashed=1;fontSize=16;" vertex="1" parent="1">
          <mxGeometry x="460" y="120" width="340" height="20" as="geometry" />
        </mxCell>
        <mxCell id="pSzIDRAnVB_ECjLOYuTH-39" value="" style="text;html=1;align=left;verticalAlign=middle;whiteSpace=wrap;rounded=0;dashed=1;fontSize=16;fillColor=none;strokeColor=none;" vertex="1" parent="1">
          <mxGeometry x="460" y="140" width="340" height="20" as="geometry" />
        </mxCell>
        <mxCell id="pSzIDRAnVB_ECjLOYuTH-40" value="&lt;font&gt;SYSCALL_DEFINE0(helloworld){&lt;/font&gt;" style="text;html=1;align=left;verticalAlign=middle;whiteSpace=wrap;rounded=0;dashed=1;fontSize=16;fillColor=none;strokeColor=none;" vertex="1" parent="1">
          <mxGeometry x="460" y="160" width="340" height="20" as="geometry" />
        </mxCell>
        <mxCell id="pSzIDRAnVB_ECjLOYuTH-41" value="&lt;span style=&quot;white-space: pre;&quot;&gt;&#x9;&lt;/span&gt;printk(&quot;This is helloworld syscall\n&quot;);" style="text;html=1;align=left;verticalAlign=middle;whiteSpace=wrap;rounded=0;dashed=1;fontSize=16;fillColor=none;strokeColor=none;" vertex="1" parent="1">
          <mxGeometry x="460" y="180" width="340" height="20" as="geometry" />
        </mxCell>
        <mxCell id="pSzIDRAnVB_ECjLOYuTH-42" value="&lt;span style=&quot;white-space: pre;&quot;&gt;&#x9;&lt;/span&gt;return 0;" style="text;html=1;align=left;verticalAlign=middle;whiteSpace=wrap;rounded=0;dashed=1;fontSize=16;fillColor=none;strokeColor=none;" vertex="1" parent="1">
          <mxGeometry x="460" y="200" width="340" height="20" as="geometry" />
        </mxCell>
        <mxCell id="pSzIDRAnVB_ECjLOYuTH-43" value="}" style="text;html=1;align=left;verticalAlign=middle;whiteSpace=wrap;rounded=0;dashed=1;fontSize=16;fillColor=none;" vertex="1" parent="1">
          <mxGeometry x="460" y="220" width="340" height="20" as="geometry" />
        </mxCell>
        <mxCell id="pSzIDRAnVB_ECjLOYuTH-46" value="MODULE_LICENSE(&quot;GPL&quot;);" style="text;html=1;align=left;verticalAlign=middle;whiteSpace=wrap;rounded=0;dashed=1;fontSize=16;fillColor=none;strokeColor=none;" vertex="1" parent="1">
          <mxGeometry x="460" y="260" width="340" height="20" as="geometry" />
        </mxCell>
        <mxCell id="pSzIDRAnVB_ECjLOYuTH-54" value="" style="rounded=0;whiteSpace=wrap;html=1;fillColor=none;strokeColor=#d79b00;" vertex="1" parent="1">
          <mxGeometry x="460" y="300" width="470" height="300" as="geometry" />
        </mxCell>
        <mxCell id="pSzIDRAnVB_ECjLOYuTH-55" value="&lt;h1 style=&quot;&quot;&gt;&lt;font style=&quot;font-size: 21px;&quot;&gt;Makefile&lt;/font&gt;&lt;/h1&gt;" style="html=1;shadow=0;dashed=0;shape=mxgraph.bootstrap.rrect;rSize=5;strokeColor=#d79b00;strokeWidth=1;fillColor=#ffe6cc;whiteSpace=wrap;align=center;verticalAlign=middle;spacingLeft=0;fontStyle=1;fontSize=14;spacing=5;" vertex="1" parent="1">
          <mxGeometry x="460" y="300" width="470" height="40" as="geometry" />
        </mxCell>
        <mxCell id="pSzIDRAnVB_ECjLOYuTH-56" value="&lt;span&gt;KERNEL_DIR= ../../../kernel/&lt;/span&gt;" style="text;html=1;align=left;verticalAlign=middle;whiteSpace=wrap;rounded=0;dashed=1;fontSize=16;" vertex="1" parent="1">
          <mxGeometry x="460" y="340" width="470" height="20" as="geometry" />
        </mxCell>
        <mxCell id="pSzIDRAnVB_ECjLOYuTH-57" value="&lt;span&gt;ARCH = arm64&lt;/span&gt;" style="text;html=1;align=left;verticalAlign=middle;whiteSpace=wrap;rounded=0;dashed=1;fontSize=16;" vertex="1" parent="1">
          <mxGeometry x="460" y="360" width="470" height="20" as="geometry" />
        </mxCell>
        <mxCell id="pSzIDRAnVB_ECjLOYuTH-58" value="&lt;font&gt;CROSS_COMPILE = aarch64-linux-gnu-&lt;/font&gt;" style="text;html=1;align=left;verticalAlign=middle;whiteSpace=wrap;rounded=0;dashed=1;fontSize=16;" vertex="1" parent="1">
          <mxGeometry x="460" y="380" width="470" height="20" as="geometry" />
        </mxCell>
        <mxCell id="pSzIDRAnVB_ECjLOYuTH-59" value="&lt;span&gt;export ARCH CROSS_COMPILE&lt;/span&gt;" style="text;html=1;align=left;verticalAlign=middle;whiteSpace=wrap;rounded=0;dashed=1;fontSize=16;" vertex="1" parent="1">
          <mxGeometry x="460" y="400" width="470" height="20" as="geometry" />
        </mxCell>
        <mxCell id="pSzIDRAnVB_ECjLOYuTH-60" value="" style="text;html=1;align=left;verticalAlign=middle;whiteSpace=wrap;rounded=0;dashed=1;fontSize=16;" vertex="1" parent="1">
          <mxGeometry x="460" y="420" width="470" height="20" as="geometry" />
        </mxCell>
        <mxCell id="pSzIDRAnVB_ECjLOYuTH-61" value="obj-y += systemcall.o" style="text;html=1;align=left;verticalAlign=middle;whiteSpace=wrap;rounded=0;dashed=1;fontSize=16;" vertex="1" parent="1">
          <mxGeometry x="460" y="440" width="470" height="20" as="geometry" />
        </mxCell>
        <mxCell id="pSzIDRAnVB_ECjLOYuTH-63" value="" style="text;html=1;align=left;verticalAlign=middle;whiteSpace=wrap;rounded=0;dashed=1;fontSize=16;" vertex="1" parent="1">
          <mxGeometry x="140" y="480" width="780" height="20" as="geometry" />
        </mxCell>
        <mxCell id="pSzIDRAnVB_ECjLOYuTH-64" value="&lt;font&gt;all：&lt;/font&gt;" style="text;html=1;align=left;verticalAlign=middle;whiteSpace=wrap;rounded=0;dashed=1;fontSize=16;" vertex="1" parent="1">
          <mxGeometry x="460" y="480" width="470" height="20" as="geometry" />
        </mxCell>
        <mxCell id="pSzIDRAnVB_ECjLOYuTH-65" value="&lt;span style=&quot;white-space: pre;&quot;&gt;&#x9;&lt;/span&gt;$(MAKE) -C $(KERNEL_DIR) M=$(CURDIR) modules -j8" style="text;html=1;align=left;verticalAlign=middle;whiteSpace=wrap;rounded=0;dashed=1;fontSize=16;" vertex="1" parent="1">
          <mxGeometry x="460" y="500" width="470" height="20" as="geometry" />
        </mxCell>
        <mxCell id="pSzIDRAnVB_ECjLOYuTH-66" value="" style="text;html=1;align=left;verticalAlign=middle;whiteSpace=wrap;rounded=0;dashed=1;fontSize=16;" vertex="1" parent="1">
          <mxGeometry x="460" y="520" width="470" height="20" as="geometry" />
        </mxCell>
        <mxCell id="pSzIDRAnVB_ECjLOYuTH-67" value=".PHONY: clean" style="text;html=1;align=left;verticalAlign=middle;whiteSpace=wrap;rounded=0;dashed=1;fontSize=16;" vertex="1" parent="1">
          <mxGeometry x="460" y="540" width="470" height="20" as="geometry" />
        </mxCell>
        <mxCell id="pSzIDRAnVB_ECjLOYuTH-68" value="clean:" style="text;html=1;align=left;verticalAlign=middle;whiteSpace=wrap;rounded=0;dashed=1;fontSize=16;" vertex="1" parent="1">
          <mxGeometry x="460" y="560" width="470" height="20" as="geometry" />
        </mxCell>
        <mxCell id="pSzIDRAnVB_ECjLOYuTH-69" value="&lt;span style=&quot;white-space: pre;&quot;&gt;&#x9;&lt;/span&gt;$(MAKE) -C $(KERNEL_DIR) M=$(CURDIR) clean" style="text;html=1;align=left;verticalAlign=middle;whiteSpace=wrap;rounded=0;dashed=1;fontSize=16;" vertex="1" parent="1">
          <mxGeometry x="460" y="580" width="470" height="20" as="geometry" />
        </mxCell>
        <mxCell id="pSzIDRAnVB_ECjLOYuTH-71" style="edgeStyle=orthogonalEdgeStyle;rounded=0;orthogonalLoop=1;jettySize=auto;html=1;entryX=0.001;entryY=0.425;entryDx=0;entryDy=0;entryPerimeter=0;fillColor=#dae8fc;strokeColor=#6c8ebf;strokeWidth=2;" edge="1" parent="1" source="pSzIDRAnVB_ECjLOYuTH-3" target="pSzIDRAnVB_ECjLOYuTH-35">
          <mxGeometry relative="1" as="geometry" />
        </mxCell>
        <mxCell id="pSzIDRAnVB_ECjLOYuTH-74" style="edgeStyle=orthogonalEdgeStyle;rounded=0;orthogonalLoop=1;jettySize=auto;html=1;entryX=-0.001;entryY=0.454;entryDx=0;entryDy=0;entryPerimeter=0;fillColor=#ffe6cc;strokeColor=#d79b00;strokeWidth=2;" edge="1" parent="1" source="pSzIDRAnVB_ECjLOYuTH-6" target="pSzIDRAnVB_ECjLOYuTH-55">
          <mxGeometry relative="1" as="geometry" />
        </mxCell>
        <mxCell id="pSzIDRAnVB_ECjLOYuTH-76" value="" style="shape=image;verticalLabelPosition=bottom;labelBackgroundColor=default;verticalAlign=top;aspect=fixed;imageAspect=0;image=data:image/png,iVBORw0KGgoAAAANSUhEUgAAAo8AAADUCAIAAAByJF4xAAAgAElEQVR4Aey991cbyZ/3u//Ds/f+8JznufeXe3f2u7N37/fZc3cXw5gxwmScbRxwxnmcsT0OMySDbWxjjBmCSSInI0AiSASDyBmMJBBBgAhSJ7Ax+gfuqW51kloBkD14XOf04bREqbr6XdX1qs+nPlX9D4SJgAdUACoAFYAKQAWgAltTgdCzoaFnQ/9haxYOlgoqABWACkAFoAJQAcJEhJ44GHriIKQ1dC1ABaACUAGoAFRg6yoAab116wYOJ6ECUAGoAFQAKkApAGn9p9B6ruNRUVpQgaxqFjbETSuwXFKABcegMR3IprP6UxoDvChUACoAFXCsgPO0NqimJFKV0DHeq1/DLTpKg1FZp5I0zE1iVvFr2Iq6S1sFslK3TFj90CIf137EF4aKgwpbelEy29nGc7llOdO2LmHsaMrwya6q0NtKYPP7lZnOZxXZu7NTfMjDv3poia/P6kRdKPhXQeK4zUysdNs6KZFhPDAC9YtGKpYwqlTYLHEyCg1vMvMSGSX2RqC+9BEci57LQcsnzIldfCNrxNMX4FphEse0znqLBcQj/av86jARHS34uWdsgR/3Uy1E4PnpqcP8ItH8uS9zL1ui0meHxAFJVzzqenRMTS2bBhoe/z3pyj9ZHBlZNUwa7om+7XrqlR/zi5usH39uMngOFYAKOK/AOmmtVnQvDI4s0se8UqGWyCYGF0z87m91rGNMIhvvnP7M/96EzBrawE/GGlvG/wRaI90tWUE0O4nRd7vyFc1GW2JtmNbq1NIUn7yS6Na2vE5wFA7NrFjoQGALOk3ftMEKG7YKs6W+p2jtG4GGN5mpJkjrC0VobjOW24xlSLFzT1C/aDR93CYFN3ODOEb0TODzlo1NgLWCtF5UEQcj0GPpaFojlgsOtGXBJoz/8rRGPkRlXvshM714ifdQz461vm6VJTKHLN496cq/FFf1WFccbqx4d/9f3vz+YNyq2Vsnht9ABaACTiqwTlpr2qc51rDBqKxRVbYuLvAvhkzM1khVsh7UEoQY2lajksinB2dW0fGZyq9vW0+XVKcfb9GRjERVHeKg8h6dzX55o7Rear2Rk3qoQfttkphflQLAI0wEMowHRaJnXqNBSYiabA+CtI7sZtmM6YmwKPRADjLPY4Bw/s6UYWNpBGk92ID7RSLZ0zZbAvdaf3Faf1TWR/896e6pAdprwr135nymLTzz2o/5uRI+0ananB3I9k664qHoZ01z5ofwBCoAFdiwAs7TGps19PTNaxZYWi8OT0mkmpZxvk2DYN0KlUSuG0et3HoY2te9pCO/x/4MWmNDcYUZD/sQsmB6WX36wXouUzGduuFheUZQdmpQQUl0l1reaOUJN45VNJefKUwPyE7fXVj4a3P/8JKV9AutV3NSjzVNCtF65FWx2T1OOslltQb+z+feX8xJPdk02NBefjI/zS87PaRclqs28JXU9/XKrpeQ5czPu1TXUqf7yv5GktZIfB22NxLJngSQc0hr4jOelIgFJgh4ofkKmPmNrxDXo9BjJcj7JuzcM9QvEj2ShGYOsvgnTER7Fc44230j0MfmCQ7eCKC3Hb+cgAZFogcSkNQBLCtDwBNuH8Cz48SDP7CgSHTXMzSyHpVvwBP+iaiU4eeeg2LseobcLUP6cNbXgoyAWYMIJVpahh2NAR6IU5lo3Sx/6PCJqKzFuDl0oGwOjFaKBuzUE2GtBEW2+tIwXnEw6crfK5o0Vv9iVZ3pvJN57cc8sSCqiYXBh8A0z5AY+Y3WTobwX1ABqIAzCjhPa/ZxNee73K9QSRSzWh4q1qb7xgHCtZ/Y3kSoHF+Z1sau+7lcTHLOxeUFZKjX6rTibE5KYEF5fFtnWXdzbGVBWBmf1thYTmWaj7gooq1TNthb3FZxUpwSXN4xap4uNSzMz0zNzkyNKy7mpB6uH9HOkh9nZ6YWGIlm2nvbctpbctqbY8pTfLKFaX2guPh2Y2/rpLZvpOW3khQfcUUBO7m+0K0UB2ZnXapvrxjoq+qqv1uU4pNXVfFVo9UoT3jCEBYTb54tdkhrfIW4F4cGp6CTztnWFIF2v0TvFKEKNdY6hD1Lx/wikXQti7FJDZ6pwDIV2NsSTJDWE/343gj0YBKS3IgWNWF332BnElBm3hpfwccXwVEjATmnfcCoj+OLmO6jufViC8Slx6j/EzA0KW7B4rOwC68BDtczb72clw2Kd6UAzWrEUkrRg1Ho3mR0mH5AKFofT0Qi69HmMbyhC78RDwrZSjBP0HK+GPOLRh7VoBW9WJECC4tDdycgnXQCVqsSpEGLdY9gj99YaiX0DFo+0dhkct7Nf055nmzH/6HvvpN57Yf05y+nBb3cK8qaiP836e75YSNTeMurOFMSmAYqABWwVmDDtMYm52qkKvngMvexxGbmFVJVdYeR8o0bppYGhgxT1kY2YfrKtCaW5manhnvKdomlxdopjW5Ko1FczBFH901pdHoDuAUwpe2TXZI5SWuEqZNLU7hRZsSoZG929m8DlGkODMq5wbJd2dnRwySMl9rDcziDADrEzCc7xTrKzEQsNTak2aB1SmBFH2NarYzXHMlODVPOmiG31B6em3q0Qcv0latzjRdtmvL0vbi4x6Ro/WoEbZfiAc+Qzo+4IK0fNKHaJVy7hH+YxNNzALEeKh0HglFlpggEPO205wY3ktZ2qUAOVHmsbeu8DMw/FpEzVDMS4Y9ZWg828ExznplOR5n1yEGx34zSNv0akZa2vigzdBxMil+WIUyzUSlBjB5TWorWYe/YBDODYJDBzCNQOXClmxkGCR62m0tlrRVVHafKBbSy2SQ+j7Y+/8+kGwc6qBmBla5uSXxn/5hF+iHxz+ZAsxteEkkt3xNu0JTvSbryH5XvKdN8YrTheUtTMzSyLTSEH6ECG1Ngo7ReVbepJbWTw9zHFVseaFZLaqdGlihv+dpcv1Yi0/ZznOcMNr42rQGPB5XiIBqEK+PS/WJZLTvjrq+uTfERc4POjEpeTDiq6sj3zy7PncY+ouaDAOZ42qV2MsgOm+0bGVAMD8h7pKeyU/dVK2uHwUfF8EDj2IKVV9wOrVNDm6iZdbJGyVlwxmO/Ol4Tkp3+a8/SCl2Gj+jQs8KUwOoRjmt0Y03B+V9RdIwfQlEdCAV/NoAK0prLP79I9JYMnXHOsCZMBEWgYyUc3qwRMU/RPVkCM9/CtP6MJ7zC+Nb8cmYa6wlfmsfl/Zi8H0vPBwCOa0Kpj/JBrI8cwBEmor4U94tEZTTvgftdtj5aa5VgTJCspnlvIqgp/Msy861RtI7sYhNQql6Xm7/RKsG0evo4avyEU4dhcfliFHquypwDpdXRIo5Wq8S9GPRALjsCcFi5uoYzyVd+LJJ0U34gfCkj/9o/Z+U3WfwQRUZnZvomP5Q3vfFKuvL3UvkwkwCZTACmeUK62TT/3FUf/a9vYp/MOV3pTFbwBCoAFbBWYIO0XlxqkqoqO4ycWds1/fBUlVTdqKK9iMQWozUvxEzTkR9U3jPFulVnJbUpPnkNrWynaRFlho4oxf4ci5laneWTnXahXc/rj+zNWzMVYI/WJ81xcGRiYLKn7qPn11c11XsFygDM9z+D1oRpOS0FO5qPzM0IrOC6WonKB7HaBmAInqPhxChg/0SY1vHo7gzEGvnCtCZXdu1K5fneBaPM7Mxby0haM9Y5YSLsJBa8I1UzSWtOMDy2uBwWxa43M9OaG5FHLoe7Xm9uilQO3KEPdc6sWBPQar20NhaXhv/tTUzEFP3w2qI1e48rCunDH9/EmGG8bCJN85sHumfoZwrSGs7cQwVcqsCGaL0206+VSMd48eHE2kSXRiKbHJz9qF8wHxM941vCtl6sqU+j4WrhrE67oKRY6yStixNHtIOT3GNCw05Lk33ZF6d12i9KtUUZRmYYRyvbn7q0oXCzZWxrwkSoWvDgGFSiwsOs1lubfblrRFISFvCMOxHLuFhsnggQaI2I+Y5p/aQD7ZnEuMfQopmLAlqtk9aY5gmI8S6umdF/mJsHh+7Dyzwh25rTDCbaE/496e7tMXKqYnm1pjL8b8nxL6foHOZmpLKIH6FtzVHMZmuHaaACziiwEVpjaKcc7HzCX6FB0tp6+5St4AnHsQXd6EjNqezixBFy0lrXFVOcdqllXKObnlqiXH9OesLt7KZCy/1FaU16wu/0fE020/fF9jVcWoPp5Bj0ZjV20RatTYS2mwiMQMPfc1y1jkYSFIF43l1Xe8KZ+7JjLn81T/hDzkZs1p5w4EvnWOdMyakTF9H6B4udT5Ku/BPjCcfni2renG3o5E5jT7Q+//ekX29rObS2zgHS2qKy4EeowIYV2ACtDRpdlVSt+EA7zehrG2YxzTjCHlpkqG1sS9jWoIS8vVBArFZeopouOeCQsaMlw4kos7e/tM/Rk9DYgrr+vrQ6V8vNhzB9SVqblpThuSm7ZcPztL9xda77mawitpfvjWfJyi+ba77n0powLZfkgaVZR23Tmlglnr5CA1+CeDQny0MRKDAB6aTj6ajp3mOuizJjSmKH1puPMkM0IMrsSi07hazqEIgyO1rAzsdryQQWUWaXqtgcFjXEw2ws84PZVb55WhNE/4fusoFO9uhX3M659gNDa4IoLr31tz/i38wxQX/z4uJbf0t+/oYOIJ8Y72F/DrLqeF324F8grZlmBk+gAptUYP20/jjUopbUTo86DvW0nrf+ODGyODBEHh1aiVQt75zvH1ocGFnUCkWiuQYtlEDICGcvFBCrJZZJ2RAzkGbFvIKrglrB9bSyyGoFlzpLkuaTnXO9sbW4uz2zqTxUnOJX9L7bYhMYO7ReGCnpauGs4CqKaKM+tssmSHOZWm9te97aRCy0t4j9s9NDqxtzuzsKlLLrRSk+4rJsJpTdlaLZalt8WhNUDDO5tRkdOUXuPMrwhnKYB0agER1sWICtzKnvKQIdSkYvpqHpLWhRA3bjOUoFWzE/bGjlreA6X4BSC7pyelDK9zDRC5YyH0xC0pvJFVx/8FZwMfnYoTVnBRcKVnDlbHAFl18keqUIzWrGUsrBomrrFVxnU9DL+WheG5ZRhR+NsVzBZV4DVkQlwE7FogHPkCbEPPRxAa2tXB1W89Yg3jv5yo8Zz641ylJa390rePBvSVe9FIN8Bxs3HzhvzVUDnkMFNq3Aumk9M18nVVX3YE50u1a0xhBljeBO4+rWL71huL66Np3eXwzT9RYGlbYxy3JoEcHuKPfLMwLJ3VEi7eyOAvYtSQ3KL7wl7+mbZzp9+sQ2rcmIbouJc+pj2i+dZGC5Y1oTJkLf3Q12RwnMTvETZ4dJGyso0n8NTlP3aEFr4hPx21OwybbFPuFcWuMrIE1QIjJCeyZouYSLbSZQKdLZDvYV8YtEDyaiqQOcVkdOY1vHXvlGoLtS2Ug0ancUP2Z3FKF9wu3QmjARkxrz7ijBT9DfNrw7SjW9O8oT5O47od1ROpDKSuxYrHl3lCpmCR/VOLn7qzxBrhehLfSktXD8/Drnra3rworWBGGaHZX/WhrlmXz1h6Qb/5kdf61tmOsYt6pHSGu6Y7GWF34DFdiAAuum9QauAX+ypRTQE7jgMU+7qY0rwgn0nIVMm72jTzYvgZC+VgF7cUv2fYJK6gmcEdOhUNYx4Q5/AhNABaAC36ECkNZWNsGWpIKrmia2APbrFjRJzYuj6FdaWafxi0aaaaJvsjyyUps7k1BLk78JWjsW04m2BGm9ybYEfw4V+E4UgLT+vmhNrOIDY7hSjVkfbTrzPOjYpHAC5RhOhxRtVrS5OVuXwCbI3fG+CVo7I6bDfgTS2qFEMAFUACpAmAhI682CBzYjqABUACoAFYAKfGkFIK0hraECUAGoAFQAKrDVFYC03uo19KXHazB/qABUACoAFdj6CkBaQ1pDBaACUAGoAFRgqysAab3Va2jrj/hgCaECUAGoAFTgSysAaQ1pDRWACkAFoAJQga2uAKT1Vq+hLz1eg/lDBaACUAGowNZXANIa0hoqABWACkAFoAJbXQFI661eQ3/+iG91RjOvbNF2Tq45+watP7/MTmwiBgsJFYAKbFKBKX1D60zv2PLSJvOBP3dGAUhrSGt7ChiwvhaNRKqubpge1v9Fab1s0ubdD9kuCrlfoXLmmYFpvgcF8Hn5wyMBnsFXxfSbSb+Hu17vPc4Z2ho1Eqmq+v2c1vFbGeEYenMKOE9rg2pKIhV8g9Z4r3U/bjAq61SShrlJzKJ8n+c0+veNY1VStaRmTK6cHZ517qVM621GXyh9Zzt+8zUaFI3ueoJcL0AbF5j3TOMJSVhAPPs+ZqoAiyrweuPbDezLoyZVRORbdF8MGhyDhqWjhVZ9wewUHp+DHYoBL546koi8ULJvPmZuCp0ijpLbfT/jvpaKknqNSErCgpMRtS24OkxAVxlG9DerJbLxFtWyxVtB7QGeKaSdE3y+LOxnkZt78IM6+pWLq+0Ru7133ntHveySQGWXRCI3dy/q2LYjeF/YrwlVveb/0iW0c4l1/Gu1N+7QTjd3r5CX7Q5/1fnHWTfP01ljbIVSP9G2pl05tnv7dnOZD8XbzArpiPf3EIWX0zfu2nuBublIAUybc9gTNNHIRv6rda3zX6m55i3a+Uhq1Xj0yoLfju7xp5uxb4Tc/EpZq5S6zIu+7gfi+j59g+6rz3Oq2TqpqrJJr7Ps7a21gt9sQoF10lqt6F4YHFmkj3mlQi2RTQySb3vk9OCrYx1jEtl45zT97npz61ybG5ysAgMxXffQ4sCArqFOJanRds/Y4sombszqeeAUb6PZ9sjxwAj0WBqarMBSJPipx6j/E7SaBjb1NuWHSt4DmZeBBTxDWum3V82oAGV3v0Ti67DMOuxmAkDyqyG260d1RFgMyPb3SixTjkWkYr4R6PV6xIJSg424XzQa8gQ99Y53OXDXDmHsMAGlz9rc4IREqm5UuehNHtwaoWnt5X37nXnvcSFae4VFZ+TnZOTnvE1PvBG6283d92LOIDcfV51jCx86+0b0TgwcBWmNG2TX/Lzd9996kfY2Q5yTIc4p7bT5xnFIa1fV2pfOZ3aqu3N00uLRE7ioDVovKJ/5e4iCL0enkE0iQ5zTOEkP7i27oG+Z1qDP0X+YqpKq5cPkJv8CElnerwt64+/wKuuktaZ9mkNWg1FZo6psXbQYeyITszVSlawHtTTIEPB+68rWxTlG6PnFhhpVZZvhW5j2WAVvaN6bgqrpIciMijgSgV6W0bz8DMzrwJdIJ423RQ1gM9ewLsnD/GPR6iXzQ4tjRHgceB/zpMk8ppaV4n6RaPY0/VSvEWlpmH8s0rzCHXQv52Vju1LR9HxM4I3RDmHsMAH1aBG9CkHviCsePIrWISdO/OR1tWKGvFkhWgdG1zNNhSB6447udAt49P5P7REEaY10Jfh7iK6XaNnS2lYJ0toZlb6lNDZo3fc2zM0zNNXKeSZ0a984rU0EsQy6C8WczUGq0F1DZq9PAedpjc0aevrmNQssrReHpyRSTcs4TS+qPhCsW6GSyHXjqFWHNbekbJ5oH+N6e1YGG9XAYb716xIniOtRfFv2M97Sg9VoabKaCLN53W7md142MKyVLGiX01KwoCSej3rkA1YxiDLvtsp6C3jfzzHyhnvwRwVoE8LSGl8h7j1Gz1UhKiXuF4mUzLMFADI6hLHDBGTFLS42SFWyPpy9rgvriKL1+VdvLu/0u5hHzhY7pLWJkMUdcPM8nTfBv1+rZkaVc9k0mnLWx/3Ii5rGVMpH/fOeM/eymnX0wIgwES0vjtBeSi83d98HMotxJ3iWdF3Zd88c2L5d5Bl0/G66vCZZwBNuH8CYrvnlr6f8RaJton1nI7La65+u2xNOjJa9vnt0zy6qGJdj83sMnHpBKy/tEAVFvWsQPwJ+1+2+gcduJzeq+fWl73734kroge07RJ4++47fflo+NMskYLSSyZOuHAH+/J17zjwS87RiEm/ixDhan3Tj5AEROV/g6R9yNiKrlW69+Lzk8k5v0dU8bgVhutIwkSjgkZR5QBZHK6KunfQnZ0m2iYIPX43h3ojDshmbY0UevuElHfkxl3f7iLbtCD589Un1OGstLJtGX5/yYVuF5/kSajTJbWYro6XPbx7099u2I3j/5ejywXeCnnDBgR1dQn1X2ZOT+3dt3+7rc/jaq7rOlF/W7QnHdPI3Dy7t9vdz2+7rc/ACqC9Ov9H66rib5/kMZdXTa0e9QaWHnI3OH0Q5zcZEECujZW8eHiWLsXPP8euxWd10dRAmgtaqOSvyHGi9VlrR90IiZ226b5z0s7KAWB+KeLlx1YbntALO09pK+uV+MJia1fLmKsg6k2patFwk0xezrg8M65arJO8XWGvbOs1W+eYznpAIUNrKAadl2SjzOgHp/4gvTloa1oSJqC8HpnP6OOv65uewnJaGBSYgI5ynjp8A1MLCKLE3En01gmJ64mQU+rCDn5tDGDtMQNbXtL5GqlZ8oP0E1sXYzDcUrU+kNJc83PfTmVTVGk44prUu83qQm9ctCe2ZsF8AM4GCQo5fjcmXv+9or0uLPL3d3fdiHutL17YXv816m5L19k3EaUFaY1MFYTtF7kHno1Kycwszoq6dPHZsPztv/VGvmRrTTI0NSH4XeYguZPZQHzVTY2MGg7l4q0PPjwds27Hvclx6bon4TfTlYydOiNYzb71s0mZe3+vmHnzifkJKztuE6Mv+nqIdJ18PMqNAktY7Dhy/FJFV09bVpCiKPLfHzTM0pX+Rkagr+9JPHsEnHyXlVVUWFb2+ccTfzft0Jm32MVqFXn1S2tLZ21eX+uCYhVZMVhs+WexK2OUp8j39W2pJWUV1WXri3d1eoh1hZO2DJmeURXG0JRvhSO4lN499z9vMN4IbFOG7vN2DzsfllBZXlRWJn5/b6+3me8vsnrHdzzBlJgkk2nvs2t00iaK3tU7y+txe7217o5rZh1rfJslMIVvFIyCjNa31sifH3dx9j957mVFU+PbNw9CwEwc82XlrHJsmm8GHyqfH3TxDE1uGmVYxTVfZuBQ0GN8T916LC8XixBsnzx466L2ueWt8XnZnn/c20fE7z95kiP+IunF0u7vo0JN6ZlgDaL19X0jYtYQKxfvexvKsR7u9RAH3ipnBEAiuvLVvmyjkblJBiaxSnB51xFf085E4JS0Fo9W9TNn7/q5GyYsTAd7uB6I5WnGhsPhhSiId6/xWpjWZJvENnWyY1tjkXI1UJR/kuSWxmXmFVFXdYaRsFMPU0sCQYcrayKYFWtTopF8OCfRVuE1qU+cTQ/jRKNQ/FrlThOZ3YyqLgSrZWUz0E3sj0IgOpFhsYViDS2OLRPhTMFd9LhtNb0Hb9RZmolO0bpfifjGkb3yNePoCPVrAn9V2CGOHCcgbmZ6rAZPWzo261is1Revjb3qmGx6LKG+hEK0D7hdrdGPgGO8uS7wi8hDt5phZ9i9KEcjN6yprGwFw+rgfeT1kdVPGhojtQrZ1Z1qYm0fI804ae6ujKed9GVqjfa/8PdhQONYgc/diosyQLhBTdia9hy6tsfX1CTd3L+ejzCg3+/E3PcwE6khxOCgtE6BH0trjZOooPcjDZ8vCRKK9sfQ8AqEI9/cOuE+HCJgIfLbs8k7vwAgplaeAVittEft2epx8DQZSTlDQmTTWtuZATWp8YkEvHdWBDiTv8hAdTjQH6FFmrvuRF0x9IR3xFgOdxeGK+JevqtT8AavtAlMEColvYsScrv1d5OH7QCYQ9AdcL9a0Jmqu7fT2usz6AKabHvt7sLTue3uR2xI450yUmS7zF99tAfcUNBfxWcllv/XRGrjZPfbFtczQyutLHu7jtnZAa/fgCKaRmIzyZ4fdPM8XT5n7HLTvlZ+H7/USdh3EdMNjPw/f8DLzhI61VmPF18iGJ+CCIkxkGLKmkztVSpdtU70uzIRRYKO0XlW3qSW1k8NLHL8itjzQrJbUTo0sUU/42ly/ViLT9nOc59xqw2YWm2pUle/nv6VIwtkpPLEAPRaL+kYA6N6sQCb4EwHEZzwpCQt4hh6MQsObBDoR3EgUSvBzz0EOvhFoaCbawVLfGVovpyZj+7OQGVL5+lI84Bk7Uw7q1SGMHSb4WrQOSewhVt4/2LcTBGML0ZrT0wFP9f7baT2sVty2JHButhcPveDE2RpL7ge77XzU4DStZVH7/+vnW5UIO6jqTDrB0Bo3DtbX18rqa8tSb4k8RKeelMjIj7L62oYPZj/zVOV9Mq6YDm4wEYgy1gI5zNMoeDJWfA3Yl51sW6LClY+/oUcAJK15c/yr7Q92eXveKKYsLXQ0/YCn6GLOoHHFYD6I3ufHfX46l6klW5GQViRRgqParbQSLKQzX44UXHNzDw4v7GVMTItfATyf9dm2N4oKTUCHkw94is5msb4Q6puDEe8+cCcCbLPZIn/Wu1vBspkSh3sV5leCtMYmc47/zA4pQGK08pKIpfWSVkk2g8rUXw+5eYb8lidhWsUA5Wde7Y0L2flTWColPmEilk3alPPr8oQbSx4Gu3nfbeAYS1Pv7ri5B8e1mVsa6QnnTRuRDSkkqdfckMBHz5Ck3kWmVRgmC7i3RtLaN5yjFTVwvFgoGJ8BaS3QCzFtySUnG6T14lKTVFXZYWTne4g1/TAIC+SEENujNTa31AKWeM2ozWhfzyPnkjvfZCZTM3h2CRoIArbZbpTKkzKv+TPWAhVpWMJrG4Cxvj+DiTJzTGvcSFyMQq/XInoC1xP4kBIPikTecmNNHcLYYYKvSWsweXx8296oNqTNegWX6GqSTFErkyWd8BZ5XTCjxcmKMxOIY5kRJrqPsyKQLdta8vsuN69bNVxaC63gsjNvbe5DWzi0XucKLtIbHJLUzzYzbAr0qux6MyFaR+z29qTngNHh5F1gMZJ5ORxz8tMZMzCEtNLlXfdzC4h6b6WVk/pbJ8MNiodHAqirewaFhJ6//bjzEDsAACAASURBVCCxhDcBbyLG3t35ycO8rq/lxXE3L9YWpKiWdz/EnIPPvpDT18Jj31TRAyPrK1p/QxHoThVrHVK0PpPOjgmYXwnTmlzZBQaaTJdlI8rM2pdg/gm5YpAZKpFfrjfKTJ93B4w7ubVjMS6k5q3zaEuaMBHUsO8FTWvQrqyaBHcdo4BWpDPJHGjC3L75BNJaoJNnG4mlXBtJvCFar830ayXSMV58OLE20aWRyCYHZz/qF8zHRM+4oG3NoFr1jaKargMA14B4XlAYYSLwFeJ2NHq0iO2g6fQCNdQuw/wi0XxzJItjWut6iUDSKKdMc+rvDc56bpfZ1tS8tes6a64IlCec6vJIgyk4rr4hYt9Oi/XWtL1IOfF4xOLmJnguRKDvmtanX8o6B7q4R59miusJ5/qcCZPraQ2qaWW6p6mqSPxH/JPIm5ePiLaLfg7lT0ygivBAMtYMb36wb6f3bbN7gFPFRtVA/bvSjFcvY3+9fWm3SOTmfd7JwEPGtoa0JkwENQr8vaKD2yQ6B7r6Z8022HppDeetOa1UoKvf/H83QmsM7ZSDtT2sNwmUg6S19fYpVp7wbxXVixoiuhB9p2OdooSJAAuuopFmfiiWLVrjRuJ1Ifq6h5eDrhv3jUCT6Yk365hwdR/+qJCNCZeV4v6xqHgYU46aj8eJwDqnHONkRbhmd5T5BYVUJev/kjHhFK2p6cnAuy8jj9qiNYFpc457ibgzrw6bPkXrbQe+oCecKYM92/qrecIj6FlqE0Gsvn8QZOkJF3T2UrcgNLL5MrTmWxhUWADXbUCYjMCk9jyfWhgt8giOlDPzssLd30J7/C4P0VmnV+GTBBJxvbsb8IQf9rTnCWdahT3b+s/whIOZCA++J9zD3gh4fbQmTTiZtt96pyxGEHiySQU2QGuDRlclFBpmmMU04wh7aJGhtjEL2xqbM5AOcN235wBHx8GuZGffsTuL4StEzAvUesWzLVoTn4h7cWhQEjLMMVhL8jC/SKSC3mKFWm9Nm9pgEpq33poMK9ufxZYBxJm/A0Fncjrc1FW2NYZ116kkTfPsOp9NNjXuz7m2tXmYvyP00H7Lvcxo25ogTHrJQzJgmB7WcHMTPKcIBOaYmZ+stEUc3OnCKDPmunZoTf2L42jdYJTZiVQ2yuxDGRllxgRGkZ5w90NxbfQsJqoB+3Bxo8yu+Xl7XcgcZ8LQ5uVPw2/cE3dQt7AuWo825aZk5dSN8wadjBR2ThTJFw6djJZzQvqtp+QJE0EV3tPHD8yP0HdEZTvd8OzYsQuJdIg4SExOyXPkFYY6UyqK1txYxbGyO2SAId/2IEcVgp5wwlGUGXMtm7Q2WUWZzW8syiwkjpVCMMrM9zodMgaeoN/3c6PMqEno0MR2JuBuoSvt1o3wP+g810drci1uvcUSIf7gjFEGnmxMgfXT+uNQi1pSOz3qeFdYq3lrhDTKpZrG3vn+ocUB5hgxzvKWgW3ROl4uFoOdxU5loWmNaK4Cu/kKBJo97rXstmzS2kT0NGKBEejBRDRBjuU2YrFvQYZhnBEAvZcZ8rgay1Vgsem8vcywWbBk67qcncIEC4JJ3/irEfpLclo64BnySoFlco6sFtS8B4vDBJT+5sV4rU4uxltX+7OgNRXD7ObuZcMTDrpgKsJoT3Q907nYvyJFII/9Z06duBaXWZBb+Mejcwe4u6Etm7S1RRnUWh1yBZfX0YdJ1MfMavMWp5i24IQ3ZwXXzTDeCi66odqhNbEC4rncdoRQK7iSYzewgmsUrODaHnz294SM/JyE2Jtg4ZPVCi7fUxdOnf89qbBQnBV/7oC/m2doEruCy9j59uJ2d7CvVmphoTg9/sohfzfPkNd0rLvztAbxUBd9nd70g8dOMvpa5BsGylBcXvg2FSwZAjFllv4bcqmeu1coHRzOVLR5Qd2eq3GZBcXlZbl5iWApmmdoKmc3QCax4AlF69CwayfuJ2SWFKa/vHvAG5SBWZWEG3oKxWBRX0rWW3IFV8jNV+nUx7JealsIvSzuMLWCK7Ok8O2byNPneSu4mOvapjUxLn0g8hD5nPjtdd7GV3Bd3+W9zef4nRfpGXlvo28LreDyDD19/uzNF2Dp4MtH50QeIv/bvBVc1MrAk7+/ySwpTH754KCvyH3vb3J6yfV6aG0YBzti1fbjdC9EPxqMGvBk8wqsm9Yz83VSVXUP5kStWNHaYGiydpVLVRLZ5LBj9m+F6l8lahXYlVdoUCTqF42eTEPFwwI62KE1YSL6+vAHqdjeaED6I4nI8/co68Qm75HcJxwV3Cdc1QLc5m9GeRfFFoiwKLBZirk1kDDmzmpT5yB0nDKtHCagpTagnXK1pG6yd5rjDNh8mwNT++Q+4ZxQHV3erSD7tCZnUoMswo7sFIYhkKIz68ZJsL2J5e4oZBS6YKDNT+czmWWpE11ZN09vcncU+cvwU/47wO4oJx5tbHeUwdKEu0f3+Jt3R3kisDvK3lhpW2n0yb3m3VFeyW3sjrIdFOPw1ZhCM3sAUBmtmLVSNuetV96H+3tvC95Y9Jm++92T88eAmG7uXuQmLS+5O5PQtUmFKQhsxk6YCG1X3t3zR7x3gByo3ePTLfeB4Q0R6DzNX1IEul/RW/r8CrU7yv6rT8rVbLQsZawLtgo2CJ/eHcVtu+++85vaHQVsbAJ2R3mfsv59wpem5C/vn9vtY293FHFP3Yubp7x3iLaRu6NYLqkw77pDtiuwWU1aI7OLIr07Cm+OXzjKzKBbaKoDO2Kpv41unO7fLNrG1v+4blpv/VsSLKFxBURQCx5UeocJBLP9q3+JzRuUcrVEqpG3z7Hb2Bkx/ZxxTugwbwniMIELdFs1ChUAlEpPTgoIEcheP+6CIm2oF3CBVtYx4RsqiTMKUIvHhIK/XKctAQLNvC7nMQucnCkYlcahmNb2ovOZf72Ujtq2MyWxjgl35lfrTbOI9rVrpVKVRD79Ac5Yr1e99ab/PmhNTvdam5tgzTQVI+YwwRfr/tZbYV8/PbKsHtAp6jSt5vdb02+sErA/vO+CpcwOE7hCTHJllOWSJKpI1Czmt0Frl2j1FWk9L4/Y7r6OqK4NNNcp6YPt7r53qgQmkh3k5oSY3wStHbZtBzqQz9dXoTU2MSut07YOGmdtb4HlumGcK/oNZ6Tbsmm+D1qbiLFJXKnGBI4xnNpBwmGCLVuFX6lga8z0vFE10Nrc2SJw9I2QYjpM4IIHGF8Y7OgSKkNnC7UE5dugtckVWn1FWoO5WI8QZs2uy9se2Gb1lyC3gEcKy8lsZ9qMYzG/CVo7bNvOyP5VaE0QbLfgTAXBNJtS4HuhtTPtG6aBCkAFoAJQAajA1lQA0npTg52tWamwVFABqABUACrwF1MA0hrSGioAFYAKQAWgAltdAUjrrV5Df7HhIbwdqABUACoAFdiAApDWkNZQAagAVAAqABXY6gpAWm/1GtrAEAz+BCoAFYAKQAX+YgpAWkNaQwWgAlABqABUYKsrAGm91WvoLzY8hLcDFYAKQAWgAhtQANIa0hoqABWACkAFoAJbXQHnaW1QTUkE38khHe+13iHWYFTWgXdgT3JfroUhyhqVVSZqxQdXvzRiA8MW+BOoAFQAKgAVgApsWQXWSWu1onthcGSRPuaVCrVENjG4YMJ5d7g61jEmkY13Tn/mf/9xYpT57eLgiL5VAd4Y0aq1SPbd7wfLExOqARWACkAFoALfvQLrpLWmfXqNBbDBqKxRVbYuLvDpgkyAd53KelAj/3u+n+HzzOCUVKpp/rDMe/+jvZ9897UFxYEKQAWgAlCB71MB52mNzRp6+ubZ1yYSpsXhKYlU0zLOt4wRrFsB3nU6bu+tLBDVcOQBFYAKQAWgAlABpxVwntZ8y9hEEMv9CpVEMavlzkwTa9N94wDhWjtT0Wtzw1NSqbq2B7Uwyq0u4fRtfJ9DLXjXUAGoAFQAKvCdKLBhWmOTczVSlXxwmXWMEyZsZl4hVVV3GCkMG6aWBoYMU5ZG9qeRFrU51qxuon1sBXrC4TAFKgAVgApABaAC9hTYKK1X1W1qSe3k8BInvgxbHmhWS2qnRpaoue21uX6tRKbtX+BMdYNB0Bqy9FG/sDwzZehqVgsFo0GTGioAFYAKQAWgAlABjgIbpPXiUpNUVdlhXGJdEGv64akqqbpR9ZG2tm3RmnN5Kp8uFJrX9oZUrMgc6eCXUAGoAFQAKvD9KLAhWq/N9Gsl0jFefDixNtGlkcgmB2c/6hfMx0TPuJBtzUUO3i1XSayiyiG6oAJQAagAVAAqABVgFdgIrTG0Uw52PtHxBjUkra23T+F4wrHpBaVSNzjHdYxj3XUqSesSx0bnshyeQwWgAlABqABUACpgIjZAa4NGVyVVKz4wHm+zjoZZTDOOsIcWGWob49nWM/N1/HXY2LQefNOLQU84O4DijYFgG4UKQAWgAlABqMBGaP1xqEUtqZ0eNTqUz3re+pO6TSORqmvb5/pHFgf6dIo6laRuctgyDM1hzjABVAAqABWACkAFvicF1m1bk/ZxdY8z1rA1rU0E9nFsQNcg11RJ1ZKacUX7nErP31wFWpZQAagAVAAqABWAClgowNIax+aXoh4tnDwCD6gAVAAqABWACmwhBc6fRprqLOj1vX30DfTyDfT6B8JEAFS7/ys8oAJQAagAVAAqsOUU8Pxf2NzE90Zo7v3+4//8b//4P/8boDUYRkFaQwWgAlABqABUYEsqYMjL5NLrezsPPXHQbFtDWsPBClQAKgAVgApsWQWQ9/LvjdDc+w09cfB/uf2bpW29lPDMqGyAB1QAKgAVgApABf5EBbhDB6OygUuv7+382PH9/+P//u+WtP7ORfneGgG8X6gAVAAqsDUV4Dp9v3Mwee50/8f/w2re+jsXZWu2WlgqqABUACrwvSkAac3U+P/4v/77//P//Qu0reFWYlABqABUACqw5RSAtGZo/b//n//bgZBgSOst10aZGoInUAGoAFTgu1UA0pqp+p3+nqEnDkJaQ1pDBaACUAGowJZTANKaoTW7lxkUhREFnkAFoAJQAajAVlAAgompBUjrLTeWZOoGnkAFoAJQge9cAUhrpgFAWv8ptJ7reFSUFlQgq5plagKeQAWgAlABqICFApDWjCDO09qgmpJIVULHeK9+DWdypE4MRmWdStIwN4nZeqPZxxHw5s3JQevfWmTlwo/4wlBxUGFLL/U67dnGc7llOdO28jd2NGX4ZFdV6G0lsPn9ykzns4rs3dkpPuThXz20xNdndaIuFPyrIHHcZia2dNsC3yPDeGAE6heNVCxhVPmxWeJkFBrehFAfkVFibwTqSx/Bsei5HLR8wpzYmVvGV4jrUeixEnOGzvyEl2aNiHnKFsA3Ak1W89+h7jDBFtCZMBGqFpyR0TcC3Z2BzJj4bUmwnJ+I29HooaKNqTc7JA5IuuJR16NjJF02DTQ8/nvSlX+yODKyapg0cw1nLP6bdOWfkp++nHOmwIJ3Ab+ECvC3xP7Olxavk9ZqRffC4MgifcwrFWqJbGJwweKBXB3rGJPIxjunbb0Nc21RNV0lVcuHl/l96BdunUh3S1YQzU5i9N2ufEWzkeluLE42TGt1ammKT15JdGtbXic4CodmVix7WGxBp+mbNqxafm9Rhq35kaK1bwQa3mSuPkFaXyhCc5ux3GYsQ4qde4L6RaPp485W92ZpbSIa2vHcRiy3EUvMxQRo7USCrSD+ks58F7kKLOzx16A18iEq89oPmenFS7yHenas9XWrLJE5ZPHuSVf+pbiqh1GJpLXHu8JXTJpWWWJHW7vxCz/UTAHgyV9SAWhbM9W6Tlpr2qc5ZrTBqKxRVbYuLjDZkSfIxGyNVCXrQW2CcJG0vJv0OpuW95d5wqdLqtOPt+hIRqKqDnFQeY/OpsG3UVovtd7IST3UoP02ScyvSuFpAmQYD4pEz7xGg5IQNdkeBGkd2c2yGdMTYVHogRxknscA4fwJE7F5WjM3QpmnlrY1p4E5TMBk9WeekM6AL25bf1TWR/896e6pAdprInjLM23hmdd+zM+VcIkOaH3Vt23S5gMlmBX8EipgXwFIa0Yf52mNzRp6+uY1CyytF4enJFJNyzjfgEawboVKIteNo5wOkbkeOPk01qaRyMa7Z9isbPbavB/aytDZ77GhuMKMh30ImV4vq08/WM9lKqZTNzwszwjKTg0qKInuUssbrTzhxrGK5vIzhekB2em7Cwt/be4fXrIq4ULr1ZzUY02TQrQeeVVsdo+TTnJZrYH/87n3F3NSTzYNNrSXn8xP88tODymX5aoN/BvU9/XKrpeQ5czPu1TXUve1Bz0krZH4OmxvJJJN9s4OaU18xpMSscAEpF9IFr4IoDEwtO5sxc89Q/0i0SNJaOYgi3/qJ5PjeOxb9FAMMNxPpKAZfRhVudwMHcLYfgJskfijED0WC8pwIAGJa0Bn6AbfVIkHJSIj5B3VlwOXNeU8INVA3jLc+kRUyvBzz9GgSHTXM+RuGdKHc3wqa0RMPDCaW3rwywkgzYGXSNx7q2GNfVqvEpWV2LEnoJAn09GqKfzeRjzhhvGKg0lX/l7RpOEKaHE+03kn89qPeWIeqgkTAWltIRT86BIFIK0ZGZ2ntRVQl/sVKoliVsuzj9em+8YBwrWfOP0RDzaIdqZGqqrtxWxa3kzhXHdi7Lqfy8Uk51xcXkCGeq1OK87mpAQWlMe3dZZ1N8dWFoSV8WmNjeVUpvmIiyLaOmWDvcVtFSfFKcHlHaPm2UHDwvzM1OzM1LjiYk7q4foR7Sz5cXZmaoGRaKa9ty2nvSWnvTmmPMUnW5jWB4qLbzf2tk5q+0ZafitJ8RFXFLCT6wvdSnFgdtal+vaKgb6qrvq7RSk+eVUVXzVajfKEJwxhMfFomATcvkNa4yvEvTg0OAWdXI9tfTARvZqOZrehRU3YZcBsJF3Lmm6LGjBZHpKGZndg0k48PgcLjEAftlsS3T6MmblhQeMbx4hf41G/GORhBZrViMXnoIER6Nl3ZpRqlbhfDNL8ESdMy2lp2L5Y89UXhvGgaFRunv5YzssGrvgrBSCHlFL0YBS6NxkdZh4QktaBL9HwPFT2AVOOYsk5IH1MD3un4EGwS+v6d2CscDoXzWpBxbXYxRTsaNS6562xyeS8m/+c8jzZjv9D330n89oP6c9fTltN7pC09lL0jcwtaPWGGYwe07juKbbqgngdC/zvX1MBSGvmCdowrbHJuRqpSj64zKUyNjOvkKqqO4yUb9wwtTQwZJjiGtkI2ilXSeQzZst7ERsaWlDNfXkje2ludmq4p2yXWFqsndLopjQaxcUccXTflEanN4BbAFPaPtklmZO0NJg6uTSFG2VGjEr2Zmf/NsBYb9jcYNmu7OzoYRLGS+3hOZxBAB1i5pOdYh1lZiKWGhvSbNA6JbCib5buqVfGa45kp4YpZ82QW2oPz0092qBl+srVucaLNk15+l5c/BhTtH41grZL8YBnSOdHXJDWD5pQ7RKuXcI/TOLpJIEeKp2Ne6Jsa2CLAxaC8i+OE0ci0FPlTA6AgoEvkU5GijUiLQV8Y2G+b4bWgw2Agq9GmBHAckUR5hdpDq9DNMTBKDR/DiNWwVjkUZ65eION+B7a5kbHiYMR6GUZwjQblRLE6D02hzqSGI5HA54hSvpGwMjmsdWsgR1afwLp96WxAWgzw/jBiHXS+vNo6/P/TLpxoGOabHsrXd2S+M7+MYsmNCT+2RxKdsNLIqm19IRzw9Cu/kdeWsIYyu0fXNwOLcoGP/4lFYC0Zqp1o7ReVbeBiO5h7uOKLQ80qyW1UyNLFH3X5vq1Epm2n3Wef57sGZdIx1oZ//PknFSqbtY45x1lCr2xE2RQKQ6iQbgyLt0vltWyM+766toUHzE36Myo5MWEo6qOfP/s8txp7CNqPghgjqddaieD7LDZvpEBxfCAvEd6Kjt1X7Wydhh8VAwPNI4tWN2gHVqnhjZRM+vkbZKz4IzHfnW8JiQ7/deepRW6DB/RoWeFKYHVI1+xW6RoHT+Eojpg3T4bQAVpzQ1m9otEb8lQp+KZSTZTtD7KjWpeJe7FoAdyaeyRJumeHGT+E26kj/p3uF8kKiN4hNgMrQGboynr2UwaXRfLb9xIXIwCLMdmiVNPkPIWjEJmfSl+MN9cTq0SpOca7tQU/mUZPewgb2QXh7XEZzwhEQtONscEmFu7bVpji8thUei5KjpDch5hvTHhuoYzyVd+LJJ0U34gfCkj/9o/Z+U3WTxrKDI6M9M3+aG86Y1X0pW/l8qHmQTofOtwd7X56Mx6n7Uv9coPKQn2LHXmt/AEKmBLAUhrRpkN0npxqUmqquwwcmZt1/TDU1VSdaOKNoYIK1rPzNeRljf7q69Ja16ImaYjP6i8Z4o2YU3ErKQ2xSevoZWxogiLKDN0RCn251jM1Oosn+y0C+16nnfX3rw1o7s9Wp80x8GRiYHJnrqPnl9f1VTvFSgDMN//DFoDD3AKdjQfmZsRWMF1tRKVD2K1DfjeCPQcAyfnvJfMvDWjGLBf+bT+LY63RosaHLiW1iV5GO3rpmndTfhGgAEKKBhJ0PD3iK6f2JuCjowRx54gyo941lvsSr25IamaSVpzguEpuFIzCOZMyHlr7lBmbAJvm+DPwduh9QKI4OPSmljvCi5jcWn4397EREzRD68tWrPVsaKQPvzxTcwT2wu0ZgcyPJOuBrVRxrpz9c7mD9NDBUgFIK2Zh2JDtF6b6ddKpGO8+HBibaJLI5FNDs5+1C+Yj4meca5tjWh0lVJ1i2aFSaDXzH4N23qxpj6NhquFszrtgpJirZO0Lk4c0Q5Oco8JDTstTcr6xWmd9otSbVGGkRnG0cpU7Zc7YWxratI3OAaVqPAwq/XW5pjwNSIpCQt4hrTyTV77xXOS1rtS0bYJrGeSe+AW066bsa0d0NpEZL3FTr1D2mXYsRLESBDXHyPFM3jMU/Rx/6ZoLSDOl6Q1pnkCYryLa2b0H+bmwaH78DJPyLbmFGyiPeHfk+7eHrM9Pz3XdCbpyn8orGIDOZlA3zhUwIECkNbM87IRWmPk3HPDHLt5AsiOpLX19ikcTzhJa+v9Vb68JxzHFnSjIzWnsosTR8hJa11XTHHapZZxjW56aoly/TnpCbezmwqt6RelNekJv9PzNdlM3xf7UHFpjRuJ6zHozWrsoi1amwhtNxEYgYa/Z1211nlafOMMrWPi0T1ZVrHTVhbJZmht3xNOmIimCnx/FpqVg4GdYdaIhFfYEyV2MQbNnzG7bZz0hDtemmWH1pv2hJO0/sF6bxPGE47PF9W8OdvQyZ3Gnmh9/u9Jv97Wmmk90Vt0pbKwhDtUIldgQ1qzD45FI4cfnVEA0ppRaQO0Nmh0VVK14gPtNKPzMsximnGEPbTIUNsY17YmFokxfgLVwGTVV5q35u2FAmK18hLVdMnB42TsaMlwIsrs7S/tc/QkNLagrr8vrc7VcvMhTF+S1qYlZXhuym7Z8Dztw1+d634mq4jt5Xvjv2wHwaU1YVouyQNLs47apjWxSjx9hYKIMMs2Y7OcjmltAlFm/rFoNbMyeI0ofYffKeFP95oIbQc50zzEznHw68teAqsoM4IbZUaYCK0S3/0SuZmAvhoF+ReLsXPZ6KFYdqobRKJFoFdq6el2E6HqEIgyc4bWT+JtBNVvPsqM6P/QXTbQyR79its5135gaE0QxaW3/vZH/Js52pLG58XFt/6W/PwNjefZnj/ckm4c6NbTLdM00fnGLenqgW6mrVoNpCwqAn6EClgrAGnNaLJ+Wn8cAjuGTo863qLIat6auSpz8tXmrZERzl4oIFZLLJOyIWagPCvmFVwV1Aqup5VFViu41FmSNJ/snOuNrcXd7ZlN5aHiFL+i990WS9Hs0HphpKSrhbOCqyiijfrYLpsgzWVqvbXteWsTsdDeIvbPTg+tbszt7ihQyq4XpfiIy7KZUHab/GM03/wJn9bEzCCYmSa3NjNbz9TOo9zdUVQtAFERHTaRaVEqJ2hNzGiIo1Ho7pfoq0a0uBmLfQsWPl2XW16CiuranYAmyLFMBTgKBhiiALnsJMCNYAWXfyz6eyXYlO25mLeCCywlUBOHotEgehPWdikWHIPu5S1UA6MKv0j0ShGa1YyllGNHYwRWcDmmtYmQlYJhx40SlLqLrEa0jw5WYFZwZbeRK7jSNrKCi1sFVvPWBk35nuQrP2Y8u9YoS2l9d6/gwb8lXfVSDLIONkT9JOfGP7/59YCs7FW7LL4mwSf5yo/iHInjjgJSHCpgWwFIa+bBXDetqUixHsyyT2RyZE+2Eq311bXp9P5imK63MKi0jTSG2NKaCLA7yv3yjEByd5RIO7ujgH1LUoPyC2/Je/rmuTmQ57ZpTUZ0W0ycUx/TfukkA8sd05owEfrubrA7SmB2ip84O0zaWEGR/mtwmrpZC1oTn4jfyE25LfYJ59IaXwFpmL1ErESzLLwztCZMxKSGiHyL7o02b5/yugOlTT1ehuoB/OYrAFoqEo0J2GaKYSeBwfbuKID0SyAsPCAe6SQ9LjrS52+5vfknorKa3h3lCXL3nfDuKNwoM6Zg3BOcILKLsEMx5rvwi0SymQAu7u4oaWjlBL7emHDuhcDuNAIx4bOj8l9LozyTr/6QdOM/s+OvtQ1zHeNA8EVNTk1C4Nub/5p09e/pvx+skdUu0ba4Rf7wI1TASQUgrRmh1k1r5pfw5BtVQE/ggsc87aY2rggn0K8nTMyBOJ9sXgKB/bttO8OBqvCHUIG/nAKQ1sxTD2nNM8IYXf6qJxi52oe7Epo5Nztj14inLwRWRvmSL90i9+1ygWKUU5e5NPeEuzT5r1oL8L6gAlABJxWAtGaEgrR2AXsYNb+Bk1V8YAxXqjHro01n3lRkbFI4gXLMcnHUhu93bs7WJbAJ3u5431nt/OUMow23EPhDqAClAKQ10xIgrSEP4h/ZwgAAIABJREFUoAJQAagAVGCLKgBpDWm9RZsmUzHwBCoAFYAKQAUgrZk2AG1riG2oAFQAKgAV2KIKQFpDWm/RpslUDDyBCkAFoAJQAUhrpg1A2xpiGyoAFYAKQAW2qAKQ1pDWW7RpMhUDT6ACUAGoAFQA0pppA9C2htiGCkAFoAJQgS2qAKQ1pPUWbZpMxWyhk9UZzbyyRds5uWZekL2FygYXKEMFoAJ/ngJT+obWmd6x5aUv1ydAWjPaQtsaYtueAgasr0UjkaqrG6aH9ZDWf163yDyx8AQqsHUUmDO0NWokUlX1+zntF3p9C6Q1U93O09qgmpJYv74afDPea92PG4zKOpWkYW6Senu0+XrLA41qq0zUzZpvZ2voznb85ms0KBrd9QS5XoA2LtBvc1rFE5Iw8HaHFZ4BuqgCL0y83cC+BGVSBV5EsS8GDY5Bw9LRwg/svyiVZqfw+Bzw8ga/SPRIIvJCKfAKZ3QKvH7KNwJ9NmD5c2KNSErCgpMtXxzJVLnjBDSTMKK/WS2Rjbeoli3eM2YP8OyF6Hysv8Hny8J+Frm5Bz+oo1/itNoesdt757135ld3o7JLIpGbuxd1bNsRvC/s14SqXudf7L1sGk056+N+5MXQJ16NWBfGxjfGkvvBTAHc3L3OpA/yUzpMsFmV+JfbYG7ocPIBT1ZJN++7DU4Josu86Ot+IK7PqcQbLJtLbnBdmRibY0Uevneq+O/fs91QLTJ3LObq+wdB3myz8dj3otfqCXX6chZXd+HHkYJrbCHdvTyv5ulMjh8TpCPe30MUXk4/s9SNfJ5TzdZJVZVNeh2vt3fRbUJaM/W+TlqrFd0LgyOL9DGvVKglsolB8v1RnCd2daxjTCIb75y2wDBJ64bpXjaHxcGRJY017JnybamTHjl47eOxNDRZgaVI8FOPUf8naDUN7IleYm8E+lBpfmskVfK8DCzgGdJKvw9jRkW95BGJr8My67CbCQDJrzivXkZ1RFgMyPb3SixTjkWkkm+BrGffjkxlO9iI+0WjIU/QU+94lwP/dRWt1+YGJyRSdaOKftuHC+uCprWX9+135rdmCdHaKyw6Iz8nIz/nbXrijdDdbu6+F3MskMlpdfzeYdO0JgYUuRninAxxTnr8TZGHyIrWjhO4ULENZ4Uv9BTlg7vIEL+9G7oT0noztHYo5rJJW1cqptR+GX7UbavSenFUSrXtjMy4I96iTdEa9Dn6D1NVUrV8+AtsGwxpzTz766S1pn2a4w41GJU1qsrWRYuBKjIxWyNVyXpQK4OMpHXr0hec5GBuzPUnq+Cdj3tTUDU9BJlREUci0MsympefgXkd+BLppPG2SL6AmWtYl+Rh/rFo9ZLZIscxIjwO3ZWKTNIDW1kp7heJsm9CXCPS0jD/WKSZZ7KDVybvSkXT8zGBd1C6itZEr8LaO8In4oZFpmgdcuLET15XK2ZINYRoHRhdz16C6I07utMt4NF753qEzdOauTRlUVnT2vkETMo/9YR0BkDbehO2Naf6HIsJ7NetSmv2RkhnwGZpbSKIZdBdKOYm2Zxd1FdAWjOSOk9rbNbQ0zevWWBpvTg8JZFqWsZpelGZIli3QiWR68ZR69qiaG1Jd5vmEVPKrXCCE8T1KL4t+xlv6cFqtLQz3ESYzet2M7/zsoFhrWRBu5yWggUl8XzUIx+wikH2rcxZbwHv+8mXJVN3PdyDPypAmxDWT4WvEPceo+eqEJUS94tESubZAoCfuIjWi4sNUpWsD2ev68JaoGh9/tWbyzv9LuapQM4OaW0iZHEH3DxP503w79e6mZHfMLSWt2TdCN29fbto554zj8TNFh6/ib68R1dO+otE20TA2f5GNmTtbN8srYnRstd3j+7ZtX27yDPo+OXY/B6DWdX52oifPM+XkOOVqcr7291FZynnAVDD36yMiSBs50BWirHkYbCb993ynuK7Zw6Aq/iHXIkvGWUbHvWI2QeMvqvsycn9u7Zv9/U5fO1VXWfKLy73hBtH65NunDwg2g48857+IWcjslrp1ovPSy7v9BbxXbKYrjRMJAp4JGVeW744WhF1DdSXm7vXNlHw4asx5UOzzrdMsye8rCM/7spuH9G2HcGHrz6pHrewH/Td715cCT2wfYfI02ff8dtPhS5hX0wguH1aa7vyHl0+4i0CZQANT642N7zVoefHffY+aSIfit64kJ1uvuYR6ljxte2BUe/puQlMJ3/z4NJufz+37b4+By+Ats3pN9DR9AOeojMp8srXtw6SaYJO/5rROWGplV1aY7rml7+eIp+OfWcjstrrnwp4wqkHcG26b5z0s7KAcE3HDmnNVJnztLaSfrkfDKZmtby5CrLOpJoWLd2kmCuBE5LW7+cnlz4tLn0yoK6uV961bHTiG0/zGU9IBCht5YDTMjfKvE5A+j/ii5PA6c01rAkTUV8OTOf0cVtTWctpaVhgAjLCeeosL2EiFkaJvZHoqxEU0xMno9CHHfzcXETraX2NVK34QPsJrIuxmW8oWp9IaS55uO+nM6mqNdwJWusyrwe5ed2S0J4J+wWgaO2x5/ix09de5BQWl2bcPbMH+NLzWF/6YlfCAS9RUFh0alnlO4n46c2jP3kEh5eRowdO+9kMrZdN2szre93cg0/cT0jJeZsQfdnfU7Tj5OtBEqWgS/3ZPLXZ+uq4t/+ugEdSxEQAfUS74trAsM9+DqQIJK09Q07c+j2r7n1HV2PByysiD9Gh2Hr+yMMeYMalv4s8RL4n7r0WF4rFiTdOnj100Nu189aLXQm7PEW+p39LLSmrqC5LT7y720u0I4ysfaC2URa1383zdNYY255Hci+5eex73rZI1TVuUITv8nYPOh+XU1pcVVYkfn5ur7eb7y2ze4ZTZbbaBklrUcjpC2cj3uSWl6W/vLnbS+R+ILqZ81B3ZV/6ySP45KOkvKrKoqLXN474u3mfzrSML7EnJnV1O7TWtScc8BT9vP9qbMrbt+nxYJbHY98DGYVSUJuUsYsbKi957/L2P0NpIn9+xOtCppb0w+Hzsjv7vLeJjt959iZD/EfUjaPb3UWHntQzwxqK1kHHLtx4WaLo7GqqySRv5HzxJH+wa4fWYNwQsG3Hvstx6bkl4jfRl4+dOCGynrc2y774YUoiHeuccXWvDmnNNOYN0xqbnKuRquSDPLckNjOvkKqqO4yUb9wwtTQwZJhijWyS1pxQtUr5ZLva1RFMzL25/GRiCD8ahfrHIneK0PxuTIUK2J0T/WD2OqIDKRZbGNZguIMtEuFPwVz1uWw0vQVt1/OfHJNTtG6X4n4xpG+cfBf10QL+rLaraD1XAyatBUddTnSL9sWnaH38Tc90w2ORZ2jqB1SQ1gH3izW6MXCMd5clAgLt5phZ9i9B0ZrX+6OK8EBvj5OvweAA3ALAv/uBuDamDa+Ovj7rY42ozdAa6Urw9xAdf9PDgHOkOHy7u685vI6ouebjF16hI0y6vOtBl34N9yGLh/a92iUy29wOcgA3QtE6NJUNgNBl/uLL2GS0UHYAA9JvC7inoKGFz0ou+7mY1p1/nOVVh4kYqEmNTyzopaM60IHkXR6iw4ntVIGXTaOvT/HiBJGOeAtaLA5XxL98VaVmAU/frJV1QTZaitZ7Ilhjve/tRTdQHfR0HqEI9/cOuE+HU5gIfLbs8k7vwAgwiuJkbkdMczLbtAYNb1vALRnz+BNtEQd3eoS+HiWH6Z1pYe6HXvR9wtG+V3sO3Lp5eg9ZPH3eraC9saTNbSL63oa5eeyLa5mhi6QvebjPzesq5achTARFazYuxEQstIMYsQti/mDUNq2RLpD+THoPfQlj6+sTbu5ellFmZlnIMGRNJ3eqlP4hV7d1n0NaMzJulNar6ja1pHZyeImecAUoWh5oVktqp0aWqN5wba5fK5Fp+1nn+We9DtVOUAeiUi+0KtQSqaZV2BDnPRvrrmPmDl17MjuFJxagx2JBPLZfJHqzApngTwQQn/GkJCzgGXowCg1vEuhEcCNRKMHPPQc5+EagoZloB0t9Z2i9nJqM7c9CZkjl60vxgGfsTDm42W+H1iGJPcTK+wf7doa8bBekNTds1c3dd//ttB5WKwdNwuwJJ3s9ug2QTAqOaqeGIKTv/efbxfoVg5E+ZHGH3bxuVSK8UdRmaD1WDCYvn3eyLQHT5hz2BPwGpSLNF3C+2h6x//DT0ozDfvdqcBx4xelyOsgBPCaA1v8lutvADDtMhOzx/v/yvMr3Q9gGzCrwuP4UlkrZbZRBn3LexZ5wQC/34PDC3mlLF725KgGez/ps2xtFhSZQsp/NYn0h1DcHI959oKcS6Jp10BiYZBStyeGR+ScUky4Waqk0FOQu5gwyTcJI9D4/7vPTObNRS2dlW0y647JJa7Lh8aeKjZLfd7l53aohJ57A/IjXrRoEGyu7I7qRl//b/hOpPQSoo4DrJVQ5yfGZN6/Gp97dcXMPpvwxDK1PcBYyYNMFx38WgWeNLiE4sU3rqcr7bu7BkY10XI6JQJSxFqMlTlaQ1s42Qo5o6/vJBmm9uNQkVVV2GDnzPWv6YRAWyAkhtqY1t5WQ5wZjS41K0mbg5GOVZsP39kV/ODWDZ5eggRHo9Xq2I6auSJnX/BlrgVoxLOG1DcBY35/BRJk5pjVuJC5GoddrET2B6wl8SIkHRSJvud6tb4vWJqLlxfFte6PakDbrFVyiq0kyRa1MlnTCW8T4AJ2sVmbemrOCS5d33c8tgJ75W33/wJ+z2IZeLfZfnlddSGvSlxuS1M82EmyK22mCTn/n/XeG6YLjPrckuvrwoOOpQ4udSSe8LpsX1TjKgbat+eFjs1plc1c/dyITQP0+mN4WWMG12ht3aCcfSK5fwYUbFA+PBFAjMM+gkNDztx8kljBT+FS1jr2785OHeV1fy4vjbl7ni6fYkdOySZt3P8Scg8++kNPXwmPfVH1Y/7w1ZwUX2vfK30PEhAigw8m7uAve6Fbx0xl2KEMW1baYdA9mm9ag4XneKGa81oSJkEWB0RXV8MCIQXQ8dWRR/uRwyMv2vuxLO++906OyS97MsE+fdyfYbecjZg6bMBEWcKWGHbzQyJXp3q7Wrsk53hNkh9YU/ls4tBZcwWW+X0hrgU6eJzXdMDb85YZovTbTr5VIx3jx4cTaRJdGIpscnP2oXzAfEz3jfNvaurgrg41qSaOev4DPOtkW/QbANSCeFxRGmAh8hbgdjR4tYlu5neppl2F+kWg+FRfthCdc10sEkkY5ZZpTf29w1nO7zLam5q2/pCcc2NYmgjSYguPqGyL27bRYb03HhBvlzw67efKYZ0dS6l9O0nr7+dfv+7s6BzjH8Ai3G6VLKLCCiymDHePbIWs708J+Ppna0/Qs4MiLoeXR12cD71SoSu4H74s3+zwd5mD2hAtimPfg2AbMV6E1kGtluqepqkj8R/yTyJuXj4i2i34Ofc0ZThEEOVsBYs3w5gf7dnrf5iGNFNyoGqh/V5rx6mXsr7cv7RaJ3LzPOxl4SJgIc5SZI1qffinjNYmBrj7NlMs84eQw0Q6tCXJ+JLJuKOV84J0q3UJzrPehF139aftFVyvMzvMN0ZrXGGi0uI7WcN6a6RC+0MlGaI2hnXKwtoePWJLWnDlp8y4oXE/4nLGzXdfPW4RNzmQ36dcxOv5CQjjMdlFDRBei73TsSB+MiEtxv2ikmR+KZYvWuJF4XYi+7uHloOvGfSPQZHrizTomXN2HPypkY8Jlpbh/LCoexpSj5uNxIrDOKcc4uAsX2dbzCwqpStb/JWPCKVpT05OBd19GHrVFawLT5hz3EnFnEx3WlxO0BvuxWHSagtnagTGV3k4Ch35s4Pb0e5SRdsH/3rt5MtIq5Fn+8+MB18vMz5fDHFxD6y/vCbfWtjMtzM3DYhBmBCa15/nUwmiRR3CknJmXpenCR85Ce/wuDzqQnv8v68s5RWsylJrrfhfMx56jgi6GbduabHi86HeeJ5yaHwlLzSYdLSg2mXN459W8kt882c1qnPWE82xrumC8O7JD63V5wkkTTqbtd/nmGXDemqmvDdDaoNFVCUULG2YxzTjCHlpkqG2MZ1uT/vNqrv98frGhBnjUrVZmCzasP/VLdBzsSnb2HbuzGL5CxLxArVc826I18Ym4F4cGJSHDHIO1JA/zi0Qq6C1WqPXWtKkN0Mtbb02Gle3PYssA4szfgaAzOTMX6CJaY1h3nUrSNP9FBlJUlBlFa7DWJfeS247QQ/st9zKjbWuCMOklD8mAYXpYw7RgWyeOaU1GmYGIYibYZ1WbH3fzenQ+HYZmJgSmST/sKWJKa31FOwmoGLETqWyU2YcyMspMZoYx6fY8ffHSHjA3SUrhfel2mB/LMIc5OE9rycNgMDnKn5Unb8cqymzeZpTZaFNuSlZO3Thv0GmtifU3iuQLh05Gyzkh/dYDEeDJ0IB5fU8fPzA/wpmJJ0zEdMOzY8cuJNIh4szsrGMm0V2HQ9uaIBTX/Ly9LmSO0+sy8Hn50/Ab98Qd/Dsy2hbT3GzGysiJ5BZzQDvn51SU2T1bUWbUUMD/0rXDZBADsaIID9p/7cZJEcd5TkaZhcSxUghHmTlWZrU9Yp/FJIi5/NTOZZwc7EaZkV7SeoslQrTsnHsXHnXZSQBpzYizflp/HGpRS2qnRx3vCms9b/15omtcIlXXKmf7R5aGBmYa6tSSGm3vnKuD/pnbc+nJcrEY7Cx2KgtNa0RzFdjNVyDQ7HGvZbdlk9YmoqcRC4xADyaiCXIstxGLfQsyDOOMAOi9zJDH1ViuAotN5+1lhs2CJVvX5ewkKGEiKN/4qxH6S5LWAc+QVwosk3NktaDmPVgcJqCeMfNivC8SA2hBa3y2LIxcQWvDEw6ecMp+3RNtsSrJ5sPvBK0J80Kag7de5BSK8/94dPmgm7vvhUwy/ovb0az0Rhzcuc3n+J1X6SlZb1Oy3qYWKZiALNDGbCdYNo2CFVzbg8/+npCRn5MQC5YMMSu4wG9Jt+d2kR8VlgzcniK/nziRbo5zoGLCHXvCibF3d7a7i3ZdjXmdCe4iJett1QdzyMi49IHIQ+Rz4rfXefZWcC2btCkXfd2oMH6uRE6cT9eSi8TColMLC4vLC9+mRh3xFYGYMkv/DblUz90rlA4OZ55ibKogbKfIfc/VuMyC4vKy3LxEsCrJkxsMb7M9UJk4prXJ2Pn24nZ3UfBlUE5xevyVQ/5uniGvOy2ha0dM6lqoJueIl+jng7depJnVzpIPU//StYPFbD8fvBWblp2RlXjjJHcFF7iFzj/ObhP5UQsEyJYc6Onjx0TLg+m2edn1Xd6gTb5Iz8h7G31beAUXh7W2lNFLft/v5h4cFvWGahIp4lJzMMEKCK9z2xFCreBKjrWzgsswDnbEqu3H6V7IifbAVKv9E0hrRp9103pmvk6qqu7BnKgVa1qbCOLT5MhMY4OmSqqS1IzJlbPDs/QYlinT1j1ZJWoV2JVXaFAk6heNnkxDxcMCOtihNWEi+vrwB6nY3mhA+iOJyPP3KOvEJps4uU84KrhPuKoFuM3fjPIuii0QYVFgsxSzbiSMubPa1DkIHaekdpiAftIMaKdcLamb7J3mOANcUjsWtAbrl24Fubl72aE1tcbJIuzITmGcoTVhIsybVOwQuW33DTpx+2V5r8WkNXWJxdGKRxfAPCsV4rSNDthmCmAvATFYmnD36B5/8+4oT9jdUcDPV4eeH93JLG0Cbk9Pkfsh/vbm9nNwmtaESVeTdu9gkB8TbH+tyBwLTZjMu6OArTbA7ijvUwT3CV95H+7vvS2YjtSjmwqjg90Tffe7J+ePgf1bwO4oYOORl1Y7k4CgOTJMgbfwmslW25V39/wR7x3k7ijkviLpjWrmvw5PnKA1cOSYd0fZLtom2nf4akxhr+AWXXbENKNxtP7luUO7t7ubm83O+/Q2+CZC25517zK4EcvdUUhJ52sfbHcX7SQX35tXorv7ckPZCROxNCV/ef/cbh+7u6NwYsJtiYMbelJ/O0dtOAMaBmcohunkL8NP+e8AOpx4ZGt3FINuoakO7IildmzCra/BABkhrZmKWzetmV9+WyfGFRBBLXhQN+Iwwbd1vy4qLTZvUMrBKjt5+xy7jZ0R088Z54QOg1lMRwlcULxVo1ABQKn0zKTA+rsGFxTsL31RavmZUPCXLdNt/d8TYFm81+U8nvfCOVUdtkxYv65VYBHta9dKpSqJfPqDy2esqaJCWjNV9n3QmpzutTY3wZppKkbMYQLnOgtG1r/SCbKsHtAp6jSt5vdbk/HDjHHGO6GcsQ4TuEJMcnWp+Q1dvDIIvCxr/cBwRQn/Sm2AuZd5eQS7PeqXUWlK+mC7u++dKn4QqzPX+ioNj5ECnhAmbGJWWqdtHTTOsltgOVNT60kDac20tO+D1iZibBJXqjGBYwynPJ8OEzCSfacna8z0vFE10Nrc2SJw9FFrnxwmcAE+8YXBji6hMnS29M9+e8v3v5VGBfYj8wj5cm+BBNus/hLkFvBI8f+3d+ZPbR1rn5+/5r1rzaSmat6Zed+aH953CmODk+vE2RzfxNexE7scXzs3vkkc31wwGMfgBBOMBcRGiH2VQBKbWCzEKlZhJCEhoQWE0Ok+7QXQj/PLVOtIZ9ECAgORzVN1imqkPqf7fProfPt5+unu6MHsZJ6Zg3jwXpWWOqB6Cq+FZBpoN3lArfmmPCxqzd8wJIAAEAACQOBVIQBqzbcUqPVuuns8PkgAASAABIDA/hEAtebZglqDWgMBIAAEgECKEgC1BrVO0UeTbxhIAAEgAASAAKg1/wyAbQ2yDQSAABAAAilKANQa1DpFH02+YSABBIAAEAACoNb8MwC2Ncg2EAACQAAIpCgBUGtQ6xR9NPmGgQQQAAJAAAiAWvPPANjWINtAAAgAASCQogRArUGtU/TR5BsGEkAACAABIABqzT8DydvWa2anSmOOd9gmYtdzXwsYusyqXq8Dx10SdnP1ibNdY+l78pzlqwIJIAAEgAAQAAJiAqDWPI0dqrVFN+6bmVuNHCsGnUWlXZzxBaWiu74wsqDS2kaXNqSfR5R7jRnqMqv6V1zxtTySja8lJIAAEAACQOAQEgC15ht9h2ptHV7aFAR4LWDoMLcNrvr4y4USzCLdmVxrRAHp5xHn84bDaKNa7hZdKn5OkG0gAASAABA4xARArXlxTF6tsWfNOLkibHJMgqsmp0pj1dukBjSDx3V0Z3Jbgj3UsNun20rLD/FzybcKJIAAEAACQIAECag1/xgkr9YRy5hX06dTOrNK57FLvNmbS5M2KuH2F4IJzhdGE8/n9BZV99K8HwxrniQkgAAQAAJAIB4BUGteQHet1tjh7dCYe2aeilUZu1d0GrN6JMD5xtec/unZNafIyF6zuTUac1uvvbPLotJY1L3OUcvTBA7zeC3H1xsSQAAIAAEg8NoTALXmmzi+Wvv+7Y+U0RbHx+/Y3z9m/eDt5Y+FbCt/ftsm/vDj9xwfHLN8cMLL5/n4hO39Y5b3Mxc/esd9+l33R3/i/nX++YOtytqiGvAVEAACQAAIvMYE/u2PVI9CR8DQy0vXIUwkVusIIJ4UJIAAEAACQAAI/FoEQK1Pf/zuf6GD+Z/95ddqAygXCAABIAAEgMDWBBjj0CE0qflbFmzrQF/nyv95Y2tY8C0QAAJAAAgAgV+BwKenyTripesQJgS1JkGCvYsBQ+92R5e1rbCvscTcr5Pm7HL1NNm7xUftePOPfS3Vy4Pha7q1D/oaCo1dWv7EVV2lofGuXt26tn2521YMMgABIAAEgMBrSIBa1YdbqkmQSNQ6qd7K81m9RdW5NB/YNmZ70ztlV2ntUz5+shZdF6VdY9EOuifmVmdmvY91FpVmYXAh0XSvbYuADEAACAABIAAEDgGBHau1e6VLY1YbcRIeiVi1DhKy4TYvDw7YNB2W9o6FHoNnZgmk+hA8Z0l1BIEDEAACQAAIJCCwY7WG1y4QAAJAAAgAASBwwARArWPWaEvQrznghoHigAAQAAJAAAjwBECtQa2BABAAAkAACKQ6AVDrVG8hvmMFCSAABIAAEDi0BECtQa2BABAAAkAACKQ6AVDrVG+hQ9uRhBsHAkAACAABnsDpT0+f/vQ0XXkUDiAABIAAEAACQCA1CYBaQzcFCAABIAAEgECqEwC1TvUWSs1eHtQKCAABIAAEDpIAqDWoNRAAAkAACACBVCcAap3qLXSQfTcoCwgAASAABFKTAKg1qDUQAAJAAAgAgVQnkLxar5mdKo053mGbWOZ32YrElq8FDF1mVa/XgSOfkCBZ8eniX8HSZz6QvT1Y32xDZp1+gtuSxNN3vqq5cmkfu1HP5loz5Q+zTGIIyRUXmK/rqf1AIUuThw5FZ+9acifuwQPHmNiMLJSewyj9mCsUe8gnN9G1fob7l5knJ7LQkchxPA+dr0Qti+HMB1bP/S5IWYv5ezySha50R+9ks22G/a4hXB8IAIHDQ2CHam3Rjftm5lYjx4pBZ1FpF2d8QVaCbH1hZEGltY0ubUg+D6m1etAbOZ1eZ9JgU2ksA7Z1SU7J1UR6/5KfM+P6ikz1rD9UFplvfbNGNxB4yWtudfpu1dpv6K9Ik1dc6dNXjQ5Vjw5Vj5udB6eFnFofyULX+sP6FFetP69HVQO4agA/1ODzP6D0HFRui9azreDsXbPuUykmE1vVh6v68EMVPhFPrbfNsE8Vg8sCASBwCAnsUK2tw0siM3otYOgwtw2u+qTgmEVPh8asNaJoIQypdefMU5Ewh3bL7nZZ0IG8u5ca1eV/1rtCPQNkHlFkthhd+6mCu1XrhQql7GjT0PyvI36Mic3MRmd/RpnFjCXU3HHVOntcqB5eJuduopOVzEpUv+1AmlX6+O2BdyHqgshFXQuxtjWfbdsMfE5IAAEgAAR2RyB5tcaeNePkitUnqPWqyanSWPU2qQHN4HGdWdXjssXy0UbLAAAep0lEQVQK8BqenVyecoic3qHdsrUTyeyWvQfvfTx7u+7hjUkmdKllbXf5u932iE3v1/WUpSm0PYLDmZnUV6TJlbUejiyLZpuPySvzpuYqu2reVcjSFY/OaQcHvBLuz73jhVrF24rSY4rqK30zpulYT/jy5IT2SuPDTHlpZk31xS59lyvWT24pbZIdbRm172dPIjHPkFozBV34RDYjd9A6bKvWZIMtLsIZhcxUhKcES7yyWEIqm9FHP1CPeno2+rAYyYyYaxoSJMNa6oW+L+2v9Lex6dmoxh3BssHqdPizQpSZTS/yzl2U3YUWpU+jx8kWVOL3ckNFFDF3HyO3tD9hmma/K8UncsJ1KBpGsR2ObcV46wx+D1tQgd7LDd1pDjr/CLUcoKdk24aADEAACLwSBJJX6xiT5emUzqzSeewSsdlcmrRRCbeLJDkhiE3H2IJKE2/YO+Ep8d77SWQOjF2viowBcyPB/F9FS0iPk1Tr8o+alXljTyYdlgGj9rxCltE0NM27EAKz+Q2yNEXNjYGhhnGDrLv+YrPiqGTc2jduUGTIKy52DyunJ9vHur+ul6VVtysjHQLs8zo9bqdn+m6T7GjT40GXO/Sv27nify5ySOwSQkwLJrgO5wkvnMW5Beicio5Vb6vW7DPyzW10XIYcUi3commq5Tg9G91QI+U4bh1i80qpPOdPR3zvPmqsn6oXGesvyPd30NtlDF+EsZeOr39WgxpHcesoftCAM7LQ+XbES/6qg5zJRcfymVsd1KF9u4JmuKgSMixO0AH4j8pQ+QBq0OO8X2gdbhgEnwFX/63FmATJFhlYQr69Q+twr4/eaUs/vnoXHc1D6khMwBaI4CsgAASAAE9g12qNHd4OjblH4tYOYveKTmNWjwQ43/ia0z89u+aMNbK54hM40pMVFf4ekkn4vR6nydj8pkLTYHdaXU6rVXehUpEz6bS6lteoECap1qXnDJ6I+YjMIzVH5VUF5nAF6EC4/Jcro/wo/spjOvwsijLzD1+rKj3Va38Wkd51b9+FytKP+h2ha9orlIm6FAcfZXZvDg1r2GP5zOhzNq5af9eP7H7W7mefONjySk7nwmFo27fIC/JVLhVjXllZQhQarJiO2M3Bpw0KnJ6LNEz4E/cMeyILZY/xGUjFLzjjJ4k1r+vFJQOC9aysxek5TINXOIV2EXJQNw7zH9Gzua3IxPcs18mdH2mfg/P/83exhRhzebbIwFhoh+DGiEDG72KL23H7vg7BJOiH8XcECSAABF45ArtV63XLkEXV6TD5RbYUfjo9YFF1Ouf8nLd80ztlV2ntUyLnuViJQ450i/5g4stIkDAzBkWmctITenc/s2neUWg7hRH3JNVanmMS2vjZvOq4vPzGJOddwE5j3VF53X07n4FFc83imPB1W8f78vJvjf5nCD8PH7P5dbIM9RwK9Rjs1mmdaVpn0v+jXpZer62d5f6d1s07fYLk8NffpwRnWxfMIk6E8qdRXLUWx0unZ6O/aQWZ3L5i6yT3Dh0X1ye+L7eJyjMfiN5YjY/+wAyQSEcnSJTVOD2XqbBhRur9Dpe+wRYWYX7onfvQ62U1U9gS66hYZwMv2MCLOD2ArU1n7rJbqDVykVM30dl6xswKNd+eD8gtEAACQEBKYJdqverv15jbRgJ+4b2zuWxytmssfWb+Vbi1Wsd1pEsrJ1x8Lz6XhJhZR2oyW4yi4cMk1boy74lQq/V51ZuCWiP7WJRak6gos3Wr+gTvgRcljqpnQ2rNX/lXH7fOyEIFs4gEn5bJ8KkaxuuOM4PrchvqmcGdvVRTz2sF25G/i60TE3p6Ih20zkEfFjHXapFiRhi3pueukzv3qKLPbbJsgFzJRWdaBFucBMmqg5y7FR72PvkTuixHRXrk5pV7gy28h2MNZXGtsJ88qKGD1uKex7ECib3+kmpNgqQxMhPseB76uAR914w6wbDei1+0uCkhDQReewK7UutN95RdpVmQxIeTzcUxq0rrmPE8X/aFj0WjLZFtzTnSpfHh+/YDXu3oLgtPXBZpZOiTss8NyyH3wIGpddkXBsuMwy46FufcvEOYe+BSRq2JWc8ez0UqM3suZr51OCZ8kxQX42P5zKDI6k3yZ+NdYbtH8aNO/EMdOp9PJTPXKHEhzPSxR7JQiQ2ZDWxmNlMeE3bHYtI3hat0+McG9OXP9AqfNkeGurdV63W2sBgfzUNFBjRkx0YHNi6y+SV4z9WaBMnCIts6xJa2438o0KlclJ4r8c8niQuyAQEgcJgJ7EatMRrtoSufuCTgQmodu/hJfE94yJGudcyIHemSq+2pcrPY55qf6zgjbyiaCw1au8ZyG8ou6m1W15LTz/mx/X29ZWlybacQEx4Y0T9Mkyubl7mKRWLCE9rWyXrC/26M0ubYG08dteaM2i/V+EIitQ4S+zjJyELXHu/YvBbfOEtonNo7FRGtDT0AXOmfNDL3y/DxkvB0MvFZUenqh/hoHmPgvDvbecKRg3yYhS51SmLKKn7ZF7UW13PVSt7NQld7JeWKM0AaCAABIBBLYBdqvWZ1tWssuie8xzusrGsebLUxwmFnZocW4tvWcRzpeyrPsfdJJGuh0Giv6iKLOBuyj9UclStyTBEpxZaSJllabX9kVvG2ah0qYpsoM8O1KtlbWtNKxIJc947na5V5E5x9z9cnddSaBJ82VtOpWacSqzXnss74icaj8bewdQL7yfX76HqPSODXSW4BeushEzXDSttAY83i9AY2SUUl+qxGCBEnQaKsp2FlA5FqJIoy04SizJCTjiifaxW86ywm126jWNsaL9OBgPPtotpKH9ctMrhN7Nkipkw0FY0LArgUszLa1sTgWyAABA45gZ2rdWg9k86l+YD0hRWHY6Jxa86Rbh12CFO3xdFn+5Jm5kRrodBoL4VWI4SYhSrvN/6zXpamqP9+cKhhtC9P+TCdSq83EgG+vVoHhRlcw810BlfDFzEzuIb1iqPy8tPqvqrxkVqD9gotsVnuiKKXSmpNuGDs0NJmYbniVh4Vr45i1tPJVFkjSduLG2xxMVXWG2rcOIIbhnBBJZ1exa+exgNZtVELWBwczn/V30b95J/Vouoh3DqCf2nB795EH1YJeh93Bpcgz+uhOmSjb9qwcgLX9+Mvf0ZnC+OoNdcdSc9FWWr8SEePCr10rlpoiD1uBrxKLt6i17ynQ/ROB/D1n3F6NiOP8erz9wUJIAAEgEAsgR2rdWg9E7UxmfVMEqh1fEf6ttr/chmW1Z3l7/Vya6Fg10RdZryVwp57J0q76j9QyNLl5e83q4qm3KKx2CTUmhC6Okq74m26dkrlF73xV0cZH6ero2TIZekK+TlNn3IxYs0L3ZSUUmsSmui8tVqzz+hk6MwiZi7SuYl91KI+oRFedeijvEiYWCFzuz9OVDkbIBeiJl7zT8I6adOy3ID3kSz0Zj7zdStjEq+UFyQeB3u7kq5Mkp6NThYyd/tFYWhBEqpDZO2UYvRoBlU8jOMJpxP8PGxeOeaWYTmSRedPj0rvdIsMDhvJLkdcLFt6DvpYhh6Zku7W8DcLCSAABA43gR2rddQ7F/5NNQLLhI17rET8w3G/XSYsn+Hl7yjwLH4dlkW9nyRL4QLN7ok8yUmeCNmAABAAAq8TAVBrwaJ9DdoVh5YAE89H4tPckPC2GfYAwiZdY4QvV5wQDyonVVAoUiyjcAcme1KXPdw9dEAEBIDAq0gA1Pq1Umuyzk4vsAYLjj2GXKEQsG0z7IWSLTji18GwwMauwr3Fz4YLn77SA37j1+sp3YtnbIvHBr4CAq8lAVBreA8CASAABIAAEEh1AqDWqd5Cr2UnEW4KCAABIAAEdkQA1BrUGggAASAABIBAqhMAtU71FtpR5wsyAwEgAASAwGtJANQa1BoIAAEgAASAQKoTALVO9RZ6LTuJcFNAAAgAASCwIwKg1qDWQAAIAAEgAARSnQCodaq30I46X5AZCAABIAAEXksCoNa/ilp7R/5RX5ZZq233vJZPFdwUEAACQAAI7C2B5NV6zexUxW5fTT+xTSzH7Ka1FjB00T2wHdzu0UKlXzifeB/3LbR3WFQd1s5B15Tj+cGtVMX6Zhsy6/QTXImevvNVzZVLQt2kSywFRvofpsnbleH9rRNli/P5M/dovlL+llyWFjqOqmf90q0k1xe7TtOvaotscU6XViMFMzAmuuNWeg6j9Ie3/uR2gbzWL9mki19z9HgeOl+JWhYj+4Sm/A0myVxZi/l7PJKFrsRsgmnW013C+CN2P9AkC9pBtudjPbfeKP7qzDS/K2uQsH5FzV9/W3zpX6TH79uHorahoz3XgOnmo7/+pqKyY/tN9l6XdtwBXrhlIPDrEdihWlt0476ZudXIsWLQWVTaxRlfMEqNFkYWVFrb6NKG9PMNh9Gm0ljUj13js6sz057HOotKY9UvvJBm2zcczLi+IjOinZIdr+NY2LtWa7qDVlp1Y87gUPUoPepm3c+ibxD7XNbJpTXpPk6vyluDU+vQrlzhnlZctf68HlUN4KoB/FCDz/+A0nNQue3gemYHANNkYqv6cFUffqjCJ+Kptd8VzlClw+duxdm9e88raVO9W3LpDWWvSXLlZ9OTnUWDWv74Z+N3/7X48n/0za9KsgUJ2RjrvfVG8defmQLRT2x0zn37kUJBQAAIxCWwQ7W2Di+JzOi1gKHD3Da4GtVDZxY9HRqz1ogCUUViJpTf5+U/50zwx76oK8TRTv6Ul0ksNarL/6x3hTQSmUU7Xsd79exWrf2DVytLI7tzvkxtU/ZcxsRmZqOzP6PMYsYSeh7iqrV4A2y8TM7dRCcrmR2tE56yBKIqhlzkk5txbGsh2ybJvbPvao2XSmq//O2DgvveqF6y5PH2zNa+VXL539WDUkUP5XH1nI0j9pLT9+u3KbCC4oAAEIhHIHm1xp414+SK1Seo9arJSS1jm/TVwOBxnVnV47KhmPI4tR5jRAYWO9FjVsXo/T69EfDs7bqHNya5/aSXtd3l73ZzO15zbwrssvTeaHmYKS/NrG3MGbP09MV4wgMLyoGWs3Xlx+Tlb9XVfTswZfLHvGV8g5crSz/qd8Szm+fuNYTd4yEnubZzTXq69/GFytJP+md6h1s+qSmj22y3aKssa1KSy5MTdIdsWs+a6otd+i5X9HCDNL+0iD1gG1JrpqALn8hm5A7q395WrckGW1yEMwqZqXhY4taQJaSyGX30Q3gD7A+LkcyI+b3AfXPsiSx0Sep8ds/QD28MRx6wDVanw58VIm5f6nfuouwutCh9XD1OtqAyssV1EXP3cfQe2x4Xe7cKv5dHd8h+5y66oUaWyN6jfLVfUq39Hraggm7CfYSOL6Dzj1CLc8ejBk+D84M//mvx1eMjoRbh6yZNRKT6cRypZgPK1m9+/+DOTy4pIukV9uD5gQsCASCwCwLJq3XMr/TplM6s0nnsEqnYXJq0UQm3x3Vub7qnFtu1Nv0T7Pa9WF3G82P29g7baFxh28XNJD4lMHa9SiyTorSipTYU6rW+pPu0UpZR21IwNNo8PpDXVnuuWarWeKGyrSxNUZ81NKqdmWgYUn6ikB1vGZkPD9au+VbcTo/badNdqCz9oHvO7gn963E7fTwi9/DEUOWwvnJ4ILdFliaPr9YnGxq+6psYdNgn5/TfN8rSFMpaYXDdN25QZMgrLnYPK6cn28e6v66XpVW3Kw80Wo3zhBfO4twCdE5Fb39btWafkW9uo+My5IgaNEncsaiW4/Rsqo7Kcdw6xOaV0kHi/OmIEq+TwiKc8RMzJWjn08ZqfDSP6cZhL66xl46vf1aDGkdx6yh+0IAzstD5dsRL/qqDnMlFx/KZWx3UoX27gma4qBIy4GVy8RZ66yemsAc1DNErnMhCH9dGewheRq1ZQr69Q+twr4/eaUs/vnoXHc1D6khMQOKnWvKTdPWfLb30h9rWIf5hiznR86TxZMmlN2oa4o5Jr81WHyu+fERvjXGPJ26jmCIkVYJvgQAQ2EMCu1Zr7PB2aMw9M0/F41vYvaLTmNUjAc6zveb0T8+uOSVG9obbtNTRYQ4HrHU5xh1xdX2vXxB+r8dpMja/qdA02J1Wl9Nq1V2oVORMOq2u5TV6C3RIO03e+MgRgYstJU0ycZQZmVedkMu/n+bf9dg70/ymXJ5jCr0f/cPXKkWdgEiIWZpcFhtlFiT+vt6yBGoty1BOeiKm1TNbx4fy0nMGT1jk/MPXqkpP9dr5gfB1b9+FhKZ85F72+B3KqfW9OTSsYY/lM6PP2bhq/V0/svtZu5994mDLK6nW3jCEezbbV+wF+SoXnapneNosIQoNVkxHyATJTB+N4SqYDes3GyBXctEnjcIpFb+E5Fxkzet6ccmAYD0ra3F6DtPgFa5Juwg5iNf7xSdsThPqWhYyaBtoBk2kQ8DdyMuoNWMh1B8wIpDxu9jidtzuEgrdFhfrr2/+5nf3b2Y5Q30X7Gp93Hpvln+KuF/Txlh3zh+5QLP7357sM0rMa2wrrPzrb+5/k6747r8XX/r9g+tvtqvaVoSe0B4/QtveEWQAAkAgisBu1XrdMmRRdTpMfpGphJ9OD1hUnc45P+ct3/RO2VVa+5TgPN9wzzg1GkvPyMoTG2O1rI4MWFUd9gOwrem7hpkxKDIjQvjMpnlHoe0UxsuX1Z2yNIVuQBhrDxgkMeHIPFJzVN5StYSfo/BBqDlednE4FGSHPZNz0zrTdI9Rc0Ze+rba0Gmi/+pM030LPpFgcA2whVqXnu7nRtZDOUOj4LzHft3W8b68/Fuj/1mkDs/RbH6dLEM9h8Tdpv19t3JqXTCLOJXKn0Zx1ZqPhaYO3mz0N60gk1FPYZx/1+lAb2Yxo/clFC0qz7fQyaqwpcsFYJdYIsZ3kCircXouU2HDTFzX7gZbWIT5oXeuDl4vq5nCsb5ussGSdTbwgh3WUou/RiTwJEheRq2Ri5y6ic7WM2Z21y3oMZb/J40aM4XN4rXRK8WX3tCMCyi4u/P7nrhckzZjces//1vx5SMGO8/WM/rgfxVf+n1lyZ2JqceWmZbHFW+XXPrNo/IG8Q88TjPtda8aigACQCARgV2q9aq/X2NuGwmIRm03l03Odo2lz8z3x2PU2uvT0egzLCgifjrVZ1HpPDETvfbhLSAJMbOO1GS2GEWjgx5VpyytundQeMFFRZmhOYPiqMhi5mZnpcnLPh9eFnVZSHCrcWu+GbZS60/CcXChzNRkL307Mr6+blWfiFMHar7/GmpNgk/LZPhUDeN10zCrqBlcl9tQzwzu7KVjyee1gu3IQ9g6MaGnJ3JDuR8WMddqkWJGGLfmztU2sXQiGVV0WpPMImZO1DFadZBzt8LD3id/QpflqEiP3Lxyb7CF9/BxGeIC5eJXZp20qfFHefQi/LG3ak2CpDEyE+x4Hvq4BH3XjDp3YlgHpm6UX5LMuUqk1vw9Yge1pCtq+rlPWL+i4cvfyorKRTGAnmn5/y2+/B96G6/o+9sF5OsGCSAABOIS2JVab7qn7CrNgiQ+nGwujllVWseM5/myL3wsGm1i2zo0Y1saVU42vTOLNE/sjO241d3dh6sd3WURcY1yVpd9buC0Nkm1biias884xMeiVRiWDlVv39W67AuDJaoOc27eY7w7RDs6i7etSZCY9ezxXKQys+di1DocE75JiovxsXxmkOzYdvSusN2j+FEn/qEOnc+neplrlIgHcpAPs9CVHuQPRWV/1St0trg7YjHpm8JVOvxjA/ryZ3qFT5sjo85JqHV3K3W2f6NGAwus0YGNDrapmd1ztSZBsrDItg6xpe34Hwp0Khel50r881u3jkv7XvGlf+8amfCuPOEOe8/ZuLa1cJ3nqpYvf/egpIEb5EYzN0ov/UH5WAiPoBOvp/5OP+yXfChcYR/603BxIAAEtiCwG7XGaLSHrnziklw3pNaxy6eIPOFhtXYIUeWEhIR/v9WaxT7X/FzHGXlD0Vxo0No1lttQdlFvs7qWnH7uhZWkJ3yL1VQiNPZVrUOe8L8bD1KbI/clmFZiteZGi79U4wuJ1DpI7OMkIwtde7xj81pcNEtonNo7FRGtDasFNakzCpk6FR2B5ldrEZ8oTlc/pGFoBs79s60nfJ18fxu9Wca4Rb4TY9cee8LF1ePSq1bybha6GtPziM3JfRJS66iVT/5FrNY+4+3W4isTYnv9mbLpy9+WlkrUuqnHKi4iMH6l5NIf2gZBrYUnX8wH0kDggAnsQq3XrK52jUX3hPd4h9+bax5stTHCYWdmhxbEtjUJecL5GDT6G2DQaJzA8v3otkvWQqGxWtVFFjHrwIj+YRJRZr98MeyN+Fqxz9J9XaOusouvs7+e8KDfcK1K9pbWxK9Ute4dz9cq8yak3vj9fb+I1ZoEaSR2RiFzKrFak3Vy5x7K+InGo0lZJawn9pPr99H1HpHAr5PcgjhTlu0jNPD7eC46VSMV8k1SUYk+q2HEUejKeirqA5FqJIoyCweRbVK1Pl4SnlNOa75JKn6Jo9Z4mQ4EnG8X1TbqGd4kPxTED4l3m9izRUzZvOAV4IIAoianbcENLfdMjzaLj7G6k2K1DoRM55pmIVzcN/738ku/qWkdD18WKZuu/e5+3g9OPnpxY36w8H8WXz05Loqw26IO8BUQAAL7TWDnav18Vm9RdS7Nb78wYcy4NYley6y/x6LSLAwewFpmzJxoLRQaq6XQaoQQM0r5WXgGl5KbwXWnrT5mBpelQlWWJq+80jfYMD78qL/ltEKWXv94XBiGD7XWFra1b65xTC+awVWfNcT9O6xdDJnL3HzrxOPWQeIb1iuOystPq/uqxkdqDdor9bI0RbOcD2VPqH97+CRJ1Zpws5xDS5uF5YqZp3HO4tVRzHqqqVkjgiZtU58NtriYKusNNW4cwQ1DuKCSTq+61h99BfYZnQF1JAvdiwSH81fub6N+7M9qUfUQbh3Bv7Tgd2+iD6sEWznuDK5zrUJUOecJ/0tVaA7YEJv3C/q8mEbMRUWZcd2R9FyUpcaPdPSo0EfPVdM20cpcbUThDH1oMhRqgFfpJLFjBcw9HaJ3OoCv/4zTsxm5EAK24zaNHrfemB68+6/Fl/5HddnNwU7ZQM35R1d/W/zt5ybRgrjO3rOll37zIPsvPap7w+25yrz/XXzpjfrW/sTzwXZcK75dIAEEgMAuCOxYrd0rXRqz2oijX5pxyo5V6yAh627z8mC/TdNhae9Y6Bn0zCwdyAyuZXVneWR9MeyaqMtsGhJZM1zl6eoo11seZoRWR8neYnUUum5JaWZN3d96jJMrMTeeWK1DEd1RA+fcv2VfjIYCy7dXaxIky+PjdHWUDLksXSE/p+lTckp/cG/PKLUmL8j3Ib2MijITqzX7jOaJigKLQSe5BewnD+oQF+GVno1OFjK3++NFlYfGxaUTryPXWSdtWpYb8D6Shd7MZ75uZUySOYfE42BvV9KVSbgi7vaLwtDo40ra1Oxf8um3b95lbveigZ4449YkSPweNq8cc8uwHMmi86dHIz4Y7jZZQuT1dBkWLlqN6vFSeAzeYSPZ5ehEDv0qPQd9LEOPTEn8vqLMd9G/0WodJISMjdWdp7OzLv+h5Kv/rCu7M78sChGl5665jcXquxllX/6x+Oq/yn+40D9o3L5HLip069aEb4EAEHhJAjtW65csD07/1QksEzbuwU+uDTyLn2F552FiCW/2RcIi4s+2SqwKXKDZpc6XkreE9UxcLpwCBIAAEDhIAqDWETvscLyXsY+u181PRhInwjtEbZI7P8bPIB7xfclnlHMLi0vn0+IJ08mU0t3CpmczjfxA/uFox2TIQB4gAAReJwKg1odLrck6O73AGiw49hhyhUPAFhzxMxgWWNF83Jfi5vUmKgIvSj3VW//YuAVN36kQhqK3zg/fAgEgAAReUQKg1i+lOq9oq0O1gQAQAAJA4NUiAGoNag0EgAAQAAJAINUJgFqnegu9Wr0/qC0QAAJAAAjsBwFQa1BrIAAEgAAQAAKpTuBQqPWfrgf/dD24/P/ccAABIAAEgAAQeBUJgFqDhAMBIAAEgAAQSHUCoNap3kKvYh8Q6gwEgAAQAAJ7SwDUGtQaCAABIAAEgECqEwC1TvUW2tveGVwNCAABIAAEXkUCoNag1kAACAABIAAEUp1A8mrt0fZ/ernpTOzx144qy2b0vsVu+71rTWdyJyZR1LrNL570T/50S3vxavOnf2//unC0ZWoP94qIKivyL8SEv4odSagzEAACQAAI8AR2qNat1+WzLWpT5Jj5Kav5zJWe5qWgVK2fDsra//JXbdl01G6YL2Zrus5fbr5w21ChMjXUDmV903zmcnuBPrTR735MJ+euCWrNtzckgAAQAAJA4FUksEO1biuZ2BCEecVWcLXp07tPbFKhXRkZvfpF01WFyyv9nFhN319uunDfIuRfWSq50XTmxogh2gSPmMVRV9jdv6DWr+KjCXUGAkAACAABngCn1v8fD+xNuWqMpFgAAAAASUVORK5CYII=;" vertex="1" parent="1">
          <mxGeometry x="-870" y="45" width="401.65" height="130" as="geometry" />
        </mxCell>
        <mxCell id="pSzIDRAnVB_ECjLOYuTH-77" style="edgeStyle=orthogonalEdgeStyle;rounded=0;orthogonalLoop=1;jettySize=auto;html=1;entryX=1;entryY=0.5;entryDx=0;entryDy=0;fillColor=#d5e8d4;strokeColor=#82b366;strokeWidth=2;" edge="1" parent="1" source="pSzIDRAnVB_ECjLOYuTH-9" target="pSzIDRAnVB_ECjLOYuTH-76">
          <mxGeometry relative="1" as="geometry" />
        </mxCell>
        <mxCell id="pSzIDRAnVB_ECjLOYuTH-78" value="" style="shape=image;verticalLabelPosition=bottom;labelBackgroundColor=default;verticalAlign=top;aspect=fixed;imageAspect=0;image=data:image/png,iVBORw0KGgoAAAANSUhEUgAAAZAAAAEqCAIAAAC0jJGIAAAgAElEQVR4Aey9+Vsb19n///1fqB3XrhOn+Tx28jRJkzxp0rRpm6R20sSx26x2Ymxjx1sAIzaD2MEsArEjEPtu9lVISIDELjaxCaEBse9jDPrhW/nIh2E0GiQZbIRvX7p83XO2OfMe8ZozZ0bn/f/N6fr26KMnCfiAAqAAKLCLCvx/e0SrOV3fLvYSmgIFQAFQQE8SACwYBoICoIDdKADAsptTBRdYUAAUAGABsEABUMBuFABg2c2pgqsrKAAK2BmwBsIcm755bW28Dc6cbQpsrGr4wveSsv9mW3WoBQo8XwX2HbBUqrbC8gdIlOSsjBmdiipQD/fbxq+Orqrl1ERr40fzQ+LTDvizOtpibQuovDrNW3H5XdvqPn0tZY+gt0/I3k6D7B5f+B61zKMVdUTSKX7aLnS7uMoxo/AstXGIQYG9VmDfAUve1ihqrNWTxPrKOC8l5dGqlibB5oqGlmLt5uaqZkoknBIJx7IDxKcd7BRYOQ++KSj7kf3YTYGlJ4mNVc3m2jh7RUtyAViWqARldleBfQesmoaq9k6ZniSmJwcEOVm7e7S01pZ6ap4GWKN7MMJSDebROmlu0yJgSekjLHOt2ZDOAqzhoaJHq2M2tAlVQAF2BawDlm68Ozkx2tHRMSI8eMc3Ttl3bC43t6RwdKRTTxKGe8MK472hniSk517GN3EbS6O4+qpGIT7tQJTyWq99KD17rNPtzOrY1g3j+uyAKuJa8/cnZedfUd47R7uXZAQW8SBKeu5l3P5Ypl/LxT/gzVlZruLyu9Kvf9cf8tOowIN6S7iiEndxPpeeO97y4+tjWf76NfrYEDfCGKhHS5Nz/hEa/3uc29EVH5P2jl/0kZD4VwvLL64tGe6OyaUhLu+Q6Wd9xaiJajCPL3wvOO7loopLIqknviWc1IpwreTsv+O9oGBSK0rLPxMc9wpP8LakyW9zbedhLAJWg9Q7JO5EZPIbTfIQ3GZG0Vc8wVtd3Ym7MpTDzUIAClgBLN14N4fjGhURkiaI3QtgdXY3x6cLo1JSYtNS49OF/LTU6FRBSnYmOkkzjVlTIuFI4l3xaQdTYHW6nVnuFy0PNrb98lGH86f4vPb4/qf5+5NECU9Xm9L2y0eKy+9uLKlxrrXAIie7Gs8e6/H9ZkaWo87gyn9+CwPr0Zyq+buTPT7/nm8rIUp50rPHxgvC8I7YAx0hziz62j/mSEm10/xMOyqsm2j0i35JJPXSqCsGBrKiUt4sq7muJ4nNNU1vn7C3T5iU/TdB7qco7u0TIjQszXUFxR7PLflWpcqVNPlFp/4RA2ttSYUKZxWfowFrbXHgfuL/pBf+q6c3rbE5IDD2d82KUPY+60miuMoxKuUPZTW/DA8VVdbf4fIODQ8VoVorC301Da6B/GNxGR9aPmbccY9QABSwAliEuqOmMn9O15eXnbIXwHq4rJmeHIhOFSzODi/OjZRWl8nbGpfmRqgnaVqcwQisqbpUVGxKlCY+7fBofsgwCzanEp92mBKloayVkSbxaYfFrkrcoLXA0tUkSb44vLFo7FJvwA8YWLqapMavjj6aG0SNjyS4Kq6+j3dkLpifaS+qvOQXfSS/7IfpySZqsZ7eVP+YI3ikMzUhHR+rohZgvCXsVib7xxxZXzb2sKDsRwwsXLeq/lcasLqUSQH8o+SSsfO14rtx6R/g8uaC4ipHnuDtTdI4kIxJe6emwZVaeGG2s7T6mn/MkdT8M1pNDTULYlDANgWsABa+B9wjYOlJYnxMmVlonMTJKMzTjilpR2UOWBhDi11V4tMOa5pWPUksDzSITzssD0ppjeBNa4GlyQ1u/v4krq5O9cLAUqdzcawnicmqBOnZY7ikuUAs4/IEb09o60wLTE1IuLxDBeUXOjrjNGOVplNCjMCSyUMikl/HrTVIvS0BlqTJjyd4G9dq74wNjtu6KcbptKC4yjG98EucmFH01YOqy3gTBzO65tT8M1nF53AKBKCAzQrsL2B1djdXiQwjoM01bXSqYG2JPnFrHljG0QcC1qpGYQBWv0h82mFlaPeAlRPU/MMprDX1tQZ1mrf4zG8avzyCPpIvDjd+eQSXNBcMDGQFx70Sm/5+X1+6aZmOzrjErI+DYo9zeYdC418dGd6a0dOThBlgBUcmv4GbYnxKaDrCapDdi079I67V0RUfwD+KN80FtEn3jMKzxVWOtMJTE9K80u/9Y46IZVxaFmyCAjYosI+AlZiRHpMqiEkVxKcL49KFkcnJ8elCZc/WDLrh0aGZW8LFLiZg2TbCKo2WnjuOpURzVWiTfYQlv/T2ypB06zOy7RYPN0gLlud7KuvvBMT8Njn776PbkYRKbpLaGV1LWv6ZxKyPqXXNAOuZjrCo72HRgDU/0/ag+opf9JGckm+mJg2PfeEDCjy9AvsIWEtzI1lF+X19isW5ke6elrzSosW5kYfL2x5XWQWsJ3NYxrcrV4ZltDksdM9IG4LNNhcYbiq1HUjcvuCLXZzPUayrTmSZw5KdP7G5bBwSrqrlC50Vlp+euenWoopLftEvZRWfR7XG1BWSJj/cgqI98n7i1t2oniRyS77LLfkOF0BBlzLJhjms7p6U7XNYbnEZH1JbnpqQ1jS4zuiaqYksIyxpS2AA/2hq3mnavBu1OsSggA0KWAesKW33lLY7Jys5PCzQEBNKPLFlGljbm801LV+YtrJgeDzfJG9obBbhFtZn+qbFGdPijJEkN8M8en3atDhjvq1ETxLotQbGEZaeJJT3zm97Suj4R+pTwo2FYem5433BF1HjaCJsY3Gk5eIfOpw/mW4QqtN9JV8cnqxKRD0hJ7oavzqKnhKOZfrJf3oTz1sZnxL6/mdGljNZmdDy4xsD4Vdx/y0MdIQ4v+wHVHh0pITLO9Qguzcy/KCvLz02/X3MMlRAJPUMjX+1W5nc35+pUuWgxMW57sDY3xmfEjb78wRv4zms6cmm/v7M/v7MrOLz/LR3UTw1IdGTxNqSKjzxVEbRV719QmlLUFDs8ebWbY84c0u+M0yobX9PlQVY1SJnlSrXwqOGYqCA5QpYASzNSJvj9n/eXu6mnMIplncClZyZHEh+8hJDUUWJSmV8wK8niYWOMvwSFg7abvxlR2Ctz/YPhF9t/u6k9NzLSq+vV0a2jREM95iSTPlPb6I2uz2MU8jLg1L0RpX857fGC7Y94J+RZisc35GePdYb8MNIkhsGlp4kVlTiTrcz0nPHm78/ORRzCz9MtFYHXL5ZEcoTvOUX/VJI3InsB/9ZmDW8noY/q4v9mUVfB/CPcnmHgmK37mFVqhx+2rtBsccLyn6sk7hjYIllXPweFg5qGlxQgzpCzPIeVnNrWFDscUV7JN47eq2B5ZaQWhJiUGC3FLACWJhEFga71UVoBxQABUABpAAAa2vMAt8JUAAU2OcKALAAWKAAKGA3CgCw7OZU7fNLH3QPFHgGCgCwAFigAChgNwoAsOzmVD2DyxfsAhTY5woAsABYoAAoYDcKALDs5lTt80sfdA8UeAYKALAAWKAAKGA3CtgZsMA1Z7cuYg0yn/CkU3i9rd1qFtoBBfZUgX0HLHDN2dPzjRuPFf5fVf2vePO5BzUNLvgHQ4UVP1P7w5JFLWYa037taFoAUuxOgX0HLHDNeQbfIWK8lss7tK9WAdVNiNEKzolZH9OAxZLFrhUAi10fe8zdd8AC15xn8DWqFjnHpL3zDHZkwy6yis/RgIUbYcnCZagBC7DA14cqlB3F1gGrq63ej+t97ZrTXVfn0uJM9l9B26YCuOZg3Rhdc/QkIcj7Z07JN7jY1ISUyzukHjEstqMnCXO1cPnNtfGI5NcbZPdwirla5NIQbakZRXtkUOzxh8vDyA6jWuQcnniKyzsckXSqQbqtQdVgXkLmX4Nij8ekvdPSGk7dl7QlMDr1j4H8Y3zhex2dcdQsPUmwUIkli9YI2kTAAl8fRnHsNNEKYE1pu2/fvvmgMEM33t0mr71+/ZpcVsXCLGsVAdccS1xz9CTR2hEdwD+KXL/0JCGWcSOSX0euOea8dqjnYmS4mMs7RPW8YKlVWH6R6lghLPgCr4ql6OAFxR7v7E7UjFW2dkT7xxxR9gjQjojxWr/oI0WVl3r7hCKpl1/0Sx1d8SirrZMfHPeKooM3NFggbQnyjzmiHi2ldo+FSixZ1BZwDL4+WIoDE1gBrBGVPDE+ChMqNMQ/LzsFb5oG1moErjlUxVhcc9YWBwL4R/HYJD7zIzx9zlILN/6g+gpttWWWWoODeVzeodkpw0LVKwt9/jFH+vuNxmvltTfS8s/gZsfUFRiCVSJnqu9OYfnFjKKvUMm1RdXqYj+ulZLzSZ3EHW/u+ggLfH2o2h6A2ApgUZE0pe2+c+dWo6iUmkiLbVAHXHOwaOyuObkl3yHHmtkpOZd3CK9EzF5LTxKPVtQhcSeattsOstTaXNPcTzyJFms2uOnEn3i0YjR2VLRHBvCP1orvKntSdRNi3PPHyzd/i5dOpaYbFlxc7M8v+yEk/tUA/tHHqw8eRn6LuBjLMIolC1enBuDrQ1XjYMS2AGt2spcffT84iDs72UuDFHXTBoHANYcqGotrTn9/pl/0keV5pbQlKErwpoW19CTR2yf0i35pca6bWsUwh2Xeoaeq/lc0XMos+rq48hKuuLGqqRW78dPe9Y85wuUdik3/AK+JymiQgSoWVvzME7w9OlIyNSmbmpQlZf9tT4G145qo4OuDT6hdBFYDa3ayN44f4evjNTHWScWTaWzt8YNrjuWuOY9Wx0Ljf69oj0zO/nut2M1UanNeO7kl3woLvjAtj1IYa6F3IDRjlQExvx0cNLpGUlvYWNVoxiojkk5hI9XcErMjrOC4V6jjO0HuZ88LWODrQz2J9hJbB6yZiZ7YmPAAf58daTWn67NWAnDNsco1p6zmemLWx1ze4QltPZaa3WtnbUkVwD/a3hmLy6OAvZaeJGKF/5eY9XFYwmsbq1smRl3dCd09Kbip/LIf8G1glcg5Nv1DbApdUH4Bz2GFJbwmafZHtR4uD4clvEYDVm7Jt3heHzeOApYs8PWhaXVQN60A1sxETwwvLMDfZ3y0HdnnTBM9pgMrnGKtZOCaY5Vrzpi6gss7FJP2LlVndq+d9k4+9fEirsheS08SkiY/Lu9QafU1XEVPEg2yeyFxJzo640ZHSh4/+3tZJg9BBfBTwr6+9Aapt+Ep4ZPXF4oqL91PPNmtTB4czMsoPBuT9g4NWGKZb2j87zu7EpCvD3WGniULfH2op+YAx1YAa3igZbtpjiM/+j7Gk2lgrWrgmkNTjN01Z5PUBsUeF0m9LK+Vlv+5qZUhqs6+L62mhss7RLOeXl8eKa2+dj/xf7i8Q+GJpyrr71DHXwOq7ITMvwTFHo9O/WMzZY4fTboHx5+ITH5D0R4lLPiCBixyaSiv9Hvkd019nqAnCZYs8PWhfQ0O6qYVwDJFEnvKQZVsnxyX5vEISzfRaGF/Fme7/KJf6u0z2spaWAsVkzT5hSeeQq96WVURCoMCu6sAAMtuFtagnfiKulux6dv8mWkFaJsyeUhw/In1FYNPrbWf2PQPK+puWVsLyoMCu64AAMvqv95dPwc2NLi5pglPPEX1srehEQuroLe0xtQVFpaHYqDA3ikAwLJLYO3dFwJaBgX2swIALAAWKAAK2I0CACy7OVX7+boHfQMFno0CACwAFigACtiNAgAsuzlVz+YKBnsBBfazAgAsABYoAArYjQIALLs5Vfv5ugd9AwWejQJ2Biyw+Xo2XwvYCyiwPxXYd8ACmy/qF2V9ZTS/7Af8wzraOnnUkhbGyh4B7dc5KlUO9teKTH7Dwnb0JMFi8WB5I1ASFLBKgX0HLLD5op4/tFa6vC0SWWCtLaqouTbEpkvrLc11ocaLKy8BsGyQFKo8SwX2HbDA5ot6+usk7nEZVvxgkFqXMTYFFi4mkwfvFrDARAurCsHuKmAFsDQjbbTlZZQdYpYFG2zrKNh8Id3WFlVriwNoJby1xQH0weslTE3KMou+Dol/NSL59Yq6W+TSEKrV0RUfwD+q7BFEJv9vaPyrJdVXkSUXuTSE7/uoAfW30LYBC0y0bPueQy3bFLACWHO6PrRun268mx99/35owBSh3EVggc0X1eYrLOE1KllQjOawyKWhqJQ/JGf/XdkjULRH3U/8n+IqRwws/5gjZTW/zE23Dg8VhcS/KpJ6Ig9BdN+XlP03Qe6nKO7tE2IC6knCBmBFpfyhrOaX4aGiyvo7XN6h4aEi1I2Vhb6aBtdA/rG4jA9VTKsq2/ZlhVqggHXAmtP1zU72xvLDI8KD2GllwxLJYPNF/TqOqStGR0oKyy9Gp/5xdKQEfR4uGRxM+wcyubzDy/M9qHxrR3RQ7PHNNcPixR1d8VzeoeV5JcqqqLtFc/Ta3VtCMNGinjKIn4ECVgPrv4bPly9fTk2JHR5oYRle2QAsPUmAzRftlNeJOfEZf6YltrTev594kpaINg23hDG/xVmNzf48wVt4U08SuwssZDWG2s8o+upB1WXqvlA8o2tOzT+TVXzONAtSQAFrFbAaWMMDLU2S8jRB7K2bNzTDrSzMsrYrepIAmy+aaIzAalaEhieeopVEm2gOC2c1NvvTTMB2F1hgooWlhuDZKGA1sDChvDw5ddWFeNM0sPYAwObL1OaLEVg7jLD4R7HyzxFYYKKFzwIEu6iAFcAa6JHmZCVjMHF9vSrLcvGmaWBtL8Hmi2rzhdRjBNaTOSzjRBVtDiuAFVi5Jd+Z86Foab1vbuAGJlrWfpmh/B4pYAWw1IMKJyen+pqiKW13U2O5k5NTb5fElFM4xdoeg80X1eYLqccILHJpMDL5f7c9JXxiyLzjLaFI6hka/2q3Mrm/P1OlyqGeo7HRci7vkKTZH/lrzeiacS6YaGEpIHi+ClgBrDldn1Rc5unh5uTkxOG41lYVYDYxBtYeGNh8mSrGCCw9SegmGjMKz4bEnQhPOlVee4NcGkR1dwTW6mJ/ZtHXAfyjXN6hoNjjtD02SL3x6xSNT+xO9SQBJlo0oWDzeSlgHbAYwWQu8XkdEuwXFAAFDqoCACxYXgYUAAXsRgEAlt2cqoN6zYTjAgUsVwCABcACBUABu1EAgGU3p8ryqxCUBAUOqgIALAAWKAAK2I0CACy7OVUH9ZoJxwUKWK4AAAuABQqAAnajAADLbk6V5VchKAkKHFQF7AxY4JpjyRdxY1XDF76XlP03SwpDGVDAjhTYd8AC15yn//Y8WlFHJJ3ip71rVVOmhjqm1VPzz5TVXDdNp6WAoQ5NENjcLQX2HbDANWdXTu3Gqoa6/LElbbIslYWrA7CwFBA8FwX2HbDANee5fA/YFyPFXUp76hEWGOpgMSGwQQFbgKXsaNhxbRnblkjWkwS45qCzqOjghcSdwGeUuhQfWpLB1BpHTxKTWhG2rkjO/juujoKOrviYtHf8oo+ExL9aWH5xbcngcrijoY6kyS8i6VRYwmtN8hBhweeW3xKCoQ5Nf9h8egWsBtY00ePlyaGu5LdbqzWAaw7VNYcdWIzWOHqSWFtSIUecrOJzNGDpJhr9ol8SSb006oqBgayolDcRejbXNCyGOgMDWVzeofpGD5Uqt7jyEq7F/s0rrnIEQx12iSDXNgWsBlZuVoqnh9uOljk2jLDANYd6CtmBxW6NoyeJqvpfacDq6U31jzmCzHX0JDE1IR0fq6LukXEOq7T6miD3M1Rsc00TmfyGhSMsMNShagvxbilgHbD6uhudnJy62upnJ3tbm6t1493mhlc2AAtcc6gnlR1Y7NY4jMCampBweYcKyi90dMZpxiofrY5Rd2duDiur+HxhxU+4ZGreaQuBBYY6WDQIdlEBK4A1M9Hj6+OVnhY/p+ubmeh1dHQc6JHuLrDANQef2h2AxbpwOyOwDK6FnXGJWR8HxR7n8g6Fxr86MvwA7848sM4VVvyMi9n2lDCj8Cy2esVNTU1I80q/9485IpZxcSIEoAC7AlYASyYpv33r5pTWMKraC2CBaw7VNaetMyY47hV88iRNftGpf0SbO66DbA5YqPomqZ3RtaTln7HEY9XmERaLAxgY6uDTCoG1ClgBLHH9gytXrty+fRN9dn2EBa45VNecocECLu/QwmwHOqOFFT8LC75AsW3AGlNXSJr88PdD0R5Jc2NlNNQprXYS5H6KajHOYYGhDpYUgmeggBXAmiKUY0Ot6DOqku86sMA1h+qas748EiV4U5D7aV9fuljG9Y850tWdiL4QLMCanmxCnjdZxef5ae+ieGpCoieJ0ZESLu9Qg+zeyPCDvr702PT3s4rPU79hjIY6jy3FHj8lHMx7/JTwD7Q5LDDUoWoI8V4rYAWwqNNVe3FLCK45tJM9NSEVFnwRHPdKdOofm1vDcC4LsMQyLn4PCwc1DS6obrMilCd4yy/6pZC4E9kP/rMw24nb1JOEOUMdsYwbnnQqNP73jc3+pnNYYKhD1RDivVbARmBR4WUu3uuuQ/ugACjwoikAwILlZUABUMBuFABg2c2petGupXC8oICpAgAsABYoAArYjQIALLs5VaZXG0gBBV40BQBYACxQABSwGwUAWHZzql60aykcLyhgqgAAC4AFCoACdqMAAMtuTpXp1QZSQIEXTQE7Axa45uzWF7RB5hOedAovj7VbzUI7oMCeKrDvgAWuOXt6vnHjscL/q6r/FW/qScIS1xxq+WcZgw3Ps1R7P+9r3wELXHOewdeFGK/l8g5pNTXUfTGuOEot8BxjANZzFH9f7XrfAQtcc57B96Na5ByT9g5tR3YKLLDhoZ3Hg71pHbBu3PjFkfJvsLfJ3C+fbVsiGVxzQuN/j79wjCY3epIQ5P0zp+QbXGxqQsrlHVKPlKAUc7Vw+c218Yjk1xtk91AKi2sOuTQUFHuculCEoj0yKPb4w+VhPUmgUU99o0dI/KsRya9LWwLxLvQk0d+fGZfxYWDs7+LSP1CpcnDW5pqmWuQcnniKyzsckXSqQWrsBi7AGKB9gQ0PozgvVKLVwFJ2iKe03egzO9m7i8AC1xyqa445kxs9SbR2RAfwjyKTLj1JiGXciOTXkW0qSy38tR4ZLubyDk1PNqEUdtecwvKLVDMLYcEXBWU/oorFVY73E09Kmv1np+TtnXwu7/DQUD7KGtdUc3mH6xs9xkbLa8V3/WOOTGjrUJaigxcUe7yzO1EzVtnaEe0fc0TZI0BZLP+DDQ+LOC9UltXA6u2SsECKmmWtjuCaQ1WMxeRmbXEggH+0ozMOlY/P/AhPn7PUwo0/qL5CWxwZZTHeEg4O5nF5h2an5HqSWFno84850t+ficoXVznGpr+PmxXkflZZdxttPvbaMa5TqieJpOy/VdTdRFnltTfS8s/gWmPqCoxOnGgaFFc5gg2PqSwvYIrVwLp188adO7d8fbzqa4qoeDKNbVBzfEyZWZiHKmYU5mnHlLRGpsUZ4tMOG0ujOH1VoxCfdljsqkQpi11V4tMOa5pWPUksDzSITzssD0pxYVqw1FMjPu2wOtpCTSceREnPvYxTxjL9Wi7+AW1qcoObvz+Js9SpXorL76JNdToXxwZD06oE6dljuKS5QCzj8gRv49EHtRi7yU1uyXfIlmZ2Ss7lHcKGXey19CTxaEUdEneiSRFK3ReKGYG1uaYxDKMer63c3hkbHH/i0YoaladNhOeVfp9X+j3KSi/8F3Vh0pLqq1nF51CWoj0ygH+0VnxX2ZOqmxCjxB3/L65yBBueHVV6EQpYByzNsGGJZPWgor6m6OqVK8oOsSmncIoN8oFrDlU0FpOb/v5Mv+gjy/NKaUtQlOBNC2vpSaK3T+gX/dLiXDe1CooZgYX8LOLSP9CTRGbR18WVl3BFFmCl5p/xiz4SwD+KPn7RR7Anxcaqplbsxk971z/mCJd3KDb9A9rCp7h9akDbF9jwUMV5oWLrgIVhNKfrCw7ilhRlUFNosbU6gmsO1TUHq8docvNodSw0/veK9sjk7L/Xit1wYRww1nr8TONbbGaBC6PAHLDQOxCascqAmN8ODhrHv2jSnTrqyS35Lr/sB9RUeuG/Cit+mpqU4Q9208A73VjVaMYqI5JO1TS44kRzATuwwIbHnG4HL90KYA32NfGj72MqhQT7FRek403TwFqxwDWH6pqzo8lNWc31xKyPubzDE9p6LDV7rbUlVQD/aHtnLC5PDRhdc1CBWOH/JWZ9HJbw2saqBlcxTIQL3kST/XqSSMj8S2X9HZRbWn0ts+hrXJIYr52aMN6Yd3UndPek4Kz8sh8w5lAi2PBgcSAwVcAKYE2Mdd688UtpcaZuvFvRVHXtmsEC2pRTOMV0Z+wp4JpDdc3Z0eRmTF3B5R2KSTNOoiFt2Wu1d/Kpjxdpp4PRNQeVkTT5cXmHSquvUasUVznGpL3zoPqKSpVb0+DK5R0aGixABcY11X7RL9VJ3IeG8qUtQQH8o13KJJTVILsXEneiozNudKSkrZMfHPeyTB5CbRZseKhqQExTwApgzen62uS1Pvc8nZyc3NxcqivyMJsYA9qedtwE1xyaROwmN5ukNij2uEjqZXmttPzPc0u+o5XHm+Zcc/QkodXUcHmHaE7RxVWOWcXnJE1+ofGvRiSdamwOwE3pSaKvPyMu/YPA2N/FpL0rb4vEWevLI6XV1+4n/g+Xdyg88VRl/R3qqE1PEmDDg7WCwFQB64DFCCZziaY7g5RdVEDzeISlm2i0sM3F2S6/6Jd6+4QWlqcWkzT5hSeewnd/KKu4yjGzcOu+j1oeYlBgjxQAYNnr8jIVdbdi0z+0/Gshk4cEx59YX9l6I8TyurHpH1bU3aKVp02E03JhExTYCwUAWHYJrM01TXjiKar1/F58OVCb6N2uMXUFbRcALJogsPkMFABg2SWwnsE3A3YBCuxDBQBYACxQABSwGwUAWHZzqvbh5Q66BAo8YwUAWAAsUAAUsBsFAFh2c/s3ZnoAACAASURBVKqe8aUMdgcK7EMFAFgALFAAFLAbBQBYdnOq9uHlDroECjxjBewMWGDztVvfD7D52i0loZ1nqcC+AxbYfD2b029q88Wy38Zmf2K8lqUAY5a1teBNVEYZIZGqwL4DFth8UU/PHsWMNl8s+wqJO6Ho4LEUYMyythYAi1FGSKQqsO+ABTZf1NOzRzGjzRfLvqxFD2rK2loswAIvL5az80Jl2QKsWH44dSW/3V2tIbekcHSkU08ShnvDigf4ZEjPvSw+7YA+pmu6E6W81msfSs8e63Q7szpmcExAn/XZAVXEtebvT8rOv6K8d25VvZWlJwlr13TXk8SsLFdx+V3p17/rD/lpVOBBXcd9RSXu4nwuPXe85cfXx7L89Wta3A1LAvVoaXLOP569zRfqG6M5mEqVw+Udon2oJjrSlsDo1D8G8o/xhe9hU4wda5lTAwELvLzM6QPpepKwGlgdijpn5ztadYc5TuF0a/UFm6/nYvOlJwlz5mBLc129fcLePmFQ7PGymusoxus4P15+7xVFB29osEDaEuQfc0Q9Wmq4DLDWYvlWgJcXiziQhRSwDlgzEz33vN2bJOWYSiyBtRKDzRdVMRbDrl23+WLZF+oS483d2qJqdbEf9zkl55M6iTve1JMEYy1qAVoMXl40QWDTVAHrgFVWkn3zxi8cN1c3N5fC/DQWWtnm/Aw2X/gMsRt27a7NF/u+zKFndbE/v+yHkPhXkTUOl3eYau1lrhY+QNMAvLxMNYEUmgJWAGtK233nzq2K0pzZyd6+7sY7d25VlbOtkkzbkyWbYPNFVelZ2nyx7MscegorfuYJ3h4dKUHWOEnZf3t6YGE3MD1JgJcX9csAMVLACmA1N1Zw3FzxqConKzksJABvmgbWSgw2X3h6iCodo2HXXth86UmCcV/mgBUc9wrVkFWQ+9meAgu8vKjfihc2tgJYtVUFbnddMJiyMpLC7wfhTdPAWk3B5ut52Xyxm4PpSSI0/vctreG0ExqW8Jqk2R8lPlweDkt4jQYsxlqoPHh50cSETQsVsAJY6kHFtWtOhfnCSU1Xh6Lu1s0bDXXFppzCKRb2ABcDm6/nZfPFbg6mJwlB7mdJ2X/r60vv788cH6tCp6yo8tL9xJPdyuTBwbyMwrMxae/QgMVYC9UFLy/8tYfAKgWsANacrq+1pcbXx8vp6lVXl19LizMxmxgDq/qhJwmw+aIp9ixtvtj3NaGtj0v/wC/6JS7vUFbxOdRPNOkeHH8iMvkNRXuUsOALGrAYa6G64OVFO9ewaaEC1gGLEUzmEi3sARSzTYFnafNlWw+hFiiw6woAsOx1eZlnafO16187aBAUsE0BAJZdAutZ2nzZ9sWCWqDAXigAwLJLYO3FVwHaBAX2vwIALAAWKAAK2I0CACy7OVX7/+oHPQQF9loBABYACxQABexGAQCW3Zyqvb52QfugwP5XAIAFwAIFQAG7UcDOgAWuOXt3DdxY1fCF7yVl/23vdgEtgwJPqcC+Axa45lh4RpU9gt4+IXvhBtk9vvC9x+tNby12HJn8BmOtRyvqiKRT/LR3qbks66xTi9Fi22rRGoFNUMBUgX0HLHDNMT1JjCk5D74pKPuRMQsnYmDhZYuLKy+ZA5aeJDZWNZtr47i6niRsQ49ttaj7hRgUYFRg3wELXHMYz5NpokXAkhpHWLi6TB7MAixcDAfFVY6ZhV/jTQsDFmCB/42FGkIxRgWsAFZfd6Pj9n/OznfM/fLZtiWS9SQBrjn4PDE62ZBLQzQbG7S5vjKKKqoG8/jC94LjXi6quCSSeqJbQtwmI7AmtSLcJtUUB42wsorPSZr8QuN/H5n8hkwejJtiCRCwwP+GRSLIsk0Bq4E1pe1Gn5SkmPCwwF0EFrjmWOKas7mmQe41Sdl/E+R+iuLePiG6lVua6wqKPZ5b8q1KlStp8otO/aMlwFpbUqF2sorPmQIrKuXNkmonlSq3VuzG5R0aHirc8asG/jc7SgQFbFPACmBpRtryslMQoSY1XTdu/NLcWLGLwALXHOop3NHJhvGWsFuZ7B9zZH15BDVVUPajJcDC+62q/9UUWDzB25uk0WMxMevjyvo7uLy5APxvzCkD6U+pgBXAorKprCSbw3GdneylJtJiG3oGrjlYtB2dbBiBJZOHRCS/jhtpkHo/PbAyir7CDeaWfJdf9gPeNBeA/405ZSD9KRWwEVge7m67vuKoniTANYd6OtmdbMwAa9ucOn5KiJtlnMPCuYwjLKqTTV7p93ml3+Py5gLapDv435gTCtKtVcAWYLVIK69fvzYx1kkbUtE2re0KuOZY7pqjJwkzwNrzEdbTAwv8b6z904DyWAFbgBUeFpiSFEPDk+km3oeFAbjmWOWak1vyXW7JdzRtu5RJ7HNYLa33wxNP0WrhTcYRFn0Oq+42Lq8nCfC/oaoB8V4rYDWwBvuarly5MtAjNSUULcXaroNrjlWuOSKpZ2j8q93K5P7+TJUqB6m9ONcdGPs741PCZn+e4G3aHNbYaDmXd0jS7N/fn9nfnzmja9aTxPRkE9rMKj7PT3sXxVMTEvRaQ1TKHwxPCQfz0FPCoaF86pkF/xuqGhDvtQJWA0uYGhcS7EdjE+OmtV0H1xyaYuxONquL/ZlFXwfwj3J5h4Jij+O6KlUOP+3doNjjBWU/1kncacDSk0SD1Dss4TX04lXjY2NBsYyL38PCQU2DC37TvUF6LzT+1YikU43NAXhHKAD/G5ogsLmnClgNLEY2MSbuab+hcVAAFHgBFQBg2c3CGi/gtxMOGRSgKQDAAmCBAqCA3SgAwLKbU0W71MAmKPACKgDAAmCBAqCA3SgAwLKbU/UCXk7hkEEBmgIALAAWKAAK2I0CACy7OVW0Sw1sggIvoAIALAAWKAAK2I0CACy7OVUv4OUUDhkUoCkAwAJggQKggN0oAMCym1NFu9TAJijwAioAwAJggQKggN0oAMCym1P1Al5O4ZBBAZoC1gFL2dHA9fVyunrVxflO2YMsxkUacCJtT7AJCoACoMBTKmAFsGYmen799XZWRpJuvLu1pebaNafWlhqMJ9PgKXsG1UEBUAAUoClgBbA0w62Ojo6a4TbEpkB/H3YfCtqeYBMUAAVAgadUwApgzen6uL5e2ZmGEVZbS83tWzfZF0p+yp5BdVAAFAAFaApYByxlR4Oz8x1HR8crV64UF6Sb3gZSU2h7gk1QABQABZ5SASuANToov3njl7rqQt14d2+XxJ1zt6I0h0ooWvyUPYPqoAAoAArQFLACWPU1RRyOK6ZSblZK+P0gvGka0PYEm6AAKAAKPKUCVgBroEd69cqV2sqCibHOnk4xx801LzvFlFM45Sl7BtVBAVAAFKApYAWw5nR9UnGZlyfn6pUrd+7cSk+Nn5noxXgyDWh7gk1QABQABZ5SAeuAZUollpSn7BlUBwVAAVCApgAAC36aAwqAAnajAADLbk4V7VIDm6DAC6gAAAuABQqAAnajAADLbk7VC3g5hUMGBWgKALAAWKAAKGA3CgCw7OZU0S41sAkKvIAKALAAWKAAKGA3CgCw7OZUvYCXUzhkUICmwIsOrIEwx6ZvXlsbb6PpApugACiwDxXYd8BSqdoKyx8gpZKzMmZ0KlPV5ltLxKcdyMku0yzGFHUGt+k/vxefdhCfdtAWhVPL9HC/bfzq6KpaTk3cD/GyJErr4rBQ5Iw6s9wQPun/BxSvNCdqXRzQZ8Lzlflsp83FoR37vCKLIzhHdixGLbBQ5Ix3NJd+0cIsarG9jll6aLrraf4/53OumaabS5mc7EivDpmYaMcF8kW89OoQ6mf5ifLV8jRqenp1CLmixhUh2C0F9h2w5G2NosZaPUmsr4zzUlIerWpND9UqYK0My8SnHYb4t6dEwimR0JRNmysa01089xQDsFwPTQa8iXpCB5bb4dWOjNWOjCVR6ITnK7OC73bssA3AWh8Tr7YKV1uFuvC/0IDFkrVjT3axgFXdsApYm2vaMlmiqDWT2ttxQqEeb0afMllioThmfWUMFaiWp4nbs3Guerx5Y43hq0ttDWIbFNh3wKppqGrvlOlJYnpyQJCTxXhI821WjLBmm/PFpx3WZ/sZm9q3icuSKF3wu4TH79ZH6vQkQQMWday0LOVrXX7zaGaH8aYNwMLizCR+TQOWJVm4zDMIWHqI924VsAZHJZk1oQtzzF+b3qG6nPqI+dle3Hi1PK1zoAJvQrBHClgHLGVHgx/X28nJydXl16J8Icsvn+d0fbb1OLekcHSkU08ShnvDCuO9oZ4kVkaaO1w+k5491uH8yWRVIvWWcH2mrz/sUtO3/092/pWB8CuP5ox3kRsLw+uzA1OiNPFphzVN6/rswPrswOay8ZIoPfcyukkUn3bYWBrFvZ2oiGv88oiuNqXlx9dl508MhF/ZWBjGuSsqcRfnc+m54y0/vj6W5a/fs6uoAVhBb8+mfr9Y6s4OrPUxsdbF4eFgFe4kY4CAtdaROen/vxNeJ+ayr2wubR3X+ph4Ou5zwvP4JPf1xWr6cbHgwFzWamuaLvRPhMcxXdgHa53GC89STeBM8r/1JEEqCwx9HijTk8Rs6ndLolDUZ8ZaepJYbRVqXRzWOrMmA94kPF+eFXy7Mb8NJea6sVjFnfQ9OeH96lJdyHTsGQtvCddXxgoaeIqeEkYlx7QtmbVh1FtFPUlUy9M6+ssZy0PiLipgBbAIdeetmzcK84UTY53t8tpbN29UluWyMMvaXnZ2N8enC6NSUmLTUuPThfy01OhUQUq2cUze9stHiqvvT4mEExVxbTc/pgKr2/Os4sp7s7LcmcZs+aW3e3y/Qbvu8fsOIwkHeA5rpjFrSiQcSbxrCizJF4dVUddXNYq5lkLZ+VdGBR6owUdzqubvTvb4/Hu+rYQo5UnPHhsvCLP2MC0svyyJmvT/31WFQBf8Ljuw1rqytS4O68QO03AGYLm9NJv63Zoyf7khnOAcWSwzHtfmgmrS5+RM8r/JvpLlRh7hcWxJtO24zOFATxKMWQ8HyrQuDvN5N1bb0uZzr2tdD62PGG7z1zoydaF/0pPEkih00ufkciNPTxK68I/WlPl6kjBXCwNrPvf6ukZK9pVMcl+fz/uFqiRjN9Y6s7QuDotl7mtdOXOZP0/6/6+FwOocKM+tjySXty5jeF8PV9RZtfdLpQlj2maciIDV2ltCrqg3Vsep6RDvrgJWAEtUW+R21wUTKisjKTTEH2+aBtZ29OGyZnpyIDpVsDg7vDg3UlpdJm9rXJobMVyQJ7rEpx3m5EWoTeJBFAaWMaulEGXNynLFZ37zUKc0DMoGJfOtJWPZAeLTDjPS7PnWkvnWEpIwDN/wZ1qcYQos8WkH1IKeJAajb7bd/Csqr6tJavzq6KO5QbQ5kuCquPo+bmp3AwOwuK9vLg4RnN+uaySmt4Sbi0Obi0PrGoku7ANd+F923PuKLE7r4vBoQoFKzmVf0UUYj2ulJYlwP7q5YDyuhQeuupBtx8WIA9QOY9Z89tUp3j9wl6YiPp7Pv2WYl9RICY9jepKYz7k2m/rdQuGvepKY8Hz50WSrIdFMLQys9QkjlBcrvHUh7+H2zXFzPttpKvpTY7FVzST3lCXAWl4YzKq93zdcryeJzTVttTxtcnJr3p1cUYvbs6vlqRk1oXJlMe4DnnTPqAktkcYTE4Yjgs+uK2AFsOqqCzluW0sk52Qlx8aEm3IKp9jQ1/ExZWZhHqqYUZinHTNwx3BB7q0Vn3ZYGTFe0+YVDzCwFjrKcWy4hmvbxacdlnpq8N5nm/Mez2EN4BRqwAgsyb9ewmXGMv3kF40z3+p0ruKyYbyDPpNVCdKzhj+/vfg8BtYpw59i0rnFins0YOGHd1oXB13gW+vjhlk/9o8BWG6HcZnFKj88o79YyUXjOJS70pyAsIILM1IJ5TJmTcd9MZd1GVefy/h5JvGc4e9/ZUx79/DGTPdUzGcrTfHT8f/amOsl3I+hO2tztTCw8OORVXnyFokeHzhjN2YSz81SHm5Ox3xmCbAaO/MeNMahKfPNtfH06hD1+LbBFDquIXVjenUInuSanemZnOyYnOzQEPJahTC7LnxlceuOG0sBwVMqYAWwxoZar11zqijNmZ3s7VdK79y5JRWXYTyZBjb0rLO7uUpUia5s0amCtSXjfNNST434tMPqaAtqk/qUEMWNXx7BH/Fph8WurQkdG4DV+OXW4/+xTL+Wi8b3CdRp3uIzv8E7knxxmFrShuNlqYKBtdIUrwv7YFkcSX2tgXB76eFA2Vp3rvbu4ZXmBJZ2cBZt0n2x2g83uFjhrXX5DcE5gj5at8PUSX1z4xfUMiMppvn/nMu+gnc9l3lpOv5LtKkLfOuhqnLS5+TGXO+k3xsPh6p19z9EWSy10ByWftX4fcAt44CxG7RECyfds+vClYM15IqaXFGvLY+aA9bG6nhGTSgjyx6uqDNrQkfGpLh7EOyWAlYAa07XJ5dV+fp4uTjfuevqzPX1MoUUNcXaLiZmpMekCmJSBfHpwrh0YWRycny6UNljuAvYcYS12FW5MiTFH+ok+m4CK50rv/Q23oshGGmy9jAtLI+BtTHfr717eLGUg/my0pyIgTIrvID/4NlbZgNWJVcX9Pa6Rrr1Gd92XLS/fOqOGLNYxkozCWeX6kN0we/oSWLS1zCNNZv2I2qQpZatwLJlhJVdF057owpRiVxRD4w2UN+uyqwJHX5MpY017exMD37FQU8SBQ283iHD41347K4C1gEL8Ugz3Hrnzi1lh5iKJ9PY2o4uzY1kFeX39SkW50a6e1rySosW50YeLhtekiKJTsMc1pOJKtM5rCVlNdrd+mz/XEvhxtLWO3u7CCxdTZLs/An8nHFVLV/o3Ksn2RhYhjc84v81FfExI7DWR2q1Lg5kj3EKj0VzFmCttCRNeJ3YfPJK0Tohf6jadlyzKd/Mpv3A2Dhj1nzOtW1zWJEfLxTcRtUXCu5Mx/9rJum84bhiPptJOr9Q7o2yWGrtCCzmbmRfnYr+xNhti+ewdDrDnR36TEy04xEWuaLGsZ4k5mb70qtDpnSGKVE02hpWG4dU5Io6oyZsVLMN+ozqQaK1CtgCrMiI4JSkGFNC0VKs7crmmpYvTFtZMDyaaZI3NDaLqC20/fJn9JRwsiK+7eZfqfNWhqeEV/80VZc6Lc7odP1M4fhH6tsGjMBan+mbFmdMizNGktzEpx2m6tOmxRnzbYbH2Oi1Brxr6i2h8Smh739mZDmTlQktP74xEH4Vl9zdgAos40uklDfd8QjL8GfP/ye+4WLpAwuwnjwl/M9aV85KU8Kk3xvz2duOa7HCZ8LrxEpTPHpblfpKAWPWQ1Wl1uU38/m3VtuF83k3Hj8lNA43lsWRhOfLiyVuj2fZnSa8X11VCFC3WWrtCCzGbqx1ZBqfEnbnGp4S+r1hyRwWVUPaHJaoLauggTcwKh4Zk5ZIE0oaE/DboZKOnHwRr39ENKppqmoR5Imi1pgeMlIbh9gGBawGVm1lwe3btwh1Bw1PppvW9mZmciD5yUsMRRUlKtXWoxnDI79hWYfzp41nj7Xf/niiPJYKLON7WN+8Jjv/So/Pv2nvsjMCa6GjDL/ogIO2G4ZnbSzAMnRDJe50OyM9d7z5+5NDMbc2Fg0PMXf4rGoMky+Wfx6/20UF1sZMt+GtdzPAWut8/FqDusHQDcZ9PW6QBViG53dj4unYM4b3sHxPzuff2lzadlybi0Ozgm8J92Nosp/6zpe5LMP78aF/Ity3vYdlGCz3FGldHFZkcYY7/dpgwwsZ6q0rk7laOwLLXDcWK30nfU5OeJ1YrPazcA6LejZpwCJX1E3dBfkiXm59pKgta2lh63djD1fUzd2FBQ28nPqIGnna7IzxeRG1NYifXgGrgWUKJnMpT9+5g9GCLuR96kO9HePVVqHNB64LfMu0/adp0OaeQEVQYC8UAGDtND7acQC1U4H1cdn6qMjyzwblum3tKTfMmpvs62katLYDUB4U2FMFAFh7Dqw9PX/QOCjwQikAwAJggQKggN0oAMCym1P1Ql1I4WBBAUYFAFgALFAAFLAbBQBYdnOqGC84kAgKvFAKALAAWKAAKGA3CgCw7OZUvVAXUjhYUIBRAQDWswaWbrxHM7ztJX7GEwOJoIA5BcaG2qe0W6szmyumJ4lHK+MHbEHB/QisfWK95VdX8s+0hInZnQ1pWL4x1Kz1ZU1hXgaHw6mt2lr47fEqURrF5Xfbb31MLQwxKGBOgaryAnd39weFWY9WzK5uOtyviAgPc3d37+veea00czvah+n7EVg2WG8tdlVpcoJ2V19OZeFfk2M108Z1OJ++8cz0ZB+fex0KEe2it7Gkbv7+pMLRsOKK5R9dbcqUyPYf8Vi+o/1Qsj/sUreHcUWt/dCf59uHjdXxtpb6e/e883LSGHvyaGWc6+uTJkgY7G1Zmd/2s1DG8naUuB+BhQYdVok4nh/S9O3/WFXFksLrTCZjllQ0LdOvlHE4nH4l85Ijmytjm2tmr5amrelJosfn370BzEu+MJa360QAlunp624Xczic4X7jmtfUAnO6AQ6Hox48gPbA+xRYVPUtifcIWJbs2sIyGcKkuFiD58JufQBYu6UkYzuT4+pLv9TP6hjWOGXJYmxq7xJ5UeG52QyDrJX5EQ6HM9DDfHXcu/48g5aZgaUb705OjHZ0dIwID6YuxtDVVu/H9b5+/Zqry6+lxZnULNPYht6bs95a1SjEpx2IUl7rtQ+lZ491up1ZHTP6EbTd+AteHwYHs83GheHN9SFQVOpakX82M+V8dopksPWfaQmXCjMWniz79w9B3PsJ0ehDbp8maBxqu5if8deU2C8zkqKlVXgIVqZs+iiZX93X8mVG0ieC+ID60rXHSw/iDgQF+tdVb7mWofTlfhHuc/vtbXNY5tzGHs0P4SrUgLrIKt4pLejobPIOj7rM8bnDDcouyl9/cmiLc8MXnD3rG2t8I3mXOT6+kTyNemt1lJKq0lu+gdc8uQ8qSwNjYoV52bjZzq5m7/uRV9x9XANDq0Vby1LjAtYGs7Lctl8+kp49Jr/09njhfVwdjbDUqV7Scy83/3BKkxeCs/QkMZYdIP/5rcYvf6u4/O5EeSzOmhIJDf4jjVnyn96Unnu51+9by+0pWahkLqususwlINTR7Z5bUJhYurXcqDAv248XU1JVet3T74Z3QF5J4eYTd7i1RXVChtDJg+vsH9LR1XTB2VPe2qgnic5uQ6zV9OBjiU1L8+fF4E0UVJUX3A8LpiWiTQ8P97aWrT4wlrHHRAZg6ca7ORzXqIiQNEEsFVhThPL27ZsPCjOmiR5lh/jWzRst0kpTTuEUG+QwZ72FgNXpdma5X7Q82Nj2y0cdzkY3lDlF8ZRIOBDmKDv/CvJ2nhIJH+q62fceKCr9Llf4cGX8clHmjZIccmX866yUzDYxqiUZbK0bUMTIqt9PiKYCa1Q38EFiTGxTdctwR3lP8xfpiclPvhNlyqY/J8WENJQRM4Pykc5PBHEJzVtGGHqS8PLyVDQZrK6on/U5Feqz0utrU2Axuo1trmpQlbabH3c4f4IPecc7Sq2m5ydXr9ySwu7ulsYm0S3fwKIKo+8eAlZgTOygqn1cowzix7oHh6N+dnQa/nKyi/I7upoSMoS3fAIwsEaHO39y9YpPT5e3SQrKii66eElkBqcZmz9LvbWSzw/3h/w8JUobTfUUnzk0UWFYNktPEv1hl1p+fEMVdX2upXCIf3vb8rNlMdJzx4kHUbPNBWM5gZIvDqOFGPUkgYClirq+MiSdbytp+fH1Qd42czDTrk4R6ty8DkIzOjM5dumX+qU5jVY9mp3TOasbY8nSk4RIWnvVw7dOUtPd3VJWU/7zXa/+fqNxjjAv+5ZPQGH5g0miX9osuuji1dIqQbvOLsq74u5b01Dd1iGNTErGwFpfGb/q4VteYzQ63Fgdv+bJxZu4202NVb4+9/AmNfDj+jY17sIlhNrmfogZgEWoO2oq8+d0fXnZKVRg9XU3Ojk5zU72IiTF8SOyMpIwnkwDmw/P1MkGAWuqLhW1ibxRH81vPb+z9pYwUFTqVW0wDYuQVPKkBtuLuxUF4eJt6wI3DLbSgEWujM9QpjDjmmouFxltE8uUTe8nRM8uGCc474srfirIoCrg7u7eLjf79zzEv2MKLHNuY6hZa28JHy5r5me2FMsrKeRGRaOmELDwoKCvr/WCsycqnJqT5RtpvJPdWB2/7RuIgZVZkOcRYuSaniRi09JC4+Kph2xtPBT7a6uTwbUQffqCLnR5/AvF/WGX5D+9iReSlV96ezjBBWU9mlOtz2y59rbf+ftIMgdlIWDhwbg6zVtxZZs5GCpG/X+gd8jFQ+L4S31MnMLxRn10nMLxl3pXT8nQwDBLlsHXZ2F0ifLd4EZF55UY160W5mX/6rc1DgqMiU19YmnOCb6f+6AAdUCr6cHA0pNETKogMIaPsvr7DWdkUrt1mChd3lTj7e2F+7+5piUX1WsLo4O9LZ6eHhNjO1y2cUU7ChiAhdFDA1Z3u+jGjV/mdH1T2u45XV9SAk+YGocLmwY2q2AOWItdBrLoSWKxqwqZOeNd7AqwwsTbnHtNgbVJEgnNNZ8Lkz5K5n+UzP8gMeabHCND0QgL9ydNUX82MwVv6knCBmCZcxtDzVoLrM01bUFZ0U2fwEtu3pfcvH9y9XILMrqlImAplUZTokltn3twOPrziEpO5qcaj1FPEgHRfAysqOSUmFTj6sbUI7U57vH9pjfge8bq/WGXutyN8NKTRJfHvwbCHFHJ9dn+3oDvZedfQW5G4jO/UUVeQ1kIWNgcTFeTjAfmjHtBiRur2p6uwSi+/NJjbPUph/AdHEvW8vxoTKrAyYOL5L3o7CnIMV7MDLeET64NepLILMzNLMxF+3Ly4NZJjCPxzTUtFViyloafXL1XFgzuBDnF5IdMAQAAGY9JREFU+e6UawPuPA1Ys5P9nMf//P24PZ2GW8uD97EaWFOE0snJqaGu+HkAyzjERcBa1Ww9H3k2wHqglP05Kaaqr2VUNzCqGwgTl1OB9VGy8XqoJ4nHwEqmfl08PDxY5hQYR1hUDzHq0vKoWWuBJZLWXrrrLWtp0Gp6tJoeYV62CbAYvKMjk7YBizqHRcuiHqxtMcsR0Z4Sdnt82R92Ce2lL/ii/Kc351tLkJtR282PTYDFMHHO3sO5Kc0dN3FiSquLh2RxxmCDgj/msuKEQhf/kL6+ViSvTwRvG7BMpp9Qg06P7yJx41RgrSyof77r1aIw3Dxygu/nlxpdhHFhPUm0yKrv3TNaeBjWuV7WjKpaRwYU4voyH597s5P91MIHI7YaWHO6PmVHw5S2+wUElkt5vmuFwVQdfRKaaywHlq/PPZnEOELELeDgGQArIjEpIikJ77GgrMgSYCVmpofGbfkecoLvP68RFvU9LCqwpOeOa/JC8XF1OH/69MCKiJb7hcg2VrW+gTJe7DaOm8u66uFbWbd1fv15MZYAy9k/pKSqFHV+YXaICiw9SYTExiVkCHUT/RecPYeHtjmWoyoNdaWBAX742KkB19enWWq0kqKm23tsBbBM57Ay0xNN7wRxis3SmL8lND/CKrwv+/cJy/fIOIe14y2he1XhrTLjYP6/F7Q7ZXmWA4sfE5mfa/Y9T1uAxf22h/ut5YfMSxFQ55jC4hMtAZZIWvvzXa+Orqa1xTGRtPaKuy8GVmZBnntIBL5d4qelUtu3vGO45FDsr4qrf8ITVX2BP1LnsMwBS/afV8cyjX+0GwvDsv+8+pTAGlePON0RaUYM05Gjg8NOd0QTGqNrHEvWdS8/jB5yaey6l58lwDKMywJCxzXKlQV1Rn7uxSdPCZEmNQ3VN+8F1Iqrb/kGYp2xXIa7y/TkhHjjRCQ13dxDHloZe9xkBtaUtntK252TlRweFmiICaVh6urxU8KSooyZiV70lHB3nZ9ZrLfQpDv2cza9JZyTF4lPO2hygpB51/osszE9PkMswFpYVDcMtjYMtsY2GZ4S1g0oGgZb29VdepIoUcr+lBgjbBUpRjojJJX/zhZYDqy66gf37nkvz22zL18ZaUIdVnqfUzi+g+KVQcNdALt5j+FvSeAhO39CV5M0Lc6YkW69aoCPkRaIpXUXXbzKqst6euQZBbl3A0MtAdbG6ni0IOW/M74XnD3DExP9eTEYWCPDHegpoaKtsbC8+KKLF562R7temB7k+vo0NmybGaT1irq51FODnhJONwjVqV6Gp4RP3lFguSXsD/m56dv/p6tJmm3K7fb4Un7p7acElsF/bHrrLpIas2TFp6ff8A6QtTR0djf9d0zqGhhqCbCmJwc8QsIvOHv+5OpVUlVKG2HN6FQXnD09QiPwJD1VroXpQS8vT4mIQd61hVEOh3PAfpSDjp0BWJqRNsft/7y93NG4Cb2Hde2ak/OvdwrzhXgwxRhQxbUkZrHe2hFYepIYiv0Vv8a11LPtlQLTvbMAq3OsG7+EhYOL+YZHfhtr2rimmjPCxH8I4kJEZUkttZYDa3Vh1N+Pm5IURy5umbyq032p71KheDje2RJgrc/2d3uebfzyiPi0g/TsMdNjpKVsrmnzS4tu3gtw8vAV5GQWlRdbAizUyMLs0PSk4RrgRwGWniTaO2Ve9yMvc3xcA0Iq67c9Y9WThKqnmcPhqHqaaT1h2ZxpzG775c+NZ4/Jf35rPH/rZSsWYK3P9PX6f4fez9I+iOzifP70wGLpobmspfmRGIHgqgf3tm9grbg6ODbOEmAZftSxpp2a6F+cG95YHacBS08S3uFRF5w9u5V0DclFdUJ8dGCAH/XrhPsGb7r3MSKJPRHLBwFSYGyonevrExIcaL+vILsGhhaWb/vlNsvJbWwo53A4B+y3bCzH+5RZaDzV27v1KMlcg71d0uCgAD+ur3aUYWLLYP64qPb09CgvyV2ZH6H9cNVcm/aSzjDCYseQ5bn2IsGz7Of8lOpBYRbL7Puz7IyF+xob7W5tl7a2Nwrzsi84e9IMblkaKchNN/ceNkutFy2rp0fe2i5tUUhCYuN+8fJffex8zi6CRFReUpS9wPqz/GZptZeX58G7MQRgbT2xZv+WvLC5gpzMC86eF509XQJCRY073GtTVYrlR+Vkbb3DRc2CGCvgFhR2wdnz0l1v7/Ao1cBu/lx5dWF0fKTjgI1wAVgALFAAFLAbBQBYdnOq8DUZAlDghVUAgAXAAgVAAbtRAIBlN6fqhb2owoGDAlgBABYACxQABexGAQCW3ZwqfJGhBWDDQxNkv21abnKz33q+D/sDwLJjYJmz4dmH37MXuUuWmNy8yPpYdewArOcGrMahNvzTn3+lb62joCcJlizq2TVnw0MtY0lcJ6l5vKyocV3pmoYqvOBccrbhJSz0HtYdblB5Lf33N4zt09Z4YCxDS8wuykM7uuDsGSfc9itxlixaI3u6iX4lgzopktIXj6Xt+oKzZ5PcuIDtjiY3tLqwyaIAAOu5AWt6frhuQFE3oODWPaABiyULn0t2Gx5czJKgTlJz0cXL2d/42z0asLzuR6I33bOL8i+6eNU07Lzwrg3A0qiV8tZGeWujd3gUDVgsWZYc3W6V6e1VoB46ut2zClioAywmN7vVwxehHQDWcwMW/npltDXQgGVR1u7Z8NRJatyCwq64+46OGH6bRgMWdT2s+HQhJ3jLGwL3kxbYACzcQnhCIg1YlmThMs8guOLuYwOw9CRhzuTmGfT5wOyCGVjmXHPMpTP+wHCfa9Qz3nOpMOOjZP5fkvlOD7KHJ40LZjsVZ7tVGJfZ1pPEyGT/+wnRaHkZPUmUKZvOZ6d8kBjziSDOu6Z4aWlrHZJR3cCdsrxPBHFfpCfeF1esULLMee0giWwDFqMNj22a/3eVXtfA0JhUAVrWkgVY1aKqS25bS1ya2x0CVmF5sZOH723fwIq6bTeSre1Sj9AIR849j5Dwjk66FZUNwGpplbiHRFxx9/EIjWjvMBodl9WURyYZFn1VKlsuOHsOPP7VS4xAUFVvXGaPsZaeJFhMbtDxMgJrbVEdn57u5OHrGhiqVMovunjhW0KskjmTm6RE/r173iMDO//sGTf1wgYMwDLnmmMunZFWczr6gvn7SuJNkvg8PdGtoqBd3dU62nWjJAcvFFPULf0omY9JlCKv/yI9ceOxL9PwZP+fEmMSm2u6NErJYOtXGckhojJ0XCtLY19mJF8qzKjuaynokv4zLcGvzmjqxeK1g+raBixGGx7bRK6T1PzqF9ysEKMFZ1iAlV2Ud4e7s8N2Ymb6HW5Qak6WUinPyM+94OypVBrX7Rwa7Ljo7JlfWjgw0JZTnP+Tqzca1uGeWwusgYG2C86ewrxseZskNSfroovX6LBhnNjWIXUPidCTRFV95U2fwPrHv4L0vh+JlmoxVwsBy5zJDeokI7AyC3PRAu1tHdKo5OSfXL1NgcVocrO5pr13z5vD4djXT+Lx+XrGAQOwzLnmmEu3R2DNLoxQx00z8yNNI+2ISotLYx8l80ufWDT/mCeMeLK0cW2//MMkPiqGBl/KcaN/n3iw9U8J0XNPfmpf1C39a0osKsnitYNOtm3AYne1sOprVCepucMNWltUO7rdG9coacAKiY1bW1SvLqi7lc1XPbjZRTt4PupJIjEz3cU/BC+S6RoYml1kXFo6JTvLj7LAuU8ED68IiPpsLbBSsjKpFg8+Ebz0/Bw9SWg1Pf81TNSThCAnM0YgyCwwdNvJwxct7GWuFgIWfuagJwmqyQ3qISOw7gaGFpQZl11H/jemwKJ5RuBzND7S0dZSt77dyBLnQkBVgAFYGEA015wd03EBFFB3s9/ijTXt58KkS4UZ+Z2NipHORcrtm2HN/8rCW6WGpZDHp1XvJ0RjKg3rDLeH3tVFpcqmbo0Su6gafE06JKfTEhkPk8VrB5XfD8C67RtoMD1LTCoqf0ADFn54d8HZMyQuntyuFeMhJ2amh1Asv0Lj4hMz01HJEMrKdnqSSMrKCE/Yppu1wAqJjUvKMjauJ4n49PTwREOD6yvjP7l6zc8M+UfzJbL60Lj4xbnhyxwfhFFztYy3hGZMbtAhMALrirsvXsoC+d9YDixGDSGRUYEXFFh6kujWKG+U5HyaGv9+QvSfk2LSWxuwQA2DrR8kxswujKS3NpzN3GZ+U6psQs7P7ydEfyKIb32yglp2u/iMcNsfHm6NxWsHlbENWOw2PHjvlgR1khoELIms3iM0olZcjYcYydmZvpG8gYG2suqyiy5eaHiyY5u0SffQuAQMrMCY2J9cvZAXFnIbo07q60nCWmAFxsQmZxsNtdDgDjfoGhAyqGq/6RO4ODd8hxs0NNjhFRaJOs9SC81hsRyjGWBtm4mnvtaAm6KZ3OB0CCxX4MUFFtZobmE0srHyz0kx2Kp+fVX7aWp8flfjpcKMGBmD9cgmSWimVNcfZGO3VJYRFovXDuqDbcBit+HBR2dJgIG1PD/6k6t3XkkhFVjo739jdfwONwjdWO3YJguwQmLj4oRpyAsL/T+jU1EbtBZYLGOlsPjEyvoKNDF3yyegXlLDTzOuz8VSy1Zg7TzCYjG5oSoAMYsCLyiwpudG+LJqPOU0/PhR4AjFxy1EVHYxP+NPCdEDRC+Wr0vTLaC4N+d3NeLbQDSHhZ2fCylzWCxeO6jlnA6JudEZSxa7DQ/usyUBBpbBWiou3ieCZwosPUmU11ZccfddfjJPx9IyC7BSsrPuJ2z5ho0Od2o1PdSmopJTqNatO2YJsrO2z2FFZeQbnY0yCnJD4+KRuVlAND8iKamw3PgkhKXWjsC65rnlfoq75xoYml9qtHo2N4fFYnKD24GAXQFmYDG65iDPZ1M3HdrUFd5k3/HzzV1eGvubIM6jqrBluKN5pP1uRcFnqQkPV8Zxr7o0BiuKf2dvczZuU3e9nxCd1FLbOtopUim+zU397+gJVVk2PCU0TIrhp4TcJ08JWbx2UF1ke5GqqEduPWNTWyMOlixGGx7cf6sCKrDQS6SMwFpdGL3qwcVmViy7YAGW4Smhi1deSWG3srmspvySm7esRURtqqii5Lqnn0RW//htVeny/CjOZcwaVLVfdPZMz89RtBkWcTY8JXz8NpmeJGrF1Vc9uMgLPiU767qXX7PC+PY5S60dgRXEj/UOj5K3Nra2S9s7jW9RZBbkOXlw6yU1bR1S5DNEm8NiMblpllZzfX2miX39YB2fhecbMADLnGuOuXRMKFrwfA9sx723jHRcyE9H72H9XJDROdZNrbJJEh+nxCY201cEzm4Xn81M+VNizD8Eca4V+TqKbdfwZP/t0rx/COI+FyaFNpQtP5mcZvHawXtMbKn9LDUB/VInTVGP0w2TMmayGG14NlbHrfqgGWgqsOZnhi66eDECS08SWYV5t3wC1h+TnXFHqOcswNKTRGt7o0dIuCPn3t3A0JoG+h332qI6WpBymeODJvuHBjuwGuay5K2N7iERlznb3sPSk0RPj/yCs6dEZtCzvLbigrPn2OjWWTZXa0dgaTU9PhFRP7l6G5Y2fvJW2uqCOk4ovOrBdfEP6epups1hsZvcFOZl+Nzzxg9V8fFCYKoAA7Bo3LF503RndpTy3zet3k+IHqbcJO7Dzpva8LgHG0zuLP/IWxttOy5k8WK6o0UKwW1r+eDV2tHkJi6Wl5TIP3gHvhdHBMBi/mnOfXHFd+aNmvfiTNjWJs2GhxjvVY92Wf5ZWdgySbSqA49Wxhn3csBMpazSxFzhHU1ufH3uVZVv/bjCXDuQricJABYDsDbWtGeEidT5dfiugAJ7pMDC9CCHw+nptHGou0e92rfNArAYgLVvzxZ0DBR4wRUAYAGwQAFQwG4UAGDZzal6wS+tcPigAMxhAa1AAVDAnhSAEZY9nS24xoICL7gCACwAFigACtiNAgAsuzlVL/ilFQ4fFIA5LFtopatNmRJts3V59t+k2RlltTwtuy6iSMLvGqjaXNv6FeSz7wzsERR4ZgrACMtqZvX4/Ls34IdndoZMd7S2PJJbH1mnyBgnFL3DdVl197tU9F/kmdaCFFDgACgAwLI/YKlGG/LqIx+tatD3r3OgqlAccwC+i3AIoMCOCjADy5w7TldbvR/X+9o1p7uuzqXFmey/i95x38+3gOLq+8MJLr0BP0jPHpP//NZUfRruz4pK3MX5XHrueMuPr49l+esfO1A8mh8Sn3Yw/WwsGdY/IR5ESc+9jFsYy/RrufgHtPlwuld82oEo5bXf/rjx7LH22x8vq4yLnExUxDV+eURXm9Ly4+uy8ycGwq9sLAzjRswF7X1lVS1b696ME4r06hC80ryeJFQ9zd7eXmmCrWWnzDUF6aCAfSnAACxz7jhT2u7bt28+KMzQjXe3yWuvX78ml1WxMGufC6G4+r6BUyLh6mjLcNyvjV8eWdMaVjJ5NKdq/u5kj8+/59tKiFKe9Oyx8YIwPUlsrmqmRMIpkbDt5scdzp+geEokRPNHOwKr0/Wfi12VK4OSTrcziqvvI3EmKuIkXxxWRV1f1SjmWgpl518ZFXjsqFtbb2m1fAuv2gkDsPCAS08S4voyDofD9TVYMMAHFDhICjAAy5w7zohKnhgfhQkVGuKfl52CN02DfS6T4ur7/aE/o05urmgkXxzW1RmGLbqapMavjj6aG0RZIwmumC8ohXEOa0dgTZTHourzrSXi0w4PdYaFmSYq4h7HRuudweibbTf/ioqx/I+Atb4yViiO6RuuNwXWw6WxtpZ6Qt3F0ghkgQL2qAADsDB6zLnmoKVH79y51SgqxYVNg30uh+Lq+6Mp7riTHc6f6moMfhPqdK7i8rs4fbIqQXr2GN40LAvHNOm+I7DmWozrh6yOtiiuvr862oKAJfnXS7jxsUw/+cU38aa5AAFrY01bp8gYG282BZa5ipAOCti7ArYAa3aylx99PziIOzvZa8opnLLPpaEBC/dWneYtPvObxi+PoI/ki8ONXx7BuU8BLOOC39Sm0BwWTqHOfOFE02DHW0LTKpACChwMBawG1uxkbxw/wtfHa2KsE7OJMdjnApkFVjpXfuntlSHp1mdkm5068wirNFp67jg+ZHUGV/7zW2gTTbrPtewasHacdMfdgAAUOGAKWAesmYme2JjwAH+fHWm1z63q9SRhDli6miTZ+ROby2PoTK+q5QudFdSz3sP9tof7LTVFTxKzzQXi0w5o2l5PEn3BF7s4n6Myuw4s2msNXQNV+SIerT+wCQocSAWYgcXomjMz0RPDCwvw9xkfbUcFpokexrEVStznepkDlvEpoe9/ZmQ5k5UJLT++MRB+lXosowIP2fkTupqkaXHGjDQbZW0sjrRc/EOH8yfTDUJ1uq/ki8OTVUZf1V0HluHF0bqI+taM8QlF33B9dl14R385tYd6kggLDSrMy6AlwiYoYO8KMADLnDvO8ECL4/Z//Oj7Bw9YepJYUYk73c5Izx1v/v7kUMytjcUR6mlen+3v9jzb+OUR8WkH6nz88qAUvb0l//mt8YJQXGXXgWUY0Bl/mhNe0MDrHCin/TQHrborEdEphrsEAShgpwowAIuFQVZl2akiB6Dbg70tHA5nVNV6AI4FDgEUoCoAwDqAr1Y2NpR7eHg8fGKMSD3fEIMCdq0AAOsAAqswLyMq8r5dfy+h86AAowIArAMILMYzDYmgwAFQAIAFwAIFQAG7UQCAZTen6gBcHuEQQIGnVACABcACBUABu1EAgGU3p+opL01QHRQ4AAoAsABYoAAoYDcK7C9gwatDB+AaCIcACuydAvsIWMtzwxwOx4/rK64v27sDhpZBAVDAfhXYR8DaWB0f7pdXluVzOBz1YJv9ago9BwVAgT1SYB8BCx3h5pqWw+F0KER7dMDQLCgACtivAvsOWPNTKg6HMzKgsF9NoeegACiwRwowA4vR5st02Rllh5hl/QbbejzcL+dwOAvTRg8I2xqBWqAAKHAgFWAAljmbL+Q9MaXt1o1386Pv3w8NmCKUuw6sDoXI3X3LG+JAig4HBQqAArYpwAAsczZfiE2zk72x/PCI8CB2Wtm8RLJ2tNPd3b23S7q6MEouqjdWx207MKgFCoACB08BBmDhQROjzdd/DZ8vX76cmhI7PNCCSzIGNoslEZVznvzrbG2wuR2oCAqAAgdMAauBNTzQ0iQpTxPE3rp5QzPcyogqlGibUlPaXs//v727aUkgigIw/JfvD4hOMxPU34hWfUEfCyPLhCkrLAvLMkWUlEAig9KNbVoIAzEXxDMb7/XdzQyckfsMvLORuWFQyB+16uV24+77c/rW7bofYgoBBJwTmDlYSaGiUM5PD5LT9IHO4r5cDILp27Xrbs4UAgg4LTBDsF5rpd3tjSRM62vRSW4vOU0f6FwatRsR+Rn82/dBdyumEEDAMwF7sKzbfHWat8aY4tlhv/d4fXlsjHmuXqQ7lVzRSX28v4jIW+tBN84UAgh4LGAJVvr/VqvRyiRDpTgXBsvGGJGlQn4/aZP1QKc2HnZFpFqJdeNMIYCAxwKWYFnro7ioUBt9tauVWETqT1eKcUYQQMBvgTkK1uRrDSKys7X5O+r57c7qEEBAITBHwRoPu51mZdBvKJbBCAIILILAHAVrEbhZIwIIZBEgWM58HDbLY2YWAT8ECBbBQgABZwQIljOPyo83JKtAIIsAwSJYCCDgjADBcuZRZXkvMYuAHwIEi2AhgIAzAn9LODvFDyqOvQAAAABJRU5ErkJggg==;" vertex="1" parent="1">
          <mxGeometry x="-870" y="200" width="335.57" height="250" as="geometry" />
        </mxCell>
        <mxCell id="pSzIDRAnVB_ECjLOYuTH-79" style="edgeStyle=orthogonalEdgeStyle;rounded=0;orthogonalLoop=1;jettySize=auto;html=1;entryX=0.983;entryY=0.38;entryDx=0;entryDy=0;entryPerimeter=0;fillColor=#fff2cc;strokeColor=#d6b656;strokeWidth=2;" edge="1" parent="1" source="pSzIDRAnVB_ECjLOYuTH-15" target="pSzIDRAnVB_ECjLOYuTH-78">
          <mxGeometry relative="1" as="geometry" />
        </mxCell>
        <mxCell id="pSzIDRAnVB_ECjLOYuTH-80" value="&lt;span style=&quot;font-size: 20px;&quot;&gt;系统调用的执行流程&lt;/span&gt;" style="rounded=0;whiteSpace=wrap;html=1;fontStyle=1" vertex="1" parent="1">
          <mxGeometry x="-409" y="370" width="780" height="40" as="geometry" />
        </mxCell>
        <mxCell id="pSzIDRAnVB_ECjLOYuTH-81" value="" style="shape=table;startSize=0;container=1;collapsible=0;childLayout=tableLayout;fixedRows=1;rowLines=0;fontStyle=0;strokeColor=default;fontSize=14;fillColor=none;" vertex="1" parent="1">
          <mxGeometry x="-408" y="410" width="780" height="150" as="geometry" />
        </mxCell>
        <mxCell id="pSzIDRAnVB_ECjLOYuTH-82" value="" style="shape=tableRow;horizontal=0;startSize=0;swimlaneHead=0;swimlaneBody=0;top=0;left=0;bottom=0;right=0;collapsible=0;dropTarget=0;fillColor=none;points=[[0,0.5],[1,0.5]];portConstraint=eastwest;strokeColor=inherit;fontSize=14;" vertex="1" parent="pSzIDRAnVB_ECjLOYuTH-81">
          <mxGeometry width="780" height="30" as="geometry" />
        </mxCell>
        <mxCell id="pSzIDRAnVB_ECjLOYuTH-83" value="&lt;b&gt;1、用户态准备&lt;/b&gt;" style="shape=partialRectangle;html=1;whiteSpace=wrap;connectable=0;fillColor=#fff2cc;top=0;left=0;bottom=0;right=0;overflow=hidden;pointerEvents=1;strokeColor=#d6b656;fontSize=14;" vertex="1" parent="pSzIDRAnVB_ECjLOYuTH-82">
          <mxGeometry width="250" height="30" as="geometry">
            <mxRectangle width="250" height="30" as="alternateBounds" />
          </mxGeometry>
        </mxCell>
        <mxCell id="pSzIDRAnVB_ECjLOYuTH-84" value="程序准备系统调用号和参数" style="shape=partialRectangle;html=1;whiteSpace=wrap;connectable=0;fillColor=#fff2cc;top=0;left=0;bottom=0;right=0;align=left;spacingLeft=6;overflow=hidden;strokeColor=inherit;fontSize=14;" vertex="1" parent="pSzIDRAnVB_ECjLOYuTH-82">
          <mxGeometry x="250" width="530" height="30" as="geometry">
            <mxRectangle width="530" height="30" as="alternateBounds" />
          </mxGeometry>
        </mxCell>
        <mxCell id="pSzIDRAnVB_ECjLOYuTH-85" value="" style="shape=tableRow;horizontal=0;startSize=0;swimlaneHead=0;swimlaneBody=0;top=0;left=0;bottom=0;right=0;collapsible=0;dropTarget=0;fillColor=none;points=[[0,0.5],[1,0.5]];portConstraint=eastwest;strokeColor=inherit;fontSize=14;" vertex="1" parent="pSzIDRAnVB_ECjLOYuTH-81">
          <mxGeometry y="30" width="780" height="30" as="geometry" />
        </mxCell>
        <mxCell id="pSzIDRAnVB_ECjLOYuTH-86" value="&lt;b&gt;2、陷入内核&lt;/b&gt;" style="shape=partialRectangle;html=1;whiteSpace=wrap;connectable=0;fillColor=none;top=0;left=0;bottom=0;right=0;overflow=hidden;strokeColor=#d79b00;fontSize=14;" vertex="1" parent="pSzIDRAnVB_ECjLOYuTH-85">
          <mxGeometry width="250" height="30" as="geometry">
            <mxRectangle width="250" height="30" as="alternateBounds" />
          </mxGeometry>
        </mxCell>
        <mxCell id="pSzIDRAnVB_ECjLOYuTH-87" value="通过软中断进入内核态" style="shape=partialRectangle;html=1;whiteSpace=wrap;connectable=0;fillColor=none;top=0;left=0;bottom=0;right=0;align=left;spacingLeft=6;overflow=hidden;strokeColor=#d79b00;fontSize=14;" vertex="1" parent="pSzIDRAnVB_ECjLOYuTH-85">
          <mxGeometry x="250" width="530" height="30" as="geometry">
            <mxRectangle width="530" height="30" as="alternateBounds" />
          </mxGeometry>
        </mxCell>
        <mxCell id="pSzIDRAnVB_ECjLOYuTH-88" value="" style="shape=tableRow;horizontal=0;startSize=0;swimlaneHead=0;swimlaneBody=0;top=0;left=0;bottom=0;right=0;collapsible=0;dropTarget=0;fillColor=none;points=[[0,0.5],[1,0.5]];portConstraint=eastwest;strokeColor=inherit;fontSize=14;" vertex="1" parent="pSzIDRAnVB_ECjLOYuTH-81">
          <mxGeometry y="60" width="780" height="30" as="geometry" />
        </mxCell>
        <mxCell id="pSzIDRAnVB_ECjLOYuTH-89" value="&lt;b&gt;3、查找服务&lt;/b&gt;" style="shape=partialRectangle;html=1;whiteSpace=wrap;connectable=0;fillColor=#d5e8d4;top=0;left=0;bottom=0;right=0;overflow=hidden;strokeColor=#82b366;fontSize=14;" vertex="1" parent="pSzIDRAnVB_ECjLOYuTH-88">
          <mxGeometry width="250" height="30" as="geometry">
            <mxRectangle width="250" height="30" as="alternateBounds" />
          </mxGeometry>
        </mxCell>
        <mxCell id="pSzIDRAnVB_ECjLOYuTH-90" value="内核根据调用号找到对应函数" style="shape=partialRectangle;html=1;whiteSpace=wrap;connectable=0;fillColor=#d5e8d4;top=0;left=0;bottom=0;right=0;align=left;spacingLeft=6;overflow=hidden;strokeColor=#82b366;fontSize=14;" vertex="1" parent="pSzIDRAnVB_ECjLOYuTH-88">
          <mxGeometry x="250" width="530" height="30" as="geometry">
            <mxRectangle width="530" height="30" as="alternateBounds" />
          </mxGeometry>
        </mxCell>
        <mxCell id="pSzIDRAnVB_ECjLOYuTH-91" value="" style="shape=tableRow;horizontal=0;startSize=0;swimlaneHead=0;swimlaneBody=0;top=0;left=0;bottom=0;right=0;collapsible=0;dropTarget=0;fillColor=none;points=[[0,0.5],[1,0.5]];portConstraint=eastwest;strokeColor=inherit;fontSize=14;" vertex="1" parent="pSzIDRAnVB_ECjLOYuTH-81">
          <mxGeometry y="90" width="780" height="30" as="geometry" />
        </mxCell>
        <mxCell id="pSzIDRAnVB_ECjLOYuTH-92" value="&lt;b&gt;4、执行服务&lt;/b&gt;" style="shape=partialRectangle;html=1;whiteSpace=wrap;connectable=0;fillColor=#dae8fc;top=0;left=0;bottom=0;right=0;overflow=hidden;strokeColor=#6c8ebf;fontSize=14;" vertex="1" parent="pSzIDRAnVB_ECjLOYuTH-91">
          <mxGeometry width="250" height="30" as="geometry">
            <mxRectangle width="250" height="30" as="alternateBounds" />
          </mxGeometry>
        </mxCell>
        <mxCell id="pSzIDRAnVB_ECjLOYuTH-93" value="运行上面自定义的系统调用函数" style="shape=partialRectangle;html=1;whiteSpace=wrap;connectable=0;fillColor=#dae8fc;top=0;left=0;bottom=0;right=0;align=left;spacingLeft=6;overflow=hidden;strokeColor=#6c8ebf;fontSize=14;" vertex="1" parent="pSzIDRAnVB_ECjLOYuTH-91">
          <mxGeometry x="250" width="530" height="30" as="geometry">
            <mxRectangle width="530" height="30" as="alternateBounds" />
          </mxGeometry>
        </mxCell>
        <mxCell id="pSzIDRAnVB_ECjLOYuTH-94" value="" style="shape=tableRow;horizontal=0;startSize=0;swimlaneHead=0;swimlaneBody=0;top=0;left=0;bottom=0;right=0;collapsible=0;dropTarget=0;fillColor=none;points=[[0,0.5],[1,0.5]];portConstraint=eastwest;strokeColor=inherit;fontSize=14;" vertex="1" parent="pSzIDRAnVB_ECjLOYuTH-81">
          <mxGeometry y="120" width="780" height="30" as="geometry" />
        </mxCell>
        <mxCell id="pSzIDRAnVB_ECjLOYuTH-95" value="&lt;b&gt;5、返回用户态&lt;/b&gt;" style="shape=partialRectangle;html=1;whiteSpace=wrap;connectable=0;fillColor=none;top=0;left=0;bottom=0;right=0;overflow=hidden;strokeColor=inherit;fontSize=14;" vertex="1" parent="pSzIDRAnVB_ECjLOYuTH-94">
          <mxGeometry width="250" height="30" as="geometry">
            <mxRectangle width="250" height="30" as="alternateBounds" />
          </mxGeometry>
        </mxCell>
        <mxCell id="pSzIDRAnVB_ECjLOYuTH-96" value="将结果返回给用户程序" style="shape=partialRectangle;html=1;whiteSpace=wrap;connectable=0;fillColor=none;top=0;left=0;bottom=0;right=0;align=left;spacingLeft=6;overflow=hidden;strokeColor=inherit;fontSize=14;" vertex="1" parent="pSzIDRAnVB_ECjLOYuTH-94">
          <mxGeometry x="250" width="530" height="30" as="geometry">
            <mxRectangle width="530" height="30" as="alternateBounds" />
          </mxGeometry>
        </mxCell>
        <mxCell id="pSzIDRAnVB_ECjLOYuTH-97" style="edgeStyle=orthogonalEdgeStyle;rounded=0;orthogonalLoop=1;jettySize=auto;html=1;entryX=1;entryY=0.5;entryDx=0;entryDy=0;fillColor=#ffe6cc;strokeColor=#d79b00;strokeWidth=2;dashed=1;" edge="1" parent="1" source="pSzIDRAnVB_ECjLOYuTH-82" target="pSzIDRAnVB_ECjLOYuTH-78">
          <mxGeometry relative="1" as="geometry" />
        </mxCell>
        <mxCell id="pSzIDRAnVB_ECjLOYuTH-98" style="edgeStyle=orthogonalEdgeStyle;rounded=0;orthogonalLoop=1;jettySize=auto;html=1;entryX=0.933;entryY=0.993;entryDx=0;entryDy=0;entryPerimeter=0;fillColor=#d5e8d4;strokeColor=#82b366;dashed=1;strokeWidth=2;" edge="1" parent="1" source="pSzIDRAnVB_ECjLOYuTH-88" target="pSzIDRAnVB_ECjLOYuTH-76">
          <mxGeometry relative="1" as="geometry" />
        </mxCell>
        <mxCell id="pSzIDRAnVB_ECjLOYuTH-99" style="edgeStyle=orthogonalEdgeStyle;rounded=0;orthogonalLoop=1;jettySize=auto;html=1;entryX=0;entryY=0.25;entryDx=0;entryDy=0;dashed=1;strokeWidth=2;fillColor=#dae8fc;strokeColor=#6c8ebf;" edge="1" parent="1" source="pSzIDRAnVB_ECjLOYuTH-91" target="pSzIDRAnVB_ECjLOYuTH-36">
          <mxGeometry relative="1" as="geometry">
            <Array as="points">
              <mxPoint x="430" y="515" />
              <mxPoint x="430" y="85" />
            </Array>
          </mxGeometry>
        </mxCell>
        <mxCell id="pSzIDRAnVB_ECjLOYuTH-100" value="&lt;font style=&quot;font-size: 30px;&quot;&gt;🌻Make By Dakkk&lt;/font&gt;" style="html=1;shadow=0;dashed=0;shape=mxgraph.bootstrap.rrect;rSize=5;strokeColor=#1CA5B8;strokeWidth=1;fillColor=none;fontColor=#1CA5B8;whiteSpace=wrap;align=center;verticalAlign=middle;spacingLeft=0;fontStyle=1;fontSize=16;spacing=5;" vertex="1" parent="1">
          <mxGeometry x="-759.9999999999999" y="489.61" width="160" height="70.39" as="geometry" />
        </mxCell>
      </root>
    </mxGraphModel>
  </diagram>
</mxfile>
